<svg width="33" height="33" viewBox="0 0 33 33" fill="none" xmlns="http://www.w3.org/2000/svg">
<path d="M0.0150146 2.356C0.0150146 1.73115 0.263236 1.13189 0.705071 0.690057C1.14691 0.248221 1.74616 2.12245e-07 2.37101 2.12245e-07H7.08302C7.70787 2.12245e-07 8.30712 0.248221 8.74896 0.690057C9.19079 1.13189 9.43901 1.73115 9.43901 2.356V7.068C9.43901 7.69285 9.19079 8.29211 8.74896 8.73394C8.30712 9.17578 7.70787 9.424 7.08302 9.424H2.37101C1.74616 9.424 1.14691 9.17578 0.705071 8.73394C0.263236 8.29211 0.0150146 7.69285 0.0150146 7.068V2.356ZM11.795 2.356C11.795 2.04652 11.856 1.74007 11.9744 1.45417C12.0929 1.16826 12.2665 0.908491 12.4854 0.689703C12.7043 0.470915 12.9641 0.297394 13.2501 0.179053C13.5361 0.0607113 13.8425 -0.000131145 14.152 2.12245e-07H18.864C19.488 0.00132446 20.086 0.25013 20.5267 0.691822C20.9675 1.13351 21.215 1.73202 21.215 2.356V7.068C21.215 7.69285 20.9668 8.29211 20.525 8.73394C20.0831 9.17578 19.4839 9.424 18.859 9.424H14.152C13.5272 9.424 12.9279 9.17578 12.4861 8.73394C12.0442 8.29211 11.796 7.69285 11.796 7.068L11.795 2.356ZM23.575 2.356C23.575 2.04652 23.636 1.74007 23.7545 1.45417C23.8729 1.16826 24.0465 0.908491 24.2654 0.689703C24.4843 0.470915 24.7441 0.297394 25.0301 0.179053C25.3161 0.0607113 25.6225 -0.000131145 25.932 2.12245e-07H30.644C31.2689 2.12245e-07 31.8681 0.248221 32.31 0.690057C32.7518 1.13189 33 1.73115 33 2.356V7.068C33 7.69285 32.7518 8.29211 32.31 8.73394C31.8681 9.17578 31.2689 9.424 30.644 9.424H25.932C25.3072 9.424 24.7079 9.17578 24.2661 8.73394C23.8242 8.29211 23.576 7.69285 23.576 7.068L23.575 2.356ZM0.0150146 14.137C0.0150146 13.5121 0.263236 12.9129 0.705071 12.4711C1.14691 12.0292 1.74616 11.781 2.37101 11.781H7.08302C7.70787 11.781 8.30712 12.0292 8.74896 12.4711C9.19079 12.9129 9.43901 13.5121 9.43901 14.137V18.849C9.43769 19.473 9.18888 20.071 8.74719 20.5117C8.3055 20.9525 7.707 21.2 7.08302 21.2H2.37101C1.74703 21.2 1.14853 20.9525 0.706837 20.5117C0.265144 20.071 0.0163389 19.473 0.0150146 18.849V14.137ZM11.795 14.137C11.795 13.5121 12.0432 12.9129 12.4851 12.4711C12.9269 12.0292 13.5262 11.781 14.151 11.781H18.863C19.4872 11.7821 20.0854 12.0307 20.5264 12.4725C20.9673 12.9142 21.215 13.5128 21.215 14.137V18.849C21.2137 19.4721 20.9656 20.0693 20.525 20.5099C20.0844 20.9506 19.4871 21.1987 18.864 21.2H14.152C13.5272 21.2 12.9279 20.9518 12.4861 20.5099C12.0442 20.0681 11.796 19.4688 11.796 18.844L11.795 14.137ZM23.575 14.137C23.575 13.5121 23.8232 12.9129 24.2651 12.4711C24.7069 12.0292 25.3062 11.781 25.931 11.781H30.643C31.2679 11.781 31.8671 12.0292 32.309 12.4711C32.7508 12.9129 32.999 13.5121 32.999 14.137V18.849C32.9977 19.4728 32.749 20.0706 32.3075 20.5114C31.8661 20.9521 31.2678 21.1997 30.644 21.2H25.932C25.3072 21.2 24.7079 20.9518 24.2661 20.5099C23.8242 20.0681 23.576 19.4688 23.576 18.844L23.575 14.137ZM0.0150146 25.917C0.0150146 25.2922 0.263236 24.6929 0.705071 24.2511C1.14691 23.8092 1.74616 23.561 2.37101 23.561H7.08302C7.70787 23.561 8.30712 23.8092 8.74896 24.2511C9.19079 24.6929 9.43901 25.2922 9.43901 25.917V30.629C9.43901 31.2539 9.19079 31.8531 8.74896 32.2949C8.30712 32.7368 7.70787 32.985 7.08302 32.985H2.37101C1.74616 32.985 1.14691 32.7368 0.705071 32.2949C0.263236 31.8531 0.0150146 31.2539 0.0150146 30.629V25.917ZM11.795 25.917C11.795 25.2922 12.0432 24.6929 12.4851 24.2511C12.9269 23.8092 13.5262 23.561 14.151 23.561H18.863C19.4872 23.5621 20.0854 23.8107 20.5264 24.2525C20.9673 24.6942 21.215 25.2928 21.215 25.917V30.629C21.215 31.2539 20.9668 31.8531 20.525 32.2949C20.0831 32.7368 19.4839 32.985 18.859 32.985H14.152C13.5272 32.985 12.9279 32.7368 12.4861 32.2949C12.0442 31.8531 11.796 31.2539 11.796 30.629L11.795 25.917ZM23.575 25.917C23.575 25.2922 23.8232 24.6929 24.2651 24.2511C24.7069 23.8092 25.3062 23.561 25.931 23.561H30.643C31.2679 23.561 31.8671 23.8092 32.309 24.2511C32.7508 24.6929 32.999 25.2922 32.999 25.917V30.629C32.999 31.2539 32.7508 31.8531 32.309 32.2949C31.8671 32.7368 31.2679 32.985 30.643 32.985H25.932C25.3072 32.985 24.7079 32.7368 24.2661 32.2949C23.8242 31.8531 23.576 31.2539 23.576 30.629L23.575 25.917Z" fill="#6D7580"/>
</svg>
