<svg width="64" height="64" viewBox="0 0 64 64" fill="none" xmlns="http://www.w3.org/2000/svg">
<path d="M9.10244 7.10938H7.11133V9.10049H9.10244V7.10938Z" fill="black"/>
<path d="M11.0936 7.10938H9.10244V9.10049H11.0936V7.10938Z" fill="black"/>
<path d="M13.0847 7.10938H11.0936V9.10049H13.0847V7.10938Z" fill="black"/>
<path d="M15.0758 7.10938H13.0847V9.10049H15.0758V7.10938Z" fill="black"/>
<path d="M17.0669 7.10938H15.0758V9.10049H17.0669V7.10938Z" fill="black"/>
<path d="M19.058 7.10938H17.0669V9.10049H19.058V7.10938Z" fill="black"/>
<path d="M21.0491 7.10938H19.058V9.10049H21.0491V7.10938Z" fill="black"/>
<path d="M25.0313 7.10938H23.0402V9.10049H25.0313V7.10938Z" fill="black"/>
<path d="M27.0224 7.10938H25.0313V9.10049H27.0224V7.10938Z" fill="black"/>
<path d="M34.9869 7.10938H32.9958V9.10049H34.9869V7.10938Z" fill="black"/>
<path d="M40.9602 7.10938H38.9691V9.10049H40.9602V7.10938Z" fill="black"/>
<path d="M44.9424 7.10938H42.9513V9.10049H44.9424V7.10938Z" fill="black"/>
<path d="M46.9336 7.10938H44.9424V9.10049H46.9336V7.10938Z" fill="black"/>
<path d="M48.9247 7.10938H46.9336V9.10049H48.9247V7.10938Z" fill="black"/>
<path d="M50.9158 7.10938H48.9247V9.10049H50.9158V7.10938Z" fill="black"/>
<path d="M52.9069 7.10938H50.9158V9.10049H52.9069V7.10938Z" fill="black"/>
<path d="M54.898 7.10938H52.9069V9.10049H54.898V7.10938Z" fill="black"/>
<path d="M56.8891 7.10938H54.898V9.10049H56.8891V7.10938Z" fill="black"/>
<path d="M9.10244 9.10049H7.11133V11.0916H9.10244V9.10049Z" fill="black"/>
<path d="M21.0491 9.10049H19.058L19.058 11.0916H21.0491V9.10049Z" fill="black"/>
<path d="M32.9958 9.10049H31.0047V11.0916H32.9958V9.10049Z" fill="black"/>
<path d="M34.9869 9.10049H32.9958V11.0916H34.9869V9.10049Z" fill="black"/>
<path d="M40.9602 9.10049H38.9691V11.0916H40.9602V9.10049Z" fill="black"/>
<path d="M44.9424 9.10049H42.9513V11.0916H44.9424V9.10049Z" fill="black"/>
<path d="M56.8891 9.10049H54.898V11.0916H56.8891V9.10049Z" fill="black"/>
<path d="M9.10244 11.0916H7.11133V13.0827H9.10244V11.0916Z" fill="black"/>
<path d="M13.0847 11.0916H11.0936V13.0827H13.0847V11.0916Z" fill="black"/>
<path d="M15.0758 11.0916H13.0847V13.0827H15.0758V11.0916Z" fill="black"/>
<path d="M17.0669 11.0916H15.0758V13.0827H17.0669V11.0916Z" fill="black"/>
<path d="M21.0491 11.0916H19.058V13.0827H21.0491V11.0916Z" fill="black"/>
<path d="M27.0224 11.0916H25.0313V13.0827H27.0224V11.0916Z" fill="black"/>
<path d="M29.0135 11.0916H27.0224V13.0827H29.0135V11.0916Z" fill="black"/>
<path d="M31.0047 11.0916H29.0135V13.0827H31.0047V11.0916Z" fill="black"/>
<path d="M32.9958 11.0916H31.0047V13.0827H32.9958V11.0916Z" fill="black"/>
<path d="M34.9869 11.0916H32.9958V13.0827H34.9869V11.0916Z" fill="black"/>
<path d="M40.9602 11.0916H38.9691V13.0827H40.9602V11.0916Z" fill="black"/>
<path d="M44.9424 11.0916H42.9513V13.0827H44.9424V11.0916Z" fill="black"/>
<path d="M48.9247 11.0916H46.9336V13.0827H48.9247V11.0916Z" fill="black"/>
<path d="M50.9158 11.0916H48.9247V13.0827H50.9158V11.0916Z" fill="black"/>
<path d="M52.9069 11.0916H50.9158V13.0827H52.9069V11.0916Z" fill="black"/>
<path d="M56.8891 11.0916H54.898V13.0827H56.8891V11.0916Z" fill="black"/>
<path d="M9.10244 13.0827H7.11133V15.0738H9.10244V13.0827Z" fill="black"/>
<path d="M13.0847 13.0827H11.0936V15.0738H13.0847V13.0827Z" fill="black"/>
<path d="M15.0758 13.0827H13.0847V15.0738H15.0758V13.0827Z" fill="black"/>
<path d="M17.0669 13.0827H15.0758V15.0738H17.0669V13.0827Z" fill="black"/>
<path d="M21.0491 13.0827H19.058V15.0738H21.0491V13.0827Z" fill="black"/>
<path d="M27.0224 13.0827H25.0313V15.0738H27.0224V13.0827Z" fill="black"/>
<path d="M29.0135 13.0827H27.0224V15.0738H29.0135V13.0827Z" fill="black"/>
<path d="M34.9869 13.0827H32.9958V15.0738H34.9869V13.0827Z" fill="black"/>
<path d="M44.9424 13.0827H42.9513V15.0738H44.9424V13.0827Z" fill="black"/>
<path d="M48.9247 13.0827H46.9336V15.0738H48.9247V13.0827Z" fill="black"/>
<path d="M50.9158 13.0827H48.9247V15.0738H50.9158V13.0827Z" fill="black"/>
<path d="M52.9069 13.0827H50.9158V15.0738H52.9069V13.0827Z" fill="black"/>
<path d="M56.8891 13.0827H54.898V15.0738H56.8891V13.0827Z" fill="black"/>
<path d="M9.10244 15.0738H7.11133V17.0649H9.10244V15.0738Z" fill="black"/>
<path d="M13.0847 15.0738H11.0936V17.0649H13.0847V15.0738Z" fill="black"/>
<path d="M15.0758 15.0738H13.0847V17.0649H15.0758V15.0738Z" fill="black"/>
<path d="M17.0669 15.0738H15.0758V17.0649H17.0669V15.0738Z" fill="black"/>
<path d="M21.0491 15.0738H19.058V17.0649H21.0491V15.0738Z" fill="black"/>
<path d="M25.0313 15.0738H23.0402V17.0649H25.0313V15.0738Z" fill="black"/>
<path d="M29.0135 15.0738H27.0224V17.0649H29.0135V15.0738Z" fill="black"/>
<path d="M31.0047 15.0738H29.0135V17.0649H31.0047V15.0738Z" fill="black"/>
<path d="M32.9958 15.0738H31.0047V17.0649H32.9958V15.0738Z" fill="black"/>
<path d="M36.978 15.0738H34.9869V17.0649H36.978V15.0738Z" fill="black"/>
<path d="M44.9424 15.0738H42.9513V17.0649H44.9424V15.0738Z" fill="black"/>
<path d="M48.9247 15.0738H46.9336V17.0649H48.9247V15.0738Z" fill="black"/>
<path d="M50.9158 15.0738H48.9247V17.0649H50.9158V15.0738Z" fill="black"/>
<path d="M52.9069 15.0738H50.9158V17.0649H52.9069V15.0738Z" fill="black"/>
<path d="M56.8891 15.0738H54.898V17.0649H56.8891V15.0738Z" fill="black"/>
<path d="M9.10244 17.0649H7.11133V19.056H9.10244V17.0649Z" fill="black"/>
<path d="M21.0491 17.0649H19.058V19.056H21.0491V17.0649Z" fill="black"/>
<path d="M36.978 17.0649H34.9869V19.056H36.978V17.0649Z" fill="black"/>
<path d="M44.9424 17.0649H42.9513V19.056H44.9424V17.0649Z" fill="black"/>
<path d="M56.8891 17.0649H54.898V19.056H56.8891V17.0649Z" fill="black"/>
<path d="M9.10244 19.056H7.11133V21.0472H9.10244V19.056Z" fill="black"/>
<path d="M11.0936 19.056L9.10244 19.056V21.0472H11.0936V19.056Z" fill="black"/>
<path d="M13.0847 19.056H11.0936V21.0472H13.0847V19.056Z" fill="black"/>
<path d="M15.0758 19.056H13.0847V21.0472H15.0758V19.056Z" fill="black"/>
<path d="M17.0669 19.056H15.0758V21.0472H17.0669V19.056Z" fill="black"/>
<path d="M19.058 19.056L17.0669 19.056V21.0472H19.058L19.058 19.056Z" fill="black"/>
<path d="M21.0491 19.056H19.058L19.058 21.0472H21.0491V19.056Z" fill="black"/>
<path d="M25.0313 19.056H23.0402V21.0472H25.0313V19.056Z" fill="black"/>
<path d="M29.0135 19.056H27.0224V21.0472H29.0135V19.056Z" fill="black"/>
<path d="M32.9958 19.056H31.0047V21.0472H32.9958V19.056Z" fill="black"/>
<path d="M36.978 19.056H34.9869V21.0472H36.978V19.056Z" fill="black"/>
<path d="M40.9602 19.056H38.9691V21.0472H40.9602V19.056Z" fill="black"/>
<path d="M44.9424 19.056H42.9513V21.0472H44.9424V19.056Z" fill="black"/>
<path d="M46.9336 19.056L44.9424 19.056V21.0472H46.9336V19.056Z" fill="black"/>
<path d="M48.9247 19.056H46.9336V21.0472H48.9247V19.056Z" fill="black"/>
<path d="M50.9158 19.056H48.9247V21.0472H50.9158V19.056Z" fill="black"/>
<path d="M52.9069 19.056H50.9158V21.0472H52.9069V19.056Z" fill="black"/>
<path d="M54.898 19.056L52.9069 19.056V21.0472H54.898V19.056Z" fill="black"/>
<path d="M56.8891 19.056H54.898V21.0472H56.8891V19.056Z" fill="black"/>
<path d="M25.0313 21.0472H23.0402V23.0383H25.0313V21.0472Z" fill="black"/>
<path d="M29.0135 21.0472H27.0224V23.0383H29.0135V21.0472Z" fill="black"/>
<path d="M32.9958 21.0472H31.0047V23.0383H32.9958V21.0472Z" fill="black"/>
<path d="M34.9869 21.0472H32.9958V23.0383H34.9869V21.0472Z" fill="black"/>
<path d="M38.9691 21.0472H36.978L36.978 23.0383H38.9691V21.0472Z" fill="black"/>
<path d="M40.9602 21.0472H38.9691V23.0383H40.9602V21.0472Z" fill="black"/>
<path d="M9.10244 23.0383H7.11133V25.0294H9.10244V23.0383Z" fill="black"/>
<path d="M15.0758 23.0383H13.0847V25.0294H15.0758V23.0383Z" fill="black"/>
<path d="M17.0669 23.0383H15.0758V25.0294H17.0669V23.0383Z" fill="black"/>
<path d="M19.058 23.0383H17.0669V25.0294H19.058V23.0383Z" fill="black"/>
<path d="M21.0491 23.0383H19.058V25.0294H21.0491V23.0383Z" fill="black"/>
<path d="M23.0402 23.0383H21.0491V25.0294H23.0402V23.0383Z" fill="black"/>
<path d="M25.0313 23.0383H23.0402V25.0294H25.0313V23.0383Z" fill="black"/>
<path d="M27.0224 23.0383H25.0313V25.0294H27.0224V23.0383Z" fill="black"/>
<path d="M34.9869 23.0383H32.9958V25.0294H34.9869V23.0383Z" fill="black"/>
<path d="M40.9602 23.0383H38.9691V25.0294H40.9602V23.0383Z" fill="black"/>
<path d="M42.9513 23.0383H40.9602V25.0294H42.9513V23.0383Z" fill="black"/>
<path d="M44.9424 23.0383H42.9513V25.0294H44.9424V23.0383Z" fill="black"/>
<path d="M48.9247 23.0383H46.9336V25.0294H48.9247V23.0383Z" fill="black"/>
<path d="M56.8891 23.0383H54.898V25.0294H56.8891V23.0383Z" fill="black"/>
<path d="M11.0936 25.0294H9.10244V27.0205H11.0936V25.0294Z" fill="black"/>
<path d="M15.0758 25.0294H13.0847V27.0205H15.0758V25.0294Z" fill="black"/>
<path d="M17.0669 25.0294H15.0758V27.0205H17.0669V25.0294Z" fill="black"/>
<path d="M23.0402 25.0294H21.0491V27.0205H23.0402V25.0294Z" fill="black"/>
<path d="M25.0313 25.0294H23.0402V27.0205H25.0313V25.0294Z" fill="black"/>
<path d="M32.9958 25.0294H31.0047V27.0205H32.9958V25.0294Z" fill="black"/>
<path d="M38.9691 25.0294H36.978V27.0205H38.9691V25.0294Z" fill="black"/>
<path d="M42.9513 25.0294H40.9602V27.0205H42.9513V25.0294Z" fill="black"/>
<path d="M44.9424 25.0294H42.9513V27.0205H44.9424V25.0294Z" fill="black"/>
<path d="M48.9247 25.0294H46.9336V27.0205H48.9247V25.0294Z" fill="black"/>
<path d="M50.9158 25.0294H48.9247V27.0205H50.9158V25.0294Z" fill="black"/>
<path d="M52.9069 25.0294H50.9158V27.0205H52.9069V25.0294Z" fill="black"/>
<path d="M54.898 25.0294H52.9069V27.0205H54.898V25.0294Z" fill="black"/>
<path d="M56.8891 25.0294H54.898V27.0205H56.8891V25.0294Z" fill="black"/>
<path d="M9.10244 27.0205H7.11133V29.0116H9.10244V27.0205Z" fill="black"/>
<path d="M11.0936 27.0205H9.10244V29.0116H11.0936V27.0205Z" fill="black"/>
<path d="M15.0758 27.0205H13.0847V29.0116H15.0758V27.0205Z" fill="black"/>
<path d="M17.0669 27.0205H15.0758V29.0116H17.0669V27.0205Z" fill="black"/>
<path d="M19.058 27.0205H17.0669V29.0116H19.058V27.0205Z" fill="black"/>
<path d="M21.0491 27.0205H19.058V29.0116H21.0491V27.0205Z" fill="black"/>
<path d="M23.0402 27.0205H21.0491V29.0116H23.0402V27.0205Z" fill="black"/>
<path d="M27.0224 27.0205H25.0313V29.0116H27.0224V27.0205Z" fill="black"/>
<path d="M31.0047 27.0205H29.0135V29.0116H31.0047V27.0205Z" fill="black"/>
<path d="M32.9958 27.0205H31.0047V29.0116H32.9958V27.0205Z" fill="black"/>
<path d="M36.978 27.0205H34.9869V29.0116H36.978L36.978 27.0205Z" fill="black"/>
<path d="M40.9602 27.0205H38.9691V29.0116H40.9602V27.0205Z" fill="black"/>
<path d="M42.9513 27.0205H40.9602V29.0116H42.9513V27.0205Z" fill="black"/>
<path d="M44.9424 27.0205H42.9513V29.0116H44.9424V27.0205Z" fill="black"/>
<path d="M46.9336 27.0205H44.9424V29.0116H46.9336V27.0205Z" fill="black"/>
<path d="M48.9247 27.0205H46.9336V29.0116H48.9247V27.0205Z" fill="black"/>
<path d="M50.9158 27.0205H48.9247V29.0116H50.9158V27.0205Z" fill="black"/>
<path d="M52.9069 27.0205H50.9158V29.0116H52.9069V27.0205Z" fill="black"/>
<path d="M54.898 27.0205H52.9069V29.0116H54.898V27.0205Z" fill="black"/>
<path d="M9.10244 29.0116H7.11133V31.0027H9.10244V29.0116Z" fill="black"/>
<path d="M17.0669 29.0116H15.0758V31.0027H17.0669V29.0116Z" fill="black"/>
<path d="M19.058 29.0116H17.0669V31.0027H19.058V29.0116Z" fill="black"/>
<path d="M23.0402 29.0116H21.0491V31.0027H23.0402V29.0116Z" fill="black"/>
<path d="M27.0224 29.0116H25.0313V31.0027H27.0224V29.0116Z" fill="black"/>
<path d="M29.0135 29.0116H27.0224V31.0027H29.0135V29.0116Z" fill="black"/>
<path d="M36.978 29.0116H34.9869V31.0027H36.978V29.0116Z" fill="black"/>
<path d="M38.9691 29.0116H36.978V31.0027H38.9691V29.0116Z" fill="black"/>
<path d="M48.9247 29.0116H46.9336V31.0027H48.9247V29.0116Z" fill="black"/>
<path d="M52.9069 29.0116H50.9158V31.0027H52.9069V29.0116Z" fill="black"/>
<path d="M54.898 29.0116H52.9069V31.0027H54.898V29.0116Z" fill="black"/>
<path d="M9.10244 31.0027H7.11133V32.9938H9.10244V31.0027Z" fill="black"/>
<path d="M15.0758 31.0027H13.0847V32.9938H15.0758V31.0027Z" fill="black"/>
<path d="M17.0669 31.0027H15.0758V32.9938H17.0669V31.0027Z" fill="black"/>
<path d="M19.058 31.0027H17.0669V32.9938H19.058V31.0027Z" fill="black"/>
<path d="M21.0491 31.0027H19.058V32.9938H21.0491V31.0027Z" fill="black"/>
<path d="M23.0402 31.0027H21.0491V32.9938H23.0402V31.0027Z" fill="black"/>
<path d="M25.0313 31.0027H23.0402V32.9938H25.0313V31.0027Z" fill="black"/>
<path d="M29.0135 31.0027H27.0224V32.9938H29.0135V31.0027Z" fill="black"/>
<path d="M31.0047 31.0027H29.0135V32.9938H31.0047V31.0027Z" fill="black"/>
<path d="M34.9869 31.0027H32.9958V32.9938H34.9869V31.0027Z" fill="black"/>
<path d="M36.978 31.0027H34.9869V32.9938H36.978V31.0027Z" fill="black"/>
<path d="M40.9602 31.0027H38.9691V32.9938H40.9602V31.0027Z" fill="black"/>
<path d="M46.9336 31.0027H44.9424V32.9938H46.9336V31.0027Z" fill="black"/>
<path d="M50.9158 31.0027H48.9247V32.9938H50.9158V31.0027Z" fill="black"/>
<path d="M52.9069 31.0027H50.9158V32.9938H52.9069V31.0027Z" fill="black"/>
<path d="M56.8891 31.0027H54.898V32.9938H56.8891V31.0027Z" fill="black"/>
<path d="M9.10244 32.9938H7.11133V34.9849H9.10244V32.9938Z" fill="black"/>
<path d="M11.0936 32.9938H9.10244V34.9849H11.0936V32.9938Z" fill="black"/>
<path d="M23.0402 32.9938H21.0491V34.9849H23.0402V32.9938Z" fill="black"/>
<path d="M25.0313 32.9938H23.0402V34.9849H25.0313V32.9938Z" fill="black"/>
<path d="M27.0224 32.9938H25.0313V34.9849H27.0224V32.9938Z" fill="black"/>
<path d="M32.9958 32.9938H31.0047V34.9849H32.9958V32.9938Z" fill="black"/>
<path d="M36.978 32.9938H34.9869V34.9849H36.978V32.9938Z" fill="black"/>
<path d="M38.9691 32.9938H36.978V34.9849H38.9691V32.9938Z" fill="black"/>
<path d="M40.9602 32.9938H38.9691V34.9849H40.9602V32.9938Z" fill="black"/>
<path d="M42.9513 32.9938H40.9602V34.9849H42.9513V32.9938Z" fill="black"/>
<path d="M48.9247 32.9938H46.9336V34.9849H48.9247V32.9938Z" fill="black"/>
<path d="M52.9069 32.9938H50.9158V34.9849H52.9069V32.9938Z" fill="black"/>
<path d="M54.898 32.9938H52.9069V34.9849H54.898V32.9938Z" fill="black"/>
<path d="M56.8891 32.9938H54.898V34.9849H56.8891V32.9938Z" fill="black"/>
<path d="M9.10244 34.9849H7.11133V36.976H9.10244V34.9849Z" fill="black"/>
<path d="M11.0936 34.9849H9.10244V36.976H11.0936V34.9849Z" fill="black"/>
<path d="M13.0847 34.9849H11.0936V36.976H13.0847V34.9849Z" fill="black"/>
<path d="M21.0491 34.9849H19.058V36.976H21.0491V34.9849Z" fill="black"/>
<path d="M27.0224 34.9849H25.0313V36.976H27.0224V34.9849Z" fill="black"/>
<path d="M31.0047 34.9849H29.0135V36.976H31.0047V34.9849Z" fill="black"/>
<path d="M32.9958 34.9849H31.0047V36.976H32.9958V34.9849Z" fill="black"/>
<path d="M36.978 34.9849H34.9869V36.976H36.978V34.9849Z" fill="black"/>
<path d="M42.9513 34.9849H40.9602V36.976H42.9513V34.9849Z" fill="black"/>
<path d="M46.9336 34.9849H44.9424V36.976H46.9336V34.9849Z" fill="black"/>
<path d="M48.9247 34.9849H46.9336V36.976H48.9247V34.9849Z" fill="black"/>
<path d="M52.9069 34.9849H50.9158V36.976H52.9069V34.9849Z" fill="black"/>
<path d="M11.0936 36.976H9.10244V38.9672H11.0936V36.976Z" fill="black"/>
<path d="M23.0402 36.976L21.0491 36.976V38.9672H23.0402V36.976Z" fill="black"/>
<path d="M32.9958 36.976H31.0047V38.9672H32.9958V36.976Z" fill="black"/>
<path d="M36.978 36.976H34.9869V38.9672H36.978V36.976Z" fill="black"/>
<path d="M38.9691 36.976L36.978 36.976V38.9672H38.9691V36.976Z" fill="black"/>
<path d="M44.9424 36.976H42.9513V38.9672H44.9424V36.976Z" fill="black"/>
<path d="M48.9247 36.976H46.9336V38.9672H48.9247V36.976Z" fill="black"/>
<path d="M54.898 36.976L52.9069 36.976V38.9672H54.898V36.976Z" fill="black"/>
<path d="M9.10244 38.9672H7.11133V40.9583H9.10244V38.9672Z" fill="black"/>
<path d="M19.058 38.9672H17.0669V40.9583H19.058V38.9672Z" fill="black"/>
<path d="M21.0491 38.9672H19.058V40.9583H21.0491V38.9672Z" fill="black"/>
<path d="M23.0402 38.9672H21.0491V40.9583H23.0402V38.9672Z" fill="black"/>
<path d="M27.0224 38.9672H25.0313V40.9583H27.0224V38.9672Z" fill="black"/>
<path d="M29.0135 38.9672H27.0224V40.9583H29.0135V38.9672Z" fill="black"/>
<path d="M32.9958 38.9672H31.0047V40.9583H32.9958V38.9672Z" fill="black"/>
<path d="M38.9691 38.9672H36.978L36.978 40.9583H38.9691V38.9672Z" fill="black"/>
<path d="M40.9602 38.9672H38.9691V40.9583H40.9602V38.9672Z" fill="black"/>
<path d="M42.9513 38.9672H40.9602V40.9583H42.9513V38.9672Z" fill="black"/>
<path d="M44.9424 38.9672H42.9513V40.9583H44.9424V38.9672Z" fill="black"/>
<path d="M46.9336 38.9672H44.9424V40.9583H46.9336V38.9672Z" fill="black"/>
<path d="M48.9247 38.9672H46.9336V40.9583H48.9247V38.9672Z" fill="black"/>
<path d="M50.9158 38.9672H48.9247V40.9583H50.9158V38.9672Z" fill="black"/>
<path d="M54.898 38.9672H52.9069V40.9583H54.898V38.9672Z" fill="black"/>
<path d="M25.0313 40.9583H23.0402V42.9494H25.0313V40.9583Z" fill="black"/>
<path d="M29.0135 40.9583H27.0224V42.9494H29.0135V40.9583Z" fill="black"/>
<path d="M32.9958 40.9583H31.0047V42.9494H32.9958V40.9583Z" fill="black"/>
<path d="M38.9691 40.9583H36.978V42.9494H38.9691V40.9583Z" fill="black"/>
<path d="M40.9602 40.9583H38.9691V42.9494H40.9602V40.9583Z" fill="black"/>
<path d="M48.9247 40.9583H46.9336V42.9494H48.9247V40.9583Z" fill="black"/>
<path d="M50.9158 40.9583H48.9247V42.9494H50.9158V40.9583Z" fill="black"/>
<path d="M52.9069 40.9583H50.9158V42.9494H52.9069V40.9583Z" fill="black"/>
<path d="M9.10244 42.9494H7.11133V44.9405H9.10244V42.9494Z" fill="black"/>
<path d="M11.0936 42.9494H9.10244V44.9405H11.0936V42.9494Z" fill="black"/>
<path d="M13.0847 42.9494H11.0936V44.9405H13.0847V42.9494Z" fill="black"/>
<path d="M15.0758 42.9494H13.0847V44.9405H15.0758V42.9494Z" fill="black"/>
<path d="M17.0669 42.9494H15.0758V44.9405H17.0669V42.9494Z" fill="black"/>
<path d="M19.058 42.9494H17.0669V44.9405H19.058V42.9494Z" fill="black"/>
<path d="M21.0491 42.9494H19.058V44.9405H21.0491V42.9494Z" fill="black"/>
<path d="M25.0313 42.9494H23.0402V44.9405H25.0313V42.9494Z" fill="black"/>
<path d="M32.9958 42.9494H31.0047V44.9405H32.9958V42.9494Z" fill="black"/>
<path d="M38.9691 42.9494H36.978V44.9405H38.9691V42.9494Z" fill="black"/>
<path d="M40.9602 42.9494H38.9691V44.9405H40.9602V42.9494Z" fill="black"/>
<path d="M44.9424 42.9494H42.9513V44.9405H44.9424V42.9494Z" fill="black"/>
<path d="M48.9247 42.9494H46.9336V44.9405H48.9247V42.9494Z" fill="black"/>
<path d="M50.9158 42.9494H48.9247V44.9405H50.9158V42.9494Z" fill="black"/>
<path d="M52.9069 42.9494H50.9158V44.9405H52.9069V42.9494Z" fill="black"/>
<path d="M56.8891 42.9494H54.898V44.9405H56.8891V42.9494Z" fill="black"/>
<path d="M9.10244 44.9405H7.11133V46.9316H9.10244V44.9405Z" fill="black"/>
<path d="M21.0491 44.9405H19.058L19.058 46.9316H21.0491V44.9405Z" fill="black"/>
<path d="M25.0313 44.9405H23.0402V46.9316H25.0313V44.9405Z" fill="black"/>
<path d="M29.0135 44.9405H27.0224V46.9316H29.0135V44.9405Z" fill="black"/>
<path d="M36.978 44.9405H34.9869V46.9316H36.978L36.978 44.9405Z" fill="black"/>
<path d="M40.9602 44.9405H38.9691V46.9316H40.9602V44.9405Z" fill="black"/>
<path d="M48.9247 44.9405H46.9336V46.9316H48.9247V44.9405Z" fill="black"/>
<path d="M52.9069 44.9405H50.9158V46.9316H52.9069V44.9405Z" fill="black"/>
<path d="M9.10244 46.9316H7.11133V48.9227H9.10244V46.9316Z" fill="black"/>
<path d="M13.0847 46.9316H11.0936V48.9227H13.0847V46.9316Z" fill="black"/>
<path d="M15.0758 46.9316H13.0847V48.9227H15.0758V46.9316Z" fill="black"/>
<path d="M17.0669 46.9316H15.0758V48.9227H17.0669V46.9316Z" fill="black"/>
<path d="M21.0491 46.9316H19.058V48.9227H21.0491V46.9316Z" fill="black"/>
<path d="M25.0313 46.9316H23.0402V48.9227H25.0313V46.9316Z" fill="black"/>
<path d="M27.0224 46.9316H25.0313V48.9227H27.0224V46.9316Z" fill="black"/>
<path d="M29.0135 46.9316H27.0224V48.9227H29.0135V46.9316Z" fill="black"/>
<path d="M34.9869 46.9316H32.9958V48.9227H34.9869V46.9316Z" fill="black"/>
<path d="M36.978 46.9316H34.9869V48.9227H36.978V46.9316Z" fill="black"/>
<path d="M40.9602 46.9316H38.9691V48.9227H40.9602V46.9316Z" fill="black"/>
<path d="M42.9513 46.9316H40.9602V48.9227H42.9513V46.9316Z" fill="black"/>
<path d="M44.9424 46.9316H42.9513V48.9227H44.9424V46.9316Z" fill="black"/>
<path d="M46.9336 46.9316H44.9424V48.9227H46.9336V46.9316Z" fill="black"/>
<path d="M48.9247 46.9316H46.9336V48.9227H48.9247V46.9316Z" fill="black"/>
<path d="M56.8891 46.9316H54.898V48.9227H56.8891V46.9316Z" fill="black"/>
<path d="M9.10244 48.9227H7.11133V50.9138H9.10244V48.9227Z" fill="black"/>
<path d="M13.0847 48.9227H11.0936V50.9138H13.0847V48.9227Z" fill="black"/>
<path d="M15.0758 48.9227H13.0847V50.9138H15.0758V48.9227Z" fill="black"/>
<path d="M17.0669 48.9227H15.0758V50.9138H17.0669V48.9227Z" fill="black"/>
<path d="M21.0491 48.9227H19.058V50.9138H21.0491V48.9227Z" fill="black"/>
<path d="M25.0313 48.9227H23.0402V50.9138H25.0313V48.9227Z" fill="black"/>
<path d="M32.9958 48.9227H31.0047V50.9138H32.9958V48.9227Z" fill="black"/>
<path d="M40.9602 48.9227H38.9691V50.9138H40.9602V48.9227Z" fill="black"/>
<path d="M42.9513 48.9227H40.9602V50.9138H42.9513V48.9227Z" fill="black"/>
<path d="M50.9158 48.9227H48.9247V50.9138H50.9158V48.9227Z" fill="black"/>
<path d="M9.10244 50.9138H7.11133V52.9049H9.10244V50.9138Z" fill="black"/>
<path d="M13.0847 50.9138H11.0936V52.9049H13.0847V50.9138Z" fill="black"/>
<path d="M15.0758 50.9138H13.0847V52.9049H15.0758V50.9138Z" fill="black"/>
<path d="M17.0669 50.9138H15.0758V52.9049H17.0669V50.9138Z" fill="black"/>
<path d="M21.0491 50.9138H19.058V52.9049H21.0491V50.9138Z" fill="black"/>
<path d="M31.0047 50.9138H29.0135V52.9049H31.0047V50.9138Z" fill="black"/>
<path d="M32.9958 50.9138H31.0047V52.9049H32.9958V50.9138Z" fill="black"/>
<path d="M36.978 50.9138H34.9869V52.9049H36.978V50.9138Z" fill="black"/>
<path d="M38.9691 50.9138H36.978V52.9049H38.9691V50.9138Z" fill="black"/>
<path d="M40.9602 50.9138H38.9691V52.9049H40.9602V50.9138Z" fill="black"/>
<path d="M46.9336 50.9138H44.9424V52.9049H46.9336V50.9138Z" fill="black"/>
<path d="M48.9247 50.9138H46.9336V52.9049H48.9247V50.9138Z" fill="black"/>
<path d="M52.9069 50.9138H50.9158V52.9049H52.9069V50.9138Z" fill="black"/>
<path d="M54.898 50.9138H52.9069V52.9049H54.898V50.9138Z" fill="black"/>
<path d="M56.8891 50.9138H54.898V52.9049H56.8891V50.9138Z" fill="black"/>
<path d="M9.10244 52.9049H7.11133V54.896H9.10244V52.9049Z" fill="black"/>
<path d="M21.0491 52.9049H19.058V54.896H21.0491V52.9049Z" fill="black"/>
<path d="M27.0224 52.9049H25.0313V54.896H27.0224V52.9049Z" fill="black"/>
<path d="M29.0135 52.9049H27.0224V54.896H29.0135V52.9049Z" fill="black"/>
<path d="M31.0047 52.9049H29.0135V54.896H31.0047V52.9049Z" fill="black"/>
<path d="M34.9869 52.9049H32.9958V54.896H34.9869V52.9049Z" fill="black"/>
<path d="M36.978 52.9049H34.9869V54.896H36.978V52.9049Z" fill="black"/>
<path d="M42.9513 52.9049H40.9602V54.896H42.9513V52.9049Z" fill="black"/>
<path d="M44.9424 52.9049H42.9513V54.896H44.9424V52.9049Z" fill="black"/>
<path d="M46.9336 52.9049H44.9424V54.896H46.9336V52.9049Z" fill="black"/>
<path d="M48.9247 52.9049H46.9336V54.896H48.9247V52.9049Z" fill="black"/>
<path d="M52.9069 52.9049H50.9158V54.896H52.9069V52.9049Z" fill="black"/>
<path d="M54.898 52.9049H52.9069V54.896H54.898V52.9049Z" fill="black"/>
<path d="M56.8891 52.9049H54.898V54.896H56.8891V52.9049Z" fill="black"/>
<path d="M9.10244 54.896H7.11133V56.8872H9.10244V54.896Z" fill="black"/>
<path d="M11.0936 54.896H9.10244V56.8872H11.0936V54.896Z" fill="black"/>
<path d="M13.0847 54.896H11.0936V56.8872H13.0847V54.896Z" fill="black"/>
<path d="M15.0758 54.896H13.0847V56.8872H15.0758V54.896Z" fill="black"/>
<path d="M17.0669 54.896H15.0758V56.8872H17.0669V54.896Z" fill="black"/>
<path d="M19.058 54.896H17.0669V56.8872H19.058L19.058 54.896Z" fill="black"/>
<path d="M21.0491 54.896H19.058L19.058 56.8872H21.0491V54.896Z" fill="black"/>
<path d="M25.0313 54.896H23.0402V56.8872H25.0313V54.896Z" fill="black"/>
<path d="M31.0047 54.896H29.0135V56.8872H31.0047V54.896Z" fill="black"/>
<path d="M32.9958 54.896H31.0047V56.8872H32.9958V54.896Z" fill="black"/>
<path d="M40.9602 54.896H38.9691V56.8872H40.9602V54.896Z" fill="black"/>
<path d="M50.9158 54.896H48.9247V56.8872H50.9158V54.896Z" fill="black"/>
<path d="M56.8891 54.896H54.898V56.8872H56.8891V54.896Z" fill="black"/>
<mask id="mask0_1462_11596" style="mask-type:alpha" maskUnits="userSpaceOnUse" x="7" y="7" width="50" height="50">
<path d="M9.10244 7.10938H7.11133V9.10049H9.10244V7.10938Z" fill="black"/>
<path d="M11.0936 7.10938H9.10244V9.10049H11.0936V7.10938Z" fill="black"/>
<path d="M13.0847 7.10938H11.0936V9.10049H13.0847V7.10938Z" fill="black"/>
<path d="M15.0758 7.10938H13.0847V9.10049H15.0758V7.10938Z" fill="black"/>
<path d="M17.0669 7.10938H15.0758V9.10049H17.0669V7.10938Z" fill="black"/>
<path d="M19.058 7.10938H17.0669V9.10049H19.058V7.10938Z" fill="black"/>
<path d="M21.0491 7.10938H19.058V9.10049H21.0491V7.10938Z" fill="black"/>
<path d="M25.0313 7.10938H23.0402V9.10049H25.0313V7.10938Z" fill="black"/>
<path d="M27.0224 7.10938H25.0313V9.10049H27.0224V7.10938Z" fill="black"/>
<path d="M34.9869 7.10938H32.9958V9.10049H34.9869V7.10938Z" fill="black"/>
<path d="M40.9602 7.10938H38.9691V9.10049H40.9602V7.10938Z" fill="black"/>
<path d="M44.9424 7.10938H42.9513V9.10049H44.9424V7.10938Z" fill="black"/>
<path d="M46.9336 7.10938H44.9424V9.10049H46.9336V7.10938Z" fill="black"/>
<path d="M48.9247 7.10938H46.9336V9.10049H48.9247V7.10938Z" fill="black"/>
<path d="M50.9158 7.10938H48.9247V9.10049H50.9158V7.10938Z" fill="black"/>
<path d="M52.9069 7.10938H50.9158V9.10049H52.9069V7.10938Z" fill="black"/>
<path d="M54.898 7.10938H52.9069V9.10049H54.898V7.10938Z" fill="black"/>
<path d="M56.8891 7.10938H54.898V9.10049H56.8891V7.10938Z" fill="black"/>
<path d="M9.10244 9.10049H7.11133V11.0916H9.10244V9.10049Z" fill="black"/>
<path d="M21.0491 9.10049H19.058L19.058 11.0916H21.0491V9.10049Z" fill="black"/>
<path d="M32.9958 9.10049H31.0047V11.0916H32.9958V9.10049Z" fill="black"/>
<path d="M34.9869 9.10049H32.9958V11.0916H34.9869V9.10049Z" fill="black"/>
<path d="M40.9602 9.10049H38.9691V11.0916H40.9602V9.10049Z" fill="black"/>
<path d="M44.9424 9.10049H42.9513V11.0916H44.9424V9.10049Z" fill="black"/>
<path d="M56.8891 9.10049H54.898V11.0916H56.8891V9.10049Z" fill="black"/>
<path d="M9.10244 11.0916H7.11133V13.0827H9.10244V11.0916Z" fill="black"/>
<path d="M13.0847 11.0916H11.0936V13.0827H13.0847V11.0916Z" fill="black"/>
<path d="M15.0758 11.0916H13.0847V13.0827H15.0758V11.0916Z" fill="black"/>
<path d="M17.0669 11.0916H15.0758V13.0827H17.0669V11.0916Z" fill="black"/>
<path d="M21.0491 11.0916H19.058V13.0827H21.0491V11.0916Z" fill="black"/>
<path d="M27.0224 11.0916H25.0313V13.0827H27.0224V11.0916Z" fill="black"/>
<path d="M29.0135 11.0916H27.0224V13.0827H29.0135V11.0916Z" fill="black"/>
<path d="M31.0047 11.0916H29.0135V13.0827H31.0047V11.0916Z" fill="black"/>
<path d="M32.9958 11.0916H31.0047V13.0827H32.9958V11.0916Z" fill="black"/>
<path d="M34.9869 11.0916H32.9958V13.0827H34.9869V11.0916Z" fill="black"/>
<path d="M40.9602 11.0916H38.9691V13.0827H40.9602V11.0916Z" fill="black"/>
<path d="M44.9424 11.0916H42.9513V13.0827H44.9424V11.0916Z" fill="black"/>
<path d="M48.9247 11.0916H46.9336V13.0827H48.9247V11.0916Z" fill="black"/>
<path d="M50.9158 11.0916H48.9247V13.0827H50.9158V11.0916Z" fill="black"/>
<path d="M52.9069 11.0916H50.9158V13.0827H52.9069V11.0916Z" fill="black"/>
<path d="M56.8891 11.0916H54.898V13.0827H56.8891V11.0916Z" fill="black"/>
<path d="M9.10244 13.0827H7.11133V15.0738H9.10244V13.0827Z" fill="black"/>
<path d="M13.0847 13.0827H11.0936V15.0738H13.0847V13.0827Z" fill="black"/>
<path d="M15.0758 13.0827H13.0847V15.0738H15.0758V13.0827Z" fill="black"/>
<path d="M17.0669 13.0827H15.0758V15.0738H17.0669V13.0827Z" fill="black"/>
<path d="M21.0491 13.0827H19.058V15.0738H21.0491V13.0827Z" fill="black"/>
<path d="M27.0224 13.0827H25.0313V15.0738H27.0224V13.0827Z" fill="black"/>
<path d="M29.0135 13.0827H27.0224V15.0738H29.0135V13.0827Z" fill="black"/>
<path d="M34.9869 13.0827H32.9958V15.0738H34.9869V13.0827Z" fill="black"/>
<path d="M44.9424 13.0827H42.9513V15.0738H44.9424V13.0827Z" fill="black"/>
<path d="M48.9247 13.0827H46.9336V15.0738H48.9247V13.0827Z" fill="black"/>
<path d="M50.9158 13.0827H48.9247V15.0738H50.9158V13.0827Z" fill="black"/>
<path d="M52.9069 13.0827H50.9158V15.0738H52.9069V13.0827Z" fill="black"/>
<path d="M56.8891 13.0827H54.898V15.0738H56.8891V13.0827Z" fill="black"/>
<path d="M9.10244 15.0738H7.11133V17.0649H9.10244V15.0738Z" fill="black"/>
<path d="M13.0847 15.0738H11.0936V17.0649H13.0847V15.0738Z" fill="black"/>
<path d="M15.0758 15.0738H13.0847V17.0649H15.0758V15.0738Z" fill="black"/>
<path d="M17.0669 15.0738H15.0758V17.0649H17.0669V15.0738Z" fill="black"/>
<path d="M21.0491 15.0738H19.058V17.0649H21.0491V15.0738Z" fill="black"/>
<path d="M25.0313 15.0738H23.0402V17.0649H25.0313V15.0738Z" fill="black"/>
<path d="M29.0135 15.0738H27.0224V17.0649H29.0135V15.0738Z" fill="black"/>
<path d="M31.0047 15.0738H29.0135V17.0649H31.0047V15.0738Z" fill="black"/>
<path d="M32.9958 15.0738H31.0047V17.0649H32.9958V15.0738Z" fill="black"/>
<path d="M36.978 15.0738H34.9869V17.0649H36.978V15.0738Z" fill="black"/>
<path d="M44.9424 15.0738H42.9513V17.0649H44.9424V15.0738Z" fill="black"/>
<path d="M48.9247 15.0738H46.9336V17.0649H48.9247V15.0738Z" fill="black"/>
<path d="M50.9158 15.0738H48.9247V17.0649H50.9158V15.0738Z" fill="black"/>
<path d="M52.9069 15.0738H50.9158V17.0649H52.9069V15.0738Z" fill="black"/>
<path d="M56.8891 15.0738H54.898V17.0649H56.8891V15.0738Z" fill="black"/>
<path d="M9.10244 17.0649H7.11133V19.056H9.10244V17.0649Z" fill="black"/>
<path d="M21.0491 17.0649H19.058V19.056H21.0491V17.0649Z" fill="black"/>
<path d="M36.978 17.0649H34.9869V19.056H36.978V17.0649Z" fill="black"/>
<path d="M44.9424 17.0649H42.9513V19.056H44.9424V17.0649Z" fill="black"/>
<path d="M56.8891 17.0649H54.898V19.056H56.8891V17.0649Z" fill="black"/>
<path d="M9.10244 19.056H7.11133V21.0472H9.10244V19.056Z" fill="black"/>
<path d="M11.0936 19.056L9.10244 19.056V21.0472H11.0936V19.056Z" fill="black"/>
<path d="M13.0847 19.056H11.0936V21.0472H13.0847V19.056Z" fill="black"/>
<path d="M15.0758 19.056H13.0847V21.0472H15.0758V19.056Z" fill="black"/>
<path d="M17.0669 19.056H15.0758V21.0472H17.0669V19.056Z" fill="black"/>
<path d="M19.058 19.056L17.0669 19.056V21.0472H19.058L19.058 19.056Z" fill="black"/>
<path d="M21.0491 19.056H19.058L19.058 21.0472H21.0491V19.056Z" fill="black"/>
<path d="M25.0313 19.056H23.0402V21.0472H25.0313V19.056Z" fill="black"/>
<path d="M29.0135 19.056H27.0224V21.0472H29.0135V19.056Z" fill="black"/>
<path d="M32.9958 19.056H31.0047V21.0472H32.9958V19.056Z" fill="black"/>
<path d="M36.978 19.056H34.9869V21.0472H36.978V19.056Z" fill="black"/>
<path d="M40.9602 19.056H38.9691V21.0472H40.9602V19.056Z" fill="black"/>
<path d="M44.9424 19.056H42.9513V21.0472H44.9424V19.056Z" fill="black"/>
<path d="M46.9336 19.056L44.9424 19.056V21.0472H46.9336V19.056Z" fill="black"/>
<path d="M48.9247 19.056H46.9336V21.0472H48.9247V19.056Z" fill="black"/>
<path d="M50.9158 19.056H48.9247V21.0472H50.9158V19.056Z" fill="black"/>
<path d="M52.9069 19.056H50.9158V21.0472H52.9069V19.056Z" fill="black"/>
<path d="M54.898 19.056L52.9069 19.056V21.0472H54.898V19.056Z" fill="black"/>
<path d="M56.8891 19.056H54.898V21.0472H56.8891V19.056Z" fill="black"/>
<path d="M25.0313 21.0472H23.0402V23.0383H25.0313V21.0472Z" fill="black"/>
<path d="M29.0135 21.0472H27.0224V23.0383H29.0135V21.0472Z" fill="black"/>
<path d="M32.9958 21.0472H31.0047V23.0383H32.9958V21.0472Z" fill="black"/>
<path d="M34.9869 21.0472H32.9958V23.0383H34.9869V21.0472Z" fill="black"/>
<path d="M38.9691 21.0472H36.978L36.978 23.0383H38.9691V21.0472Z" fill="black"/>
<path d="M40.9602 21.0472H38.9691V23.0383H40.9602V21.0472Z" fill="black"/>
<path d="M9.10244 23.0383H7.11133V25.0294H9.10244V23.0383Z" fill="black"/>
<path d="M15.0758 23.0383H13.0847V25.0294H15.0758V23.0383Z" fill="black"/>
<path d="M17.0669 23.0383H15.0758V25.0294H17.0669V23.0383Z" fill="black"/>
<path d="M19.058 23.0383H17.0669V25.0294H19.058V23.0383Z" fill="black"/>
<path d="M21.0491 23.0383H19.058V25.0294H21.0491V23.0383Z" fill="black"/>
<path d="M23.0402 23.0383H21.0491V25.0294H23.0402V23.0383Z" fill="black"/>
<path d="M25.0313 23.0383H23.0402V25.0294H25.0313V23.0383Z" fill="black"/>
<path d="M27.0224 23.0383H25.0313V25.0294H27.0224V23.0383Z" fill="black"/>
<path d="M34.9869 23.0383H32.9958V25.0294H34.9869V23.0383Z" fill="black"/>
<path d="M40.9602 23.0383H38.9691V25.0294H40.9602V23.0383Z" fill="black"/>
<path d="M42.9513 23.0383H40.9602V25.0294H42.9513V23.0383Z" fill="black"/>
<path d="M44.9424 23.0383H42.9513V25.0294H44.9424V23.0383Z" fill="black"/>
<path d="M48.9247 23.0383H46.9336V25.0294H48.9247V23.0383Z" fill="black"/>
<path d="M56.8891 23.0383H54.898V25.0294H56.8891V23.0383Z" fill="black"/>
<path d="M11.0936 25.0294H9.10244V27.0205H11.0936V25.0294Z" fill="black"/>
<path d="M15.0758 25.0294H13.0847V27.0205H15.0758V25.0294Z" fill="black"/>
<path d="M17.0669 25.0294H15.0758V27.0205H17.0669V25.0294Z" fill="black"/>
<path d="M23.0402 25.0294H21.0491V27.0205H23.0402V25.0294Z" fill="black"/>
<path d="M25.0313 25.0294H23.0402V27.0205H25.0313V25.0294Z" fill="black"/>
<path d="M32.9958 25.0294H31.0047V27.0205H32.9958V25.0294Z" fill="black"/>
<path d="M38.9691 25.0294H36.978V27.0205H38.9691V25.0294Z" fill="black"/>
<path d="M42.9513 25.0294H40.9602V27.0205H42.9513V25.0294Z" fill="black"/>
<path d="M44.9424 25.0294H42.9513V27.0205H44.9424V25.0294Z" fill="black"/>
<path d="M48.9247 25.0294H46.9336V27.0205H48.9247V25.0294Z" fill="black"/>
<path d="M50.9158 25.0294H48.9247V27.0205H50.9158V25.0294Z" fill="black"/>
<path d="M52.9069 25.0294H50.9158V27.0205H52.9069V25.0294Z" fill="black"/>
<path d="M54.898 25.0294H52.9069V27.0205H54.898V25.0294Z" fill="black"/>
<path d="M56.8891 25.0294H54.898V27.0205H56.8891V25.0294Z" fill="black"/>
<path d="M9.10244 27.0205H7.11133V29.0116H9.10244V27.0205Z" fill="black"/>
<path d="M11.0936 27.0205H9.10244V29.0116H11.0936V27.0205Z" fill="black"/>
<path d="M15.0758 27.0205H13.0847V29.0116H15.0758V27.0205Z" fill="black"/>
<path d="M17.0669 27.0205H15.0758V29.0116H17.0669V27.0205Z" fill="black"/>
<path d="M19.058 27.0205H17.0669V29.0116H19.058V27.0205Z" fill="black"/>
<path d="M21.0491 27.0205H19.058V29.0116H21.0491V27.0205Z" fill="black"/>
<path d="M23.0402 27.0205H21.0491V29.0116H23.0402V27.0205Z" fill="black"/>
<path d="M27.0224 27.0205H25.0313V29.0116H27.0224V27.0205Z" fill="black"/>
<path d="M31.0047 27.0205H29.0135V29.0116H31.0047V27.0205Z" fill="black"/>
<path d="M32.9958 27.0205H31.0047V29.0116H32.9958V27.0205Z" fill="black"/>
<path d="M36.978 27.0205H34.9869V29.0116H36.978L36.978 27.0205Z" fill="black"/>
<path d="M40.9602 27.0205H38.9691V29.0116H40.9602V27.0205Z" fill="black"/>
<path d="M42.9513 27.0205H40.9602V29.0116H42.9513V27.0205Z" fill="black"/>
<path d="M44.9424 27.0205H42.9513V29.0116H44.9424V27.0205Z" fill="black"/>
<path d="M46.9336 27.0205H44.9424V29.0116H46.9336V27.0205Z" fill="black"/>
<path d="M48.9247 27.0205H46.9336V29.0116H48.9247V27.0205Z" fill="black"/>
<path d="M50.9158 27.0205H48.9247V29.0116H50.9158V27.0205Z" fill="black"/>
<path d="M52.9069 27.0205H50.9158V29.0116H52.9069V27.0205Z" fill="black"/>
<path d="M54.898 27.0205H52.9069V29.0116H54.898V27.0205Z" fill="black"/>
<path d="M9.10244 29.0116H7.11133V31.0027H9.10244V29.0116Z" fill="black"/>
<path d="M17.0669 29.0116H15.0758V31.0027H17.0669V29.0116Z" fill="black"/>
<path d="M19.058 29.0116H17.0669V31.0027H19.058V29.0116Z" fill="black"/>
<path d="M23.0402 29.0116H21.0491V31.0027H23.0402V29.0116Z" fill="black"/>
<path d="M27.0224 29.0116H25.0313V31.0027H27.0224V29.0116Z" fill="black"/>
<path d="M29.0135 29.0116H27.0224V31.0027H29.0135V29.0116Z" fill="black"/>
<path d="M36.978 29.0116H34.9869V31.0027H36.978V29.0116Z" fill="black"/>
<path d="M38.9691 29.0116H36.978V31.0027H38.9691V29.0116Z" fill="black"/>
<path d="M48.9247 29.0116H46.9336V31.0027H48.9247V29.0116Z" fill="black"/>
<path d="M52.9069 29.0116H50.9158V31.0027H52.9069V29.0116Z" fill="black"/>
<path d="M54.898 29.0116H52.9069V31.0027H54.898V29.0116Z" fill="black"/>
<path d="M9.10244 31.0027H7.11133V32.9938H9.10244V31.0027Z" fill="black"/>
<path d="M15.0758 31.0027H13.0847V32.9938H15.0758V31.0027Z" fill="black"/>
<path d="M17.0669 31.0027H15.0758V32.9938H17.0669V31.0027Z" fill="black"/>
<path d="M19.058 31.0027H17.0669V32.9938H19.058V31.0027Z" fill="black"/>
<path d="M21.0491 31.0027H19.058V32.9938H21.0491V31.0027Z" fill="black"/>
<path d="M23.0402 31.0027H21.0491V32.9938H23.0402V31.0027Z" fill="black"/>
<path d="M25.0313 31.0027H23.0402V32.9938H25.0313V31.0027Z" fill="black"/>
<path d="M29.0135 31.0027H27.0224V32.9938H29.0135V31.0027Z" fill="black"/>
<path d="M31.0047 31.0027H29.0135V32.9938H31.0047V31.0027Z" fill="black"/>
<path d="M34.9869 31.0027H32.9958V32.9938H34.9869V31.0027Z" fill="black"/>
<path d="M36.978 31.0027H34.9869V32.9938H36.978V31.0027Z" fill="black"/>
<path d="M40.9602 31.0027H38.9691V32.9938H40.9602V31.0027Z" fill="black"/>
<path d="M46.9336 31.0027H44.9424V32.9938H46.9336V31.0027Z" fill="black"/>
<path d="M50.9158 31.0027H48.9247V32.9938H50.9158V31.0027Z" fill="black"/>
<path d="M52.9069 31.0027H50.9158V32.9938H52.9069V31.0027Z" fill="black"/>
<path d="M56.8891 31.0027H54.898V32.9938H56.8891V31.0027Z" fill="black"/>
<path d="M9.10244 32.9938H7.11133V34.9849H9.10244V32.9938Z" fill="black"/>
<path d="M11.0936 32.9938H9.10244V34.9849H11.0936V32.9938Z" fill="black"/>
<path d="M23.0402 32.9938H21.0491V34.9849H23.0402V32.9938Z" fill="black"/>
<path d="M25.0313 32.9938H23.0402V34.9849H25.0313V32.9938Z" fill="black"/>
<path d="M27.0224 32.9938H25.0313V34.9849H27.0224V32.9938Z" fill="black"/>
<path d="M32.9958 32.9938H31.0047V34.9849H32.9958V32.9938Z" fill="black"/>
<path d="M36.978 32.9938H34.9869V34.9849H36.978V32.9938Z" fill="black"/>
<path d="M38.9691 32.9938H36.978V34.9849H38.9691V32.9938Z" fill="black"/>
<path d="M40.9602 32.9938H38.9691V34.9849H40.9602V32.9938Z" fill="black"/>
<path d="M42.9513 32.9938H40.9602V34.9849H42.9513V32.9938Z" fill="black"/>
<path d="M48.9247 32.9938H46.9336V34.9849H48.9247V32.9938Z" fill="black"/>
<path d="M52.9069 32.9938H50.9158V34.9849H52.9069V32.9938Z" fill="black"/>
<path d="M54.898 32.9938H52.9069V34.9849H54.898V32.9938Z" fill="black"/>
<path d="M56.8891 32.9938H54.898V34.9849H56.8891V32.9938Z" fill="black"/>
<path d="M9.10244 34.9849H7.11133V36.976H9.10244V34.9849Z" fill="black"/>
<path d="M11.0936 34.9849H9.10244V36.976H11.0936V34.9849Z" fill="black"/>
<path d="M13.0847 34.9849H11.0936V36.976H13.0847V34.9849Z" fill="black"/>
<path d="M21.0491 34.9849H19.058V36.976H21.0491V34.9849Z" fill="black"/>
<path d="M27.0224 34.9849H25.0313V36.976H27.0224V34.9849Z" fill="black"/>
<path d="M31.0047 34.9849H29.0135V36.976H31.0047V34.9849Z" fill="black"/>
<path d="M32.9958 34.9849H31.0047V36.976H32.9958V34.9849Z" fill="black"/>
<path d="M36.978 34.9849H34.9869V36.976H36.978V34.9849Z" fill="black"/>
<path d="M42.9513 34.9849H40.9602V36.976H42.9513V34.9849Z" fill="black"/>
<path d="M46.9336 34.9849H44.9424V36.976H46.9336V34.9849Z" fill="black"/>
<path d="M48.9247 34.9849H46.9336V36.976H48.9247V34.9849Z" fill="black"/>
<path d="M52.9069 34.9849H50.9158V36.976H52.9069V34.9849Z" fill="black"/>
<path d="M11.0936 36.976H9.10244V38.9672H11.0936V36.976Z" fill="black"/>
<path d="M23.0402 36.976L21.0491 36.976V38.9672H23.0402V36.976Z" fill="black"/>
<path d="M32.9958 36.976H31.0047V38.9672H32.9958V36.976Z" fill="black"/>
<path d="M36.978 36.976H34.9869V38.9672H36.978V36.976Z" fill="black"/>
<path d="M38.9691 36.976L36.978 36.976V38.9672H38.9691V36.976Z" fill="black"/>
<path d="M44.9424 36.976H42.9513V38.9672H44.9424V36.976Z" fill="black"/>
<path d="M48.9247 36.976H46.9336V38.9672H48.9247V36.976Z" fill="black"/>
<path d="M54.898 36.976L52.9069 36.976V38.9672H54.898V36.976Z" fill="black"/>
<path d="M9.10244 38.9672H7.11133V40.9583H9.10244V38.9672Z" fill="black"/>
<path d="M19.058 38.9672H17.0669V40.9583H19.058V38.9672Z" fill="black"/>
<path d="M21.0491 38.9672H19.058V40.9583H21.0491V38.9672Z" fill="black"/>
<path d="M23.0402 38.9672H21.0491V40.9583H23.0402V38.9672Z" fill="black"/>
<path d="M27.0224 38.9672H25.0313V40.9583H27.0224V38.9672Z" fill="black"/>
<path d="M29.0135 38.9672H27.0224V40.9583H29.0135V38.9672Z" fill="black"/>
<path d="M32.9958 38.9672H31.0047V40.9583H32.9958V38.9672Z" fill="black"/>
<path d="M38.9691 38.9672H36.978L36.978 40.9583H38.9691V38.9672Z" fill="black"/>
<path d="M40.9602 38.9672H38.9691V40.9583H40.9602V38.9672Z" fill="black"/>
<path d="M42.9513 38.9672H40.9602V40.9583H42.9513V38.9672Z" fill="black"/>
<path d="M44.9424 38.9672H42.9513V40.9583H44.9424V38.9672Z" fill="black"/>
<path d="M46.9336 38.9672H44.9424V40.9583H46.9336V38.9672Z" fill="black"/>
<path d="M48.9247 38.9672H46.9336V40.9583H48.9247V38.9672Z" fill="black"/>
<path d="M50.9158 38.9672H48.9247V40.9583H50.9158V38.9672Z" fill="black"/>
<path d="M54.898 38.9672H52.9069V40.9583H54.898V38.9672Z" fill="black"/>
<path d="M25.0313 40.9583H23.0402V42.9494H25.0313V40.9583Z" fill="black"/>
<path d="M29.0135 40.9583H27.0224V42.9494H29.0135V40.9583Z" fill="black"/>
<path d="M32.9958 40.9583H31.0047V42.9494H32.9958V40.9583Z" fill="black"/>
<path d="M38.9691 40.9583H36.978V42.9494H38.9691V40.9583Z" fill="black"/>
<path d="M40.9602 40.9583H38.9691V42.9494H40.9602V40.9583Z" fill="black"/>
<path d="M48.9247 40.9583H46.9336V42.9494H48.9247V40.9583Z" fill="black"/>
<path d="M50.9158 40.9583H48.9247V42.9494H50.9158V40.9583Z" fill="black"/>
<path d="M52.9069 40.9583H50.9158V42.9494H52.9069V40.9583Z" fill="black"/>
<path d="M9.10244 42.9494H7.11133V44.9405H9.10244V42.9494Z" fill="black"/>
<path d="M11.0936 42.9494H9.10244V44.9405H11.0936V42.9494Z" fill="black"/>
<path d="M13.0847 42.9494H11.0936V44.9405H13.0847V42.9494Z" fill="black"/>
<path d="M15.0758 42.9494H13.0847V44.9405H15.0758V42.9494Z" fill="black"/>
<path d="M17.0669 42.9494H15.0758V44.9405H17.0669V42.9494Z" fill="black"/>
<path d="M19.058 42.9494H17.0669V44.9405H19.058V42.9494Z" fill="black"/>
<path d="M21.0491 42.9494H19.058V44.9405H21.0491V42.9494Z" fill="black"/>
<path d="M25.0313 42.9494H23.0402V44.9405H25.0313V42.9494Z" fill="black"/>
<path d="M32.9958 42.9494H31.0047V44.9405H32.9958V42.9494Z" fill="black"/>
<path d="M38.9691 42.9494H36.978V44.9405H38.9691V42.9494Z" fill="black"/>
<path d="M40.9602 42.9494H38.9691V44.9405H40.9602V42.9494Z" fill="black"/>
<path d="M44.9424 42.9494H42.9513V44.9405H44.9424V42.9494Z" fill="black"/>
<path d="M48.9247 42.9494H46.9336V44.9405H48.9247V42.9494Z" fill="black"/>
<path d="M50.9158 42.9494H48.9247V44.9405H50.9158V42.9494Z" fill="black"/>
<path d="M52.9069 42.9494H50.9158V44.9405H52.9069V42.9494Z" fill="black"/>
<path d="M56.8891 42.9494H54.898V44.9405H56.8891V42.9494Z" fill="black"/>
<path d="M9.10244 44.9405H7.11133V46.9316H9.10244V44.9405Z" fill="black"/>
<path d="M21.0491 44.9405H19.058L19.058 46.9316H21.0491V44.9405Z" fill="black"/>
<path d="M25.0313 44.9405H23.0402V46.9316H25.0313V44.9405Z" fill="black"/>
<path d="M29.0135 44.9405H27.0224V46.9316H29.0135V44.9405Z" fill="black"/>
<path d="M36.978 44.9405H34.9869V46.9316H36.978L36.978 44.9405Z" fill="black"/>
<path d="M40.9602 44.9405H38.9691V46.9316H40.9602V44.9405Z" fill="black"/>
<path d="M48.9247 44.9405H46.9336V46.9316H48.9247V44.9405Z" fill="black"/>
<path d="M52.9069 44.9405H50.9158V46.9316H52.9069V44.9405Z" fill="black"/>
<path d="M9.10244 46.9316H7.11133V48.9227H9.10244V46.9316Z" fill="black"/>
<path d="M13.0847 46.9316H11.0936V48.9227H13.0847V46.9316Z" fill="black"/>
<path d="M15.0758 46.9316H13.0847V48.9227H15.0758V46.9316Z" fill="black"/>
<path d="M17.0669 46.9316H15.0758V48.9227H17.0669V46.9316Z" fill="black"/>
<path d="M21.0491 46.9316H19.058V48.9227H21.0491V46.9316Z" fill="black"/>
<path d="M25.0313 46.9316H23.0402V48.9227H25.0313V46.9316Z" fill="black"/>
<path d="M27.0224 46.9316H25.0313V48.9227H27.0224V46.9316Z" fill="black"/>
<path d="M29.0135 46.9316H27.0224V48.9227H29.0135V46.9316Z" fill="black"/>
<path d="M34.9869 46.9316H32.9958V48.9227H34.9869V46.9316Z" fill="black"/>
<path d="M36.978 46.9316H34.9869V48.9227H36.978V46.9316Z" fill="black"/>
<path d="M40.9602 46.9316H38.9691V48.9227H40.9602V46.9316Z" fill="black"/>
<path d="M42.9513 46.9316H40.9602V48.9227H42.9513V46.9316Z" fill="black"/>
<path d="M44.9424 46.9316H42.9513V48.9227H44.9424V46.9316Z" fill="black"/>
<path d="M46.9336 46.9316H44.9424V48.9227H46.9336V46.9316Z" fill="black"/>
<path d="M48.9247 46.9316H46.9336V48.9227H48.9247V46.9316Z" fill="black"/>
<path d="M56.8891 46.9316H54.898V48.9227H56.8891V46.9316Z" fill="black"/>
<path d="M9.10244 48.9227H7.11133V50.9138H9.10244V48.9227Z" fill="black"/>
<path d="M13.0847 48.9227H11.0936V50.9138H13.0847V48.9227Z" fill="black"/>
<path d="M15.0758 48.9227H13.0847V50.9138H15.0758V48.9227Z" fill="black"/>
<path d="M17.0669 48.9227H15.0758V50.9138H17.0669V48.9227Z" fill="black"/>
<path d="M21.0491 48.9227H19.058V50.9138H21.0491V48.9227Z" fill="black"/>
<path d="M25.0313 48.9227H23.0402V50.9138H25.0313V48.9227Z" fill="black"/>
<path d="M32.9958 48.9227H31.0047V50.9138H32.9958V48.9227Z" fill="black"/>
<path d="M40.9602 48.9227H38.9691V50.9138H40.9602V48.9227Z" fill="black"/>
<path d="M42.9513 48.9227H40.9602V50.9138H42.9513V48.9227Z" fill="black"/>
<path d="M50.9158 48.9227H48.9247V50.9138H50.9158V48.9227Z" fill="black"/>
<path d="M9.10244 50.9138H7.11133V52.9049H9.10244V50.9138Z" fill="black"/>
<path d="M13.0847 50.9138H11.0936V52.9049H13.0847V50.9138Z" fill="black"/>
<path d="M15.0758 50.9138H13.0847V52.9049H15.0758V50.9138Z" fill="black"/>
<path d="M17.0669 50.9138H15.0758V52.9049H17.0669V50.9138Z" fill="black"/>
<path d="M21.0491 50.9138H19.058V52.9049H21.0491V50.9138Z" fill="black"/>
<path d="M31.0047 50.9138H29.0135V52.9049H31.0047V50.9138Z" fill="black"/>
<path d="M32.9958 50.9138H31.0047V52.9049H32.9958V50.9138Z" fill="black"/>
<path d="M36.978 50.9138H34.9869V52.9049H36.978V50.9138Z" fill="black"/>
<path d="M38.9691 50.9138H36.978V52.9049H38.9691V50.9138Z" fill="black"/>
<path d="M40.9602 50.9138H38.9691V52.9049H40.9602V50.9138Z" fill="black"/>
<path d="M46.9336 50.9138H44.9424V52.9049H46.9336V50.9138Z" fill="black"/>
<path d="M48.9247 50.9138H46.9336V52.9049H48.9247V50.9138Z" fill="black"/>
<path d="M52.9069 50.9138H50.9158V52.9049H52.9069V50.9138Z" fill="black"/>
<path d="M54.898 50.9138H52.9069V52.9049H54.898V50.9138Z" fill="black"/>
<path d="M56.8891 50.9138H54.898V52.9049H56.8891V50.9138Z" fill="black"/>
<path d="M9.10244 52.9049H7.11133V54.896H9.10244V52.9049Z" fill="black"/>
<path d="M21.0491 52.9049H19.058V54.896H21.0491V52.9049Z" fill="black"/>
<path d="M27.0224 52.9049H25.0313V54.896H27.0224V52.9049Z" fill="black"/>
<path d="M29.0135 52.9049H27.0224V54.896H29.0135V52.9049Z" fill="black"/>
<path d="M31.0047 52.9049H29.0135V54.896H31.0047V52.9049Z" fill="black"/>
<path d="M34.9869 52.9049H32.9958V54.896H34.9869V52.9049Z" fill="black"/>
<path d="M36.978 52.9049H34.9869V54.896H36.978V52.9049Z" fill="black"/>
<path d="M42.9513 52.9049H40.9602V54.896H42.9513V52.9049Z" fill="black"/>
<path d="M44.9424 52.9049H42.9513V54.896H44.9424V52.9049Z" fill="black"/>
<path d="M46.9336 52.9049H44.9424V54.896H46.9336V52.9049Z" fill="black"/>
<path d="M48.9247 52.9049H46.9336V54.896H48.9247V52.9049Z" fill="black"/>
<path d="M52.9069 52.9049H50.9158V54.896H52.9069V52.9049Z" fill="black"/>
<path d="M54.898 52.9049H52.9069V54.896H54.898V52.9049Z" fill="black"/>
<path d="M56.8891 52.9049H54.898V54.896H56.8891V52.9049Z" fill="black"/>
<path d="M9.10244 54.896H7.11133V56.8872H9.10244V54.896Z" fill="black"/>
<path d="M11.0936 54.896H9.10244V56.8872H11.0936V54.896Z" fill="black"/>
<path d="M13.0847 54.896H11.0936V56.8872H13.0847V54.896Z" fill="black"/>
<path d="M15.0758 54.896H13.0847V56.8872H15.0758V54.896Z" fill="black"/>
<path d="M17.0669 54.896H15.0758V56.8872H17.0669V54.896Z" fill="black"/>
<path d="M19.058 54.896H17.0669V56.8872H19.058L19.058 54.896Z" fill="black"/>
<path d="M21.0491 54.896H19.058L19.058 56.8872H21.0491V54.896Z" fill="black"/>
<path d="M25.0313 54.896H23.0402V56.8872H25.0313V54.896Z" fill="black"/>
<path d="M31.0047 54.896H29.0135V56.8872H31.0047V54.896Z" fill="black"/>
<path d="M32.9958 54.896H31.0047V56.8872H32.9958V54.896Z" fill="black"/>
<path d="M40.9602 54.896H38.9691V56.8872H40.9602V54.896Z" fill="black"/>
<path d="M50.9158 54.896H48.9247V56.8872H50.9158V54.896Z" fill="black"/>
<path d="M56.8891 54.896H54.898V56.8872H56.8891V54.896Z" fill="black"/>
</mask>
<g mask="url(#mask0_1462_11596)">
</g>
</svg>
