<svg width="559" height="267" viewBox="0 0 559 267" fill="none" xmlns="http://www.w3.org/2000/svg">
<path d="M125.958 201.934C195.45 201.934 251.784 193.373 251.784 182.812C251.784 172.251 195.45 163.689 125.958 163.689C56.4667 163.689 0.132568 172.251 0.132568 182.812C0.132568 193.373 56.4667 201.934 125.958 201.934Z" fill="#8B9FD6"/>
<path d="M387.913 230.626C482.328 230.626 558.868 219.64 558.868 206.088C558.868 192.536 482.328 181.55 387.913 181.55C293.497 181.55 216.958 192.536 216.958 206.088C216.958 219.64 293.497 230.626 387.913 230.626Z" fill="#8B9FD6"/>
<path d="M139.619 71.8486C139.619 71.8486 143.459 67.7946 144.851 67.5804C146.236 67.3663 148.263 72.0092 148.263 72.0092L139.619 71.8486Z" fill="#1470EB"/>
<path d="M60.9496 141.661L50.3405 135.473C50.3405 135.473 49.5297 120.259 54.4403 121.62C59.351 122.982 60.9496 141.668 60.9496 141.668V141.661Z" fill="#0C193A"/>
<path d="M53.0559 169.84C53.0559 169.84 55.0064 170.658 60.1542 170.283C62.6936 170.1 64.82 168.279 65.4167 165.778C66.5105 161.158 67.6043 152.194 65.8756 136.804C65.8756 136.804 66.6328 130.539 53.0559 131.434V169.832V169.84Z" fill="#0C193A"/>
<path d="M212.629 165.518C212.591 166.283 212.545 167.025 212.499 167.744C212.101 173.251 211.321 177.32 210.548 180.204C209.585 183.776 206.135 186.384 202.012 186.652C193.659 187.188 190.493 186.017 190.493 186.017V131.044C193.017 130.899 195.227 130.883 197.186 130.975C202.264 131.22 205.523 132.176 207.611 133.331C211.719 135.634 211.298 138.716 211.298 138.716C211.864 143.183 212.254 147.26 212.483 150.993C212.644 153.54 212.728 155.934 212.759 158.16C212.797 160.829 212.744 163.277 212.644 165.51L212.629 165.518Z" fill="#0C193A"/>
<path d="M197.407 158.527C197.407 160.561 197.346 162.55 197.247 164.455C197.163 165.977 197.048 167.453 196.903 168.868C195.878 178.927 193.399 186.017 190.5 186.017C187.601 186.017 185.238 179.248 184.167 169.557C183.999 168.011 183.861 166.39 183.769 164.715C183.654 162.726 183.593 160.653 183.593 158.527C183.593 158.282 183.593 158.037 183.593 157.8C183.616 154.136 183.815 150.648 184.167 147.474C184.358 145.692 184.603 144.009 184.894 142.449C185.291 140.23 185.773 138.257 186.324 136.612C186.89 134.899 187.533 133.53 188.213 132.574C188.925 131.587 189.69 131.044 190.493 131.044C191.296 131.044 191.984 131.533 192.665 132.436C193.392 133.392 194.065 134.807 194.661 136.612C195.212 138.257 195.694 140.238 196.092 142.449C196.459 144.468 196.757 146.694 196.979 149.073C197.231 151.765 197.369 154.656 197.392 157.662C197.392 157.953 197.392 158.236 197.392 158.527H197.407Z" fill="#15244F"/>
<path d="M102.155 162.963L71.6964 160.668L68.9886 116.174L87.2085 112.984L102.155 162.963Z" fill="#0C193A"/>
<path d="M80.7375 190.446C80.7375 190.446 83.6977 191.617 91.515 191.081C95.3777 190.821 98.6056 188.205 99.5082 184.633C101.168 178.024 102.835 165.182 100.204 143.153C100.204 143.153 101.352 134.188 80.7375 135.465V190.439V190.446Z" fill="#0C193A"/>
<path d="M217.845 151.666C217.662 155.697 217.333 158.32 217.333 158.32C217.333 158.32 217.333 158.542 217.333 158.917C217.364 160.676 217.333 165.763 216.362 166.642C216.339 166.673 216.308 166.696 216.277 166.711C216.254 166.726 216.239 166.742 216.216 166.757C216.186 166.788 216.147 166.818 216.109 166.841C216.01 166.902 215.91 166.964 215.78 167.025C215.643 167.101 215.474 167.162 215.275 167.224C215.077 167.293 214.847 167.346 214.579 167.407C214.327 167.468 214.036 167.514 213.707 167.568C213.539 167.598 213.348 167.629 213.149 167.66C213.004 167.675 212.835 167.698 212.667 167.721C212.606 167.721 212.545 167.736 212.476 167.751C212.43 167.751 212.384 167.751 212.338 167.767C212.17 167.782 212.002 167.805 211.81 167.828C211.673 167.843 211.527 167.859 211.382 167.874C211.198 167.897 211 167.92 210.801 167.935C210.686 167.95 210.564 167.958 210.441 167.973C210.273 167.989 210.097 168.004 209.913 168.019C208.246 168.164 206.104 168.325 203.374 168.501C203.022 168.524 202.655 168.547 202.28 168.57C200.673 168.669 198.884 168.776 196.88 168.891C196.535 168.914 196.168 168.937 195.809 168.952C195.465 168.975 195.105 168.998 194.753 169.014C194.256 169.044 193.751 169.075 193.231 169.105C193.109 169.105 192.986 169.121 192.864 169.128C192.535 169.144 192.206 169.159 191.869 169.182C191.418 169.205 190.959 169.235 190.485 169.258C189.911 169.289 189.315 169.327 188.71 169.358C187.272 169.434 185.743 169.511 184.152 169.595C173.107 170.13 158.78 170.658 145.127 171.01C128.176 171.454 112.259 171.614 104.924 171.171C104.434 171.14 103.96 171.109 103.501 171.079C103.134 171.056 102.774 171.025 102.43 171.002C102.078 170.972 101.734 170.949 101.405 170.918C101.244 170.918 101.076 170.895 100.923 170.888C100.862 170.888 100.808 170.888 100.747 170.872C100.411 170.842 100.074 170.811 99.7605 170.788C99.7452 170.788 99.7222 170.788 99.7069 170.788C99.2021 170.742 98.7202 170.689 98.2766 170.65C97.9706 170.62 97.6799 170.582 97.3893 170.551C97.2516 170.536 97.1139 170.52 96.9762 170.497C96.6014 170.452 96.2343 170.398 95.8977 170.36C95.7524 170.337 95.5994 170.314 95.4541 170.291C95.217 170.253 94.9875 170.214 94.7733 170.184C94.5515 170.146 94.345 170.1 94.1385 170.069C93.7407 169.985 93.3736 169.908 93.0294 169.817C92.9299 169.794 92.8381 169.763 92.7463 169.74C92.5934 169.694 92.4404 169.648 92.3027 169.61C92.1574 169.557 92.0044 169.511 91.8744 169.465C91.599 169.365 91.3542 169.266 91.1324 169.144C91.0177 169.09 90.9106 169.036 90.8112 168.975C90.7117 168.914 90.6199 168.861 90.5281 168.799C90.4364 168.738 90.3599 168.685 90.2757 168.616C90.031 168.425 89.8245 168.21 89.6562 167.981C89.5491 167.843 89.4573 167.683 89.3655 167.522C89.1972 167.193 89.0595 166.826 88.9525 166.436C88.9295 166.336 88.9066 166.252 88.8836 166.145C88.853 166.038 88.8301 165.939 88.8071 165.832C88.7077 165.426 88.6082 164.608 88.4706 163.483C88.4553 163.353 88.44 163.208 88.417 163.078C88.3864 162.833 88.3559 162.573 88.3176 162.313C88.3176 162.206 88.2946 162.084 88.2793 161.969C87.7745 157.762 87.002 151.023 85.847 144.881C85.1815 141.324 84.386 137.966 83.4452 135.419C82.3973 132.589 81.1581 130.753 79.7278 130.753C79.6284 130.753 79.5442 130.753 79.4524 130.784C79.4524 130.784 79.4371 130.784 79.4295 130.784C79.3377 130.799 79.2536 130.822 79.1618 130.86C79.0929 130.883 79.0317 130.914 78.9629 130.96C78.9476 130.96 78.9323 130.96 78.917 130.983C78.8941 130.998 78.8711 131.013 78.8405 131.029C78.8252 131.029 78.8176 131.044 78.8023 131.059C78.7487 131.09 78.6952 131.128 78.6416 131.174C78.6111 131.197 78.5728 131.228 78.5422 131.258C78.5269 131.273 78.504 131.289 78.4887 131.312L78.4734 131.327C78.4275 131.365 78.3816 131.411 78.3433 131.457C78.3433 131.457 78.3204 131.48 78.3127 131.495C78.2745 131.534 78.2362 131.579 78.2057 131.618C78.1904 131.641 78.1751 131.656 78.1598 131.679C78.1292 131.717 78.0986 131.755 78.068 131.794C77.9991 131.885 77.9379 131.977 77.8768 132.084C77.8768 132.084 77.8767 132.1 77.8614 132.107C77.8461 132.115 77.8614 132.107 77.8614 132.122C77.762 132.275 77.6702 132.444 77.5784 132.62C77.5784 132.635 77.5784 132.65 77.5631 132.658C77.4867 132.803 77.4254 132.964 77.3566 133.125C77.3413 133.147 77.3337 133.17 77.326 133.201C77.3107 133.232 77.2954 133.262 77.2801 133.3C77.2648 133.331 77.2495 133.369 77.2419 133.4C77.2419 133.415 77.2266 133.423 77.2266 133.438C77.2266 133.453 77.2113 133.461 77.2113 133.476C77.196 133.507 77.1807 133.538 77.173 133.568C77.1577 133.599 77.1501 133.629 77.1348 133.66V133.683C77.1348 133.683 77.1348 133.698 77.1348 133.706C77.1195 133.729 77.1118 133.752 77.1042 133.775C77.0889 133.805 77.0812 133.836 77.0736 133.866C77.0506 133.928 77.0277 133.989 77.0048 134.058C76.9895 134.111 76.9665 134.165 76.9512 134.211C76.9283 134.272 76.9053 134.333 76.8824 134.402C76.8824 134.402 76.8824 134.417 76.8824 134.425V134.448C76.8824 134.448 76.8594 134.501 76.8518 134.532C76.8518 134.547 76.8365 134.563 76.8365 134.578C76.8059 134.67 76.7829 134.761 76.7523 134.861C76.7523 134.891 76.737 134.922 76.7217 134.953C76.7064 134.999 76.6988 135.037 76.6835 135.075C76.6835 135.129 76.6606 135.182 76.6453 135.228C76.6453 135.243 76.6453 135.266 76.63 135.282C76.63 135.32 76.607 135.358 76.5994 135.389C76.5688 135.496 76.5458 135.587 76.5152 135.695C76.5152 135.695 76.5152 135.71 76.5152 135.718C76.5152 135.718 76.5152 135.733 76.5152 135.74C76.5152 135.756 76.4999 135.779 76.4999 135.794C76.4693 135.909 76.4387 136.039 76.4081 136.161C76.3775 136.276 76.3546 136.398 76.324 136.513C76.2934 136.651 76.2628 136.796 76.2322 136.934C76.2322 136.964 76.2169 136.995 76.2093 137.025C76.1863 137.133 76.171 137.232 76.1481 137.339C76.1328 137.423 76.1098 137.5 76.0945 137.592V137.63C76.0716 137.737 76.0486 137.836 76.0333 137.943C76.0104 138.05 75.9875 138.173 75.9645 138.288C75.9492 138.387 75.9263 138.486 75.911 138.594C75.911 138.594 75.911 138.609 75.911 138.624V138.662C75.911 138.662 75.8957 138.731 75.888 138.762V138.792C75.888 138.838 75.8727 138.884 75.8651 138.922C75.8498 138.999 75.8345 139.075 75.8268 139.152C75.7886 139.397 75.7503 139.641 75.7197 139.886C75.7197 139.902 75.7197 139.909 75.7197 139.924C75.7197 139.94 75.7197 139.963 75.7197 139.978C75.6968 140.1 75.6815 140.238 75.6585 140.376C75.6585 140.445 75.6432 140.506 75.6279 140.582C75.605 140.72 75.5897 140.858 75.5744 140.995C75.5591 141.133 75.5361 141.286 75.5209 141.431C75.5056 141.538 75.4903 141.661 75.475 141.768C75.475 141.829 75.4597 141.883 75.452 141.951C75.4291 142.127 75.4138 142.303 75.3908 142.487C75.3908 142.502 75.3908 142.517 75.3908 142.533V142.594C75.3755 142.755 75.3526 142.915 75.3373 143.083C75.3373 143.114 75.3373 143.152 75.3373 143.191C75.322 143.313 75.3067 143.451 75.2914 143.573C75.2914 143.657 75.2761 143.741 75.2684 143.833C75.2531 143.994 75.2379 144.162 75.2226 144.338C75.2226 144.369 75.2226 144.399 75.2226 144.43C75.2073 144.59 75.1919 144.759 75.1766 144.927C75.1766 144.98 75.1766 145.034 75.1613 145.088C75.1613 145.195 75.1461 145.294 75.1384 145.401C75.1384 145.432 75.1384 145.47 75.1384 145.508C75.1384 145.508 75.1384 145.531 75.1384 145.539V145.615C75.1384 145.615 75.1384 145.669 75.1384 145.699C75.1384 145.715 75.1384 145.738 75.1384 145.761V145.845C75.1231 145.952 75.1154 146.051 75.1078 146.158C75.1078 146.235 75.1078 146.296 75.0925 146.365C75.0925 146.403 75.0925 146.441 75.0925 146.472C75.0925 146.548 75.0925 146.625 75.0772 146.717C75.0772 146.74 75.0772 146.763 75.0772 146.778V146.862C75.0772 146.862 75.0772 146.908 75.0772 146.939C75.0543 147.206 75.039 147.474 75.0237 147.742C75.0237 147.834 75.0084 147.918 75.0007 148.009V148.063C75.0007 148.139 75.0007 148.216 74.9854 148.3L74.9395 149.187C74.9395 149.233 74.9395 149.279 74.9395 149.317C74.9395 149.348 74.9395 149.379 74.9395 149.409C74.9395 149.516 74.9242 149.631 74.9242 149.746V149.784C74.9242 149.784 74.9242 149.83 74.9242 149.853V149.937C74.9242 150.044 74.9089 150.143 74.9089 150.251C74.9089 150.274 74.9089 150.296 74.9089 150.319C74.9089 150.373 74.9089 150.419 74.9089 150.465V150.557C74.9089 150.625 74.9089 150.679 74.9089 150.748C74.9089 150.763 74.9089 150.778 74.9089 150.794V150.878C74.9089 150.977 74.9089 151.069 74.8936 151.168C74.8936 151.314 74.8936 151.467 74.8783 151.612C74.8783 151.658 74.8783 151.704 74.8783 151.742C74.8783 151.819 74.8783 151.895 74.8783 151.979C74.8783 152.086 74.8783 152.178 74.8631 152.285V152.415C74.8631 152.415 74.8631 152.492 74.8631 152.522V152.553C74.8631 152.606 74.8631 152.652 74.8631 152.691C74.8631 152.691 74.8631 152.714 74.8631 152.729C74.8631 152.813 74.8631 152.889 74.8631 152.966C74.8631 153.073 74.8631 153.172 74.8631 153.28C74.8631 153.379 74.8631 153.463 74.8631 153.555V153.608C74.8631 153.754 74.863 153.907 74.8477 154.052V154.144C74.8477 154.305 74.8477 154.473 74.8324 154.626V154.725C74.8324 154.886 74.8325 155.046 74.8172 155.199V155.352C74.8172 155.467 74.8172 155.59 74.8172 155.704V155.758C74.8172 155.85 74.8172 155.941 74.8172 156.033V156.209C74.8172 156.301 74.8172 156.385 74.8172 156.469C74.8172 156.714 74.8172 156.959 74.8172 157.204C74.8172 157.295 74.8172 157.387 74.8172 157.479V157.854C74.8172 157.854 74.8172 157.907 74.8172 157.938V158.137C74.8172 159.192 74.8172 160.179 74.8172 161.059C74.8172 161.288 74.8172 161.518 74.8172 161.732V162.435C74.8172 162.497 74.8172 162.542 74.8172 162.604C74.8172 162.749 74.8172 162.902 74.8172 163.04C74.8172 163.499 74.8324 163.896 74.8324 164.225C74.8324 164.302 74.8324 164.371 74.8324 164.439C74.8324 164.562 74.8324 164.669 74.8324 164.768C74.8324 165.09 74.8324 165.258 74.8324 165.258L74.7866 165.235C74.7177 165.197 74.603 165.135 74.4347 165.044C73.6392 164.631 71.7652 163.629 69.5164 162.443C68.5373 161.923 67.4971 161.372 66.4492 160.806C62.4717 158.71 58.3336 156.507 57.1021 155.842C56.9491 155.75 56.8344 155.697 56.7732 155.666C56.7579 155.666 56.735 155.643 56.7197 155.613C56.6891 155.574 56.6585 155.505 56.6279 155.421C56.6126 155.368 56.5973 155.314 56.582 155.261V155.245C56.5284 155.062 56.4749 154.817 56.4366 154.511C56.4137 154.366 56.3907 154.197 56.3678 154.022C56.3449 153.861 56.3219 153.685 56.299 153.494C56.2837 153.371 56.2684 153.234 56.2531 153.096C56.1919 152.53 56.1383 151.887 56.0772 151.168C56.0542 150.863 56.0312 150.541 56.0083 150.212C55.9242 149.264 55.863 148.224 55.7865 147.13C55.7865 147.099 55.7865 147.069 55.7865 147.046C55.7635 146.74 55.7482 146.434 55.7253 146.112C55.71 145.799 55.6871 145.493 55.6641 145.172C55.6029 144.269 55.5494 143.336 55.4882 142.403C55.4729 142.166 55.4576 141.928 55.4423 141.699C55.427 141.431 55.404 141.171 55.3887 140.911C55.3428 140.246 55.297 139.573 55.2587 138.899C55.2587 138.739 55.2358 138.578 55.2281 138.418C55.2128 138.127 55.1899 137.852 55.1669 137.569C55.144 137.263 55.121 136.972 55.1057 136.666C55.0598 136.092 55.0139 135.511 54.9757 134.953C54.9757 134.853 54.9604 134.761 54.9528 134.654C54.9375 134.425 54.9145 134.203 54.8992 133.981C54.8839 133.759 54.861 133.545 54.8457 133.323C54.8457 133.308 54.8457 133.293 54.8457 133.285C54.7998 132.757 54.7539 132.253 54.7156 131.755L54.6927 131.534C54.6621 131.212 54.6315 130.914 54.6009 130.608V130.57C54.5856 130.463 54.5779 130.363 54.5627 130.264V130.218C54.5168 129.797 54.4632 129.392 54.425 129.009C54.4097 128.864 54.3867 128.719 54.3714 128.581C54.3485 128.405 54.3255 128.237 54.3026 128.069C54.2796 127.908 54.2567 127.74 54.2338 127.587C54.2108 127.434 54.1879 127.273 54.1649 127.135C54.0961 126.692 54.0272 126.286 53.9431 125.927C53.9431 125.881 53.9278 125.835 53.9201 125.804C53.9048 125.728 53.8895 125.659 53.8666 125.59C53.7901 125.261 53.7136 124.986 53.6295 124.764C53.6065 124.68 53.5759 124.619 53.5453 124.558C53.5453 124.535 53.53 124.512 53.5147 124.489C53.4918 124.435 53.4689 124.397 53.4459 124.366C53.3924 124.275 53.3388 124.206 53.2853 124.16C52.6045 123.609 52.0767 124.259 51.6713 125.804C51.4495 126.623 51.2736 127.709 51.1206 129.002C51.0747 129.399 51.0288 129.82 50.9906 130.256C50.9906 130.363 50.9753 130.478 50.9676 130.593C50.8376 132.107 50.7381 133.844 50.677 135.756C50.677 135.756 50.677 135.779 50.677 135.794C50.6081 137.645 50.5699 139.641 50.5699 141.768L49.5449 143.106V142.602C49.5449 140.911 49.5832 135.312 49.8203 130.6C49.8203 130.486 49.8203 130.371 49.8356 130.264C49.8585 129.835 49.8815 129.415 49.9044 129.009C49.9809 127.801 50.065 126.707 50.1798 125.812C50.218 125.498 50.2563 125.223 50.2945 124.963C50.3633 124.565 50.4322 124.191 50.5163 123.839C51.3654 120.205 52.964 119.31 52.964 119.31C52.964 119.31 54.9986 115.172 59.6798 111.325C60.5824 110.575 61.5691 109.856 62.6706 109.168C62.6706 109.168 62.6706 109.145 62.6706 109.137C62.6706 109.122 62.6859 109.091 62.7088 109.053C62.7318 109 62.7623 108.931 62.8006 108.831C62.8235 108.778 62.8541 108.717 62.8847 108.648C62.9153 108.587 62.9459 108.518 62.9765 108.441C63.0301 108.327 63.0913 108.196 63.1525 108.059C63.1754 107.998 63.206 107.944 63.2366 107.883C63.2672 107.791 63.3131 107.707 63.3513 107.608C63.3513 107.608 63.3513 107.608 63.3513 107.592C64.8429 104.296 68.6521 96.4477 74.0523 89.227C74.6336 88.4545 75.2378 87.6819 75.8498 86.9247C77.0812 85.4102 78.3892 83.9569 79.7584 82.6107C82.5809 79.8188 85.6864 77.4858 88.9907 76.0708C89.7633 75.7342 90.5664 75.4512 91.3695 75.2217C100.028 72.7817 117.391 72.0168 134.472 72.0245C137.386 72.0245 140.292 72.0474 143.145 72.0933C143.627 72.0933 144.117 72.1086 144.591 72.1163C144.805 72.1163 145.027 72.1163 145.241 72.1163C146.297 72.1392 147.337 72.1622 148.377 72.1851C158.895 72.4222 168.257 72.8735 173.994 73.3018C191.074 74.5869 191.288 79.7117 191.288 79.7117L205.378 98.4976L212.193 104.074L212.422 104.265C212.422 104.265 213.937 104.517 214.457 107.217C214.763 108.77 214.74 111.118 213.921 114.683C213.883 114.836 213.845 114.996 213.814 115.157C213.814 115.157 216.063 124.022 217.44 135.649C218.159 141.661 218.136 147.55 217.953 151.842L217.845 151.666Z" fill="#1470EB"/>
<path d="M203.565 97.6253C198.218 99.4916 189.896 100.563 152.967 99.5987C116.038 98.6426 105.253 95.6519 105.253 95.6519C105.253 95.6519 102.797 87.215 102.797 83.2682C102.797 79.3213 103.86 78.1433 109.949 76.4376C116.038 74.7319 140.055 74.2959 140.055 74.2959C140.055 74.2959 141.012 75.4662 142.404 75.9022C143.788 76.3305 164.708 76.6441 165.565 76.6441C166.421 76.6441 167.699 74.839 167.699 74.839C167.699 74.839 182.752 75.688 188.726 78.7859C190.217 79.5584 193.216 83.2146 196.115 87.1003C196.13 87.1156 196.145 87.1309 196.145 87.1309C199.932 92.1869 203.565 97.6253 203.565 97.6253Z" fill="#D7E2FF"/>
<path d="M203.565 97.6253C198.218 99.4916 189.896 100.563 152.967 99.5987C116.038 98.6426 105.253 95.6519 105.253 95.6519C105.253 95.6519 102.797 87.215 102.797 83.2682C102.797 79.3213 103.86 78.1433 109.949 76.4376C116.038 74.7319 140.055 74.2959 140.055 74.2959C140.055 74.2959 141.012 75.4662 142.404 75.9022C143.788 76.3305 164.708 76.6441 165.565 76.6441C166.421 76.6441 167.699 74.839 167.699 74.839C167.699 74.839 182.752 75.688 188.726 78.7859C190.217 79.5584 193.216 83.2146 196.115 87.1003C195.801 86.7943 193.239 84.3161 190.003 82.4191C190.003 82.4191 164.28 74.2041 109.727 81.5624C109.727 81.5624 106.844 82.1743 107.7 95.1929C107.7 95.1929 113.682 96.2867 123.021 97.044C144.086 98.7497 181.819 100.601 203.565 97.6253Z" fill="#15244F"/>
<path d="M209.324 104.869L207.512 134.807C207.473 135.426 207.366 136.038 207.19 136.612C206.204 140.008 203.068 142.456 199.388 142.456H125.874C121.476 142.456 117.56 140.146 115.364 136.612C114.447 135.136 113.827 133.453 113.598 131.625L110.125 104.027L209.324 104.876V104.869Z" fill="#1470EB"/>
<path d="M207.198 136.613C206.211 140.009 203.075 142.457 199.396 142.457H125.882C121.484 142.457 117.567 140.147 115.372 136.613H207.198Z" fill="#094493"/>
<path d="M123.786 128.642H101.581C101.581 128.642 117.95 114.553 126.203 112.702C134.456 110.851 170.039 108.862 186.408 110.996C202.777 113.13 206.334 115.479 209.324 119.357C212.315 123.235 213.876 128.642 213.876 128.642H123.778H123.786Z" fill="#094493"/>
<path d="M123.786 128.642C123.786 128.642 135.03 116.542 140.866 116.259C146.702 115.976 181.574 116.404 187.548 117.253C193.529 118.11 199.503 128.642 199.503 128.642C199.503 128.642 196.941 132.062 194.241 132.345C191.533 132.628 147.131 133.484 138.021 133.056C128.911 132.628 123.786 128.642 123.786 128.642Z" fill="#003A8C"/>
<path d="M216.369 166.643C216.369 166.643 216.316 166.697 216.285 166.712C216.262 166.727 216.247 166.743 216.224 166.758C216.193 166.788 216.155 166.811 216.117 166.842C216.017 166.903 215.918 166.964 215.788 167.026C215.65 167.094 215.482 167.156 215.283 167.224C215.084 167.293 214.855 167.347 214.587 167.408C214.335 167.462 214.044 167.515 213.715 167.569C213.547 167.599 213.356 167.63 213.157 167.66C213.011 167.676 212.843 167.699 212.675 167.722C212.614 167.722 212.552 167.737 212.484 167.752C212.438 167.752 212.392 167.752 212.346 167.767C212.178 167.783 212.009 167.806 211.818 167.829C211.68 167.844 211.535 167.859 211.39 167.875C211.206 167.898 211.007 167.913 210.808 167.936C210.694 167.951 210.571 167.959 210.449 167.974C210.281 167.989 210.105 168.005 209.921 168.02C208.254 168.165 206.112 168.326 203.381 168.502C203.029 168.525 202.662 168.548 202.287 168.571C200.681 168.67 198.891 168.777 196.887 168.892C196.543 168.915 196.176 168.938 195.816 168.953C195.472 168.976 195.113 168.999 194.761 169.014C194.264 169.045 193.759 169.075 193.239 169.106C193.116 169.106 192.994 169.121 192.872 169.129C192.543 169.144 192.214 169.16 191.877 169.183C191.426 169.205 190.967 169.236 190.493 169.259C189.919 169.29 189.322 169.328 188.718 169.358C187.28 169.435 185.75 169.511 184.159 169.596C173.114 170.131 158.788 170.659 145.134 171.011C128.184 171.454 112.267 171.615 104.931 171.171C104.442 171.141 103.968 171.11 103.509 171.079C103.141 171.057 102.782 171.026 102.438 171.003C102.086 170.98 101.742 170.957 101.413 170.927C101.252 170.927 101.084 170.904 100.931 170.888C100.87 170.888 100.816 170.888 100.755 170.873C100.418 170.85 100.082 170.819 99.7683 170.789C99.753 170.789 99.73 170.789 99.7147 170.789C99.2099 170.743 98.7356 170.697 98.2844 170.651C97.9784 170.621 97.6877 170.582 97.3971 170.552C97.2594 170.536 97.1217 170.521 96.984 170.498C96.6092 170.452 96.2421 170.406 95.9055 170.36C95.7602 170.338 95.6072 170.315 95.4619 170.292C95.2248 170.253 94.9953 170.215 94.7811 170.185C94.5593 170.146 94.3528 170.1 94.1462 170.07C93.7485 169.993 93.3813 169.909 93.0371 169.817C92.9377 169.794 92.8459 169.764 92.7541 169.741C92.6012 169.695 92.4482 169.649 92.3105 169.611C92.1652 169.565 92.0122 169.511 91.8822 169.466C91.6068 169.366 91.362 169.267 91.1402 169.144C91.0255 169.091 90.9184 169.037 90.8189 168.976C90.7195 168.915 90.6277 168.861 90.5359 168.8C90.4441 168.739 90.3676 168.685 90.2835 168.617C90.0387 168.425 89.8322 168.211 89.6639 167.982C89.5568 167.844 89.4651 167.683 89.3733 167.523C89.205 167.194 89.0673 166.827 88.9602 166.437C88.9373 166.337 88.9144 166.253 88.8914 166.146C88.8608 166.039 88.8379 165.939 88.8149 165.832C88.7155 165.427 88.616 164.608 88.4784 163.484C88.4631 163.354 88.4478 163.209 88.4248 163.079L88.9832 162.956L91.0408 162.497C91.3238 162.436 91.6144 162.383 91.9127 162.314C92.0045 162.298 92.0887 162.275 92.1805 162.253C94.7888 161.702 98.0013 161.082 101.413 160.524C101.451 160.524 101.489 160.509 101.528 160.501C106.071 159.759 110.989 159.155 115.372 159.009C117.805 158.925 130.196 158.68 145.134 158.428C157.617 158.214 171.883 157.992 183.593 157.854C186.018 157.824 188.328 157.793 190.5 157.77C193.025 157.74 195.35 157.724 197.407 157.709C201.859 157.671 205.087 157.678 206.494 157.724C208.835 157.801 210.938 157.992 212.759 158.222C214.595 158.451 216.14 158.719 217.348 158.971C217.379 160.73 217.348 165.817 216.377 166.697L216.369 166.643Z" fill="#094493"/>
<path d="M216.293 166.704C216.293 166.704 216.255 166.735 216.232 166.75C216.201 166.781 216.163 166.804 216.125 166.834C216.025 166.895 215.926 166.957 215.796 167.018C215.658 167.087 215.49 167.148 215.291 167.217C215.092 167.285 214.862 167.339 214.595 167.4C214.342 167.454 214.052 167.507 213.723 167.561C213.555 167.591 213.363 167.622 213.164 167.653C213.019 167.668 212.851 167.691 212.683 167.714C212.621 167.714 212.56 167.729 212.491 167.744C212.445 167.744 212.4 167.744 212.354 167.76C212.185 167.775 212.017 167.798 211.826 167.821C211.688 167.836 211.543 167.851 211.398 167.867C211.214 167.89 211.015 167.905 210.816 167.928C210.701 167.943 210.579 167.951 210.457 167.966C210.288 167.981 210.112 167.997 209.929 168.012C208.261 168.157 206.12 168.318 203.389 168.494C203.037 168.517 202.67 168.54 202.295 168.563C200.689 168.662 198.899 168.769 196.895 168.884C196.551 168.907 196.184 168.93 195.824 168.945C195.48 168.968 195.12 168.991 194.769 169.006C194.271 169.037 193.767 169.068 193.246 169.098C193.124 169.098 193.002 169.114 192.879 169.121C192.55 169.136 192.222 169.152 191.885 169.175C191.434 169.198 190.975 169.228 190.5 169.251C189.927 169.282 189.33 169.32 188.726 169.351C187.288 169.427 185.758 169.504 184.167 169.588C173.122 170.123 158.795 170.651 145.142 171.003C128.192 171.446 112.274 171.607 104.939 171.163C104.449 171.133 103.975 171.102 103.516 171.072C103.149 171.049 102.79 171.018 102.445 170.995C102.094 170.972 101.749 170.949 101.42 170.919C101.26 170.919 101.092 170.896 100.939 170.88C100.877 170.88 100.824 170.88 100.763 170.865C100.426 170.842 100.09 170.812 99.7759 170.781C99.7606 170.781 99.7377 170.781 99.7224 170.781C99.2176 170.735 98.7433 170.689 98.292 170.643C97.9861 170.613 97.6954 170.574 97.4048 170.544C97.2671 170.529 97.1294 170.513 96.9917 170.49C96.6169 170.444 96.2498 170.399 95.9132 170.353C97.5271 170.016 99.4394 169.618 101.505 169.221C107.433 168.073 114.6 166.895 119.319 166.781C122.547 166.704 132.758 166.337 145.15 165.916C157.426 165.503 171.852 165.037 183.777 164.738C186.133 164.677 188.389 164.631 190.508 164.585C192.956 164.539 195.228 164.501 197.255 164.478C201.569 164.425 204.842 164.44 206.571 164.547C208.713 164.669 210.763 165.044 212.644 165.541C213.945 165.878 215.168 166.299 216.3 166.735L216.293 166.704Z" fill="#003A8C"/>
<path d="M175.776 119.356H151.391C149.9 119.356 148.691 120.565 148.691 122.057V126.585C148.691 128.076 149.9 129.285 151.391 129.285H175.776C177.267 129.285 178.476 128.076 178.476 126.585V122.057C178.476 120.565 177.267 119.356 175.776 119.356Z" fill="#15244F"/>
<path d="M56.6279 155.491C55.5647 154.902 55.0752 125.545 53.1629 124C51.2431 122.455 50.5011 130.456 50.4476 141.616L49.4226 142.954C49.4226 142.633 49.4226 129.393 50.1722 124.803C50.9142 120.214 52.834 119.151 52.834 119.151C52.834 119.151 55.7483 118.975 56.039 130.853C56.322 142.74 55.9319 151.246 56.6279 155.498V155.491Z" fill="#094493"/>
<path d="M80.7375 190.454C84.3114 190.454 87.2085 178.146 87.2085 162.963C87.2085 147.781 84.3114 135.473 80.7375 135.473C77.1637 135.473 74.2665 147.781 74.2665 162.963C74.2665 178.146 77.1637 190.454 80.7375 190.454Z" fill="#15244F"/>
<path d="M84.3249 162.038C84.3249 164.546 84.2255 166.941 84.0496 169.151C83.4759 176.387 82.0302 181.512 80.3475 181.512C78.1522 181.512 76.37 172.792 76.37 162.038C76.37 151.283 78.1522 142.556 80.3475 142.556C82.0073 142.556 83.43 147.52 84.0266 154.58C84.2178 156.875 84.3249 159.391 84.3249 162.03V162.038Z" fill="#0C193A"/>
<path d="M84.3249 162.038C84.3249 164.547 84.2254 166.941 84.0495 169.152C80.8675 168.555 78.4504 165.518 78.4504 161.87C78.4504 158.221 80.8599 155.2 84.0265 154.596C84.2178 156.89 84.3249 159.407 84.3249 162.046V162.038Z" fill="#15244F"/>
<path d="M53.0559 169.839C55.2822 169.839 57.0869 161.244 57.0869 150.64C57.0869 140.037 55.2822 131.441 53.0559 131.441C50.8296 131.441 49.0249 140.037 49.0249 150.64C49.0249 161.244 50.8296 169.839 53.0559 169.839Z" fill="#15244F"/>
<path d="M55.297 149.99C55.297 151.742 55.2358 153.417 55.1288 154.955C54.7693 160.011 53.8743 163.59 52.8264 163.59C51.4573 163.59 50.3481 157.502 50.3481 149.99C50.3481 142.479 51.4573 136.383 52.8264 136.383C53.859 136.383 54.7463 139.848 55.1211 144.781C55.2435 146.388 55.3047 148.139 55.3047 149.983L55.297 149.99Z" fill="#0C193A"/>
<path d="M55.297 149.99C55.297 151.742 55.2358 153.417 55.1287 154.954C53.1476 154.534 51.6407 152.415 51.6407 149.868C51.6407 147.321 53.14 145.21 55.1134 144.781C55.2358 146.388 55.297 148.139 55.297 149.983V149.99Z" fill="#15244F"/>
<path d="M87.2086 104.021L79.9497 120.045L78.657 131.128C75.4598 133.729 74.7637 147.994 74.649 157.189C74.6107 160.73 74.649 163.522 74.6719 164.6C74.6719 164.914 74.6872 165.082 74.6872 165.082L74.6413 165.059C73.6393 164.524 57.6606 156.064 56.628 155.49C56.5591 155.452 56.5056 155.315 56.4444 155.085C56.3832 154.205 56.3144 153.135 56.2379 151.941C55.8631 145.715 55.4194 136.223 56.0925 133.178C57.1175 128.513 58.7314 111.868 62.8695 110.078C67.0229 108.289 87.2086 104.028 87.2086 104.028V104.021Z" fill="#1470EB"/>
<g style="mix-blend-mode:multiply" opacity="0.55">
<path d="M65.4548 155.307H65.4472C65.2789 155.307 65.1565 155.162 65.1565 154.993L65.9443 134.096C66.1815 127.794 67.6195 121.682 70.2278 115.93L74.4117 106.69C74.4806 106.537 74.6565 106.476 74.8095 106.537C74.9625 106.606 75.0237 106.782 74.9625 106.935L70.7785 116.175C68.2084 121.85 66.7857 127.885 66.5486 134.112L65.7607 155.009C65.7607 155.169 65.6231 155.299 65.4624 155.299L65.4548 155.307Z" fill="#6A194C"/>
</g>
<path d="M67.0305 118.477L62.8389 118.722C62.2729 118.752 61.7833 118.324 61.7451 117.75C61.7145 117.184 62.1428 116.695 62.7165 116.656L66.9081 116.412C67.4742 116.381 67.9637 116.809 68.002 117.383C68.0326 117.949 67.6042 118.439 67.0305 118.477Z" fill="#003A8C"/>
<path d="M78.527 115.922L74.3354 116.167C73.7693 116.198 73.2798 115.769 73.2415 115.196C73.2109 114.63 73.6393 114.14 74.213 114.102L78.4046 113.857C78.9706 113.826 79.4602 114.255 79.4984 114.828C79.529 115.394 79.1007 115.884 78.527 115.922Z" fill="#003A8C"/>
<path d="M98.3073 86.4727C98.3073 86.4727 92.9683 99.7131 88.9755 101.526C88.7614 101.625 88.4936 101.732 88.1647 101.855C87.9047 101.954 87.614 102.061 87.2928 102.168C87.0862 102.237 86.8568 102.321 86.6196 102.398C86.2678 102.513 85.8853 102.635 85.4723 102.765C85.2122 102.842 84.9522 102.926 84.6768 103.01C84.6386 103.025 84.5927 103.033 84.5544 103.048C84.3555 103.109 84.1567 103.17 83.9578 103.224C83.736 103.293 83.5065 103.362 83.2847 103.431C83.0629 103.499 82.8334 103.561 82.6116 103.629C82.0302 103.798 81.4336 103.974 80.8141 104.142C80.6458 104.195 80.4699 104.241 80.3016 104.295C79.5979 104.494 78.8712 104.693 78.1369 104.899C77.0661 105.19 75.9799 105.488 74.9091 105.779C74.8249 105.794 74.7484 105.817 74.6719 105.84C73.3181 106.207 71.9871 106.559 70.7327 106.896C70.7174 106.896 70.6945 106.911 70.6792 106.911C69.6695 107.171 68.7057 107.423 67.8184 107.66C67.5278 107.737 67.2371 107.813 66.9618 107.882C66.5487 107.989 66.151 108.089 65.7838 108.188C65.0495 108.372 64.4146 108.532 63.8945 108.67C63.7262 108.708 63.5733 108.754 63.4356 108.792C63.1526 108.861 62.9384 108.915 62.7854 108.953C62.6936 108.976 62.6324 108.991 62.5942 108.999C62.5789 108.999 62.5712 108.999 62.5636 108.999C62.5636 108.999 62.5636 108.984 62.5636 108.976C62.5789 108.961 62.5789 108.938 62.6019 108.9C62.6248 108.846 62.6554 108.777 62.6936 108.678C62.7166 108.624 62.7472 108.555 62.7701 108.494C62.8313 108.372 62.8925 108.226 62.969 108.066C62.9843 108.012 63.0072 107.959 63.0378 107.905C63.0608 107.852 63.0837 107.79 63.1143 107.729C63.1526 107.637 63.1985 107.546 63.2444 107.439C63.8639 106.085 64.9271 103.92 66.4569 101.228C66.6023 100.975 66.7476 100.715 66.9006 100.455C67.1759 99.9732 67.4666 99.476 67.7726 98.9712C67.9408 98.6805 68.1168 98.3975 68.2927 98.1068C70.0749 95.1926 72.3007 91.8806 74.9855 88.4079C77.372 85.3254 79.8579 83.1837 82.2674 81.7151C88.5472 77.8753 94.238 78.579 95.8902 79.1221C98.1696 79.8717 98.3073 86.488 98.3073 86.488V86.4727Z" fill="#15244F"/>
<path d="M96.4945 87.4672C96.4945 87.4672 93.6261 94.5884 90.513 99.1013C90.0694 99.7514 89.6181 100.348 89.1668 100.861C88.8302 101.243 88.5013 101.58 88.1724 101.855C87.9124 101.954 87.6217 102.061 87.3004 102.169C87.0863 102.237 86.8644 102.314 86.6273 102.398C86.2755 102.513 85.893 102.635 85.48 102.765C85.2199 102.842 84.9599 102.926 84.6845 103.01C84.6462 103.025 84.6003 103.033 84.5621 103.048C84.3632 103.109 84.1644 103.171 83.9655 103.224C83.7437 103.293 83.5142 103.362 83.2924 103.431C83.0706 103.499 82.8411 103.561 82.6193 103.629C82.0379 103.798 81.4413 103.974 80.8217 104.142C80.6535 104.195 80.4776 104.241 80.3093 104.295C79.6056 104.494 78.8789 104.693 78.1446 104.899C77.0737 105.19 75.9876 105.488 74.9167 105.779C74.8326 105.802 74.7561 105.817 74.6796 105.848C73.3334 106.215 71.9948 106.567 70.7404 106.896C70.7251 106.896 70.7021 106.911 70.6868 106.911C69.6772 107.179 68.7134 107.431 67.8261 107.66C67.5355 107.737 67.2448 107.813 66.9695 107.882C66.5564 107.989 66.1587 108.089 65.7915 108.188C65.0572 108.372 64.4223 108.532 63.9022 108.67C63.7339 108.708 63.5809 108.754 63.4433 108.793C63.1602 108.861 62.9461 108.915 62.7931 108.953C62.7013 108.976 62.6401 108.991 62.6019 108.999C62.5866 108.999 62.5789 108.999 62.5713 108.999C62.5713 108.999 62.5713 108.984 62.5713 108.976C62.5866 108.961 62.5866 108.938 62.6095 108.9C62.6325 108.846 62.6631 108.777 62.7013 108.678C62.7243 108.624 62.7549 108.555 62.7778 108.494C62.839 108.372 62.9002 108.227 62.9767 108.066C62.992 108.012 63.0149 107.959 63.0455 107.905C63.0685 107.852 63.0914 107.791 63.122 107.729C63.1603 107.638 63.2061 107.546 63.252 107.439C63.8716 106.085 64.9348 103.92 66.4646 101.228C66.6099 100.975 66.7553 100.715 66.9082 100.455C67.1836 99.9733 67.4743 99.4761 67.7802 98.9712C67.9485 98.6806 68.1244 98.3976 68.3004 98.1069C70.0826 95.1926 72.3084 91.8806 74.9932 88.408C77.3797 85.3255 79.8656 83.1838 82.2751 81.7152C82.9788 81.3709 83.6748 81.0803 84.3556 80.8432C84.9751 80.6137 85.5871 80.4301 86.1684 80.2771C89.9546 79.3057 92.9607 79.7494 94.0774 80.1165C94.2916 80.1854 94.4981 80.3154 94.6741 80.4837C95.0718 80.8508 95.3777 81.4092 95.6149 82.0747C96.4333 84.2776 96.5022 87.4901 96.5022 87.4901L96.4945 87.4672Z" fill="#D7E2FF"/>
<path d="M86.1607 80.2617C84.6156 84.9888 80.0415 99.0323 78.1293 104.891C77.0584 105.182 75.9723 105.48 74.9014 105.771C74.8173 105.794 74.7408 105.809 74.6643 105.84L84.3479 80.8277C84.9675 80.5983 85.5794 80.4147 86.1607 80.2617Z" fill="#15244F"/>
<path d="M95.6072 82.0521L90.513 99.1017C90.0693 99.7518 89.618 100.348 89.1667 100.861L94.674 80.4688C95.0718 80.8359 95.3777 81.3943 95.6148 82.0597L95.6072 82.0521Z" fill="#15244F"/>
<path d="M60.1617 112.419C61.2785 113.184 62.9001 111.707 63.076 111.279C63.2519 110.851 63.3973 101.924 62.7165 100.494C62.0434 99.0712 54.7845 100.349 53.3236 100.991C51.8626 101.634 51.7555 102.307 51.8626 103.485C51.9697 104.663 52.5739 107.898 53.6448 108.571C54.7157 109.244 59.0526 109.604 59.2286 110.063C59.4045 110.522 59.6646 112.074 60.1541 112.411L60.1617 112.419Z" fill="#1470EB"/>
<path d="M61.9822 108.181C62.2729 107.791 62.2652 100.884 61.9822 100.777C61.6992 100.67 55.3812 100.433 53.4001 102.162C52.4516 102.988 53.1935 107.424 54.5092 108.036C55.8248 108.64 61.4468 108.893 61.9822 108.181Z" fill="#D7E2FF"/>
<path d="M130.624 104.196C130.624 104.196 130.418 104.379 130.05 104.701C127.901 106.582 120.321 113.053 117.529 113.413C115.112 113.726 109.085 114.086 104.579 114.132C102.981 114.147 101.581 114.132 100.587 114.055C96.8156 113.772 94.1843 110.919 92.9758 109.359C91.7673 107.798 91.8361 103.875 92.3868 103.66C92.9376 103.454 130.624 104.196 130.624 104.196Z" fill="#ED3232"/>
<path d="M104.572 114.133C102.973 114.148 101.573 114.133 100.579 114.056C96.808 113.773 94.1768 110.92 92.9682 109.36C91.7597 107.799 91.8285 103.875 92.3793 103.661L101.581 108.006L104.572 114.133Z" fill="#BD1E1E"/>
<path d="M130.624 104.196C130.624 104.196 130.418 104.379 130.05 104.701L101.589 108.005L92.3868 103.66C92.9376 103.454 130.624 104.196 130.624 104.196Z" fill="#D32626"/>
<path d="M214.35 107.041C214.648 108.594 214.633 110.942 213.814 114.507C211.65 114.369 209.73 114.201 208.613 114.048C205.882 113.658 198.203 107.286 196.107 105.29C195.755 104.946 195.541 104.754 195.541 104.754C195.541 104.754 203.618 104.066 212.086 103.905L212.323 104.096C212.323 104.096 213.83 104.349 214.35 107.049V107.041Z" fill="#ED3232"/>
<path d="M214.35 107.041L196.107 105.282C195.755 104.938 195.541 104.746 195.541 104.746C195.541 104.746 203.618 104.058 212.086 103.897L212.323 104.089C212.323 104.089 213.83 104.341 214.35 107.041Z" fill="#D32626"/>
<path d="M74.6871 165.082L74.6412 165.059C73.6392 164.524 57.6605 156.064 56.6279 155.491C56.559 155.452 56.5055 155.315 56.4443 155.085C56.3831 154.206 56.3143 153.135 56.2378 151.941C62.2958 153.662 70.0901 155.873 74.6565 157.189C74.6183 160.73 74.6565 163.522 74.6795 164.6C74.6795 164.914 74.6948 165.082 74.6948 165.082H74.6871Z" fill="#094493"/>
<path d="M91.0331 162.451L88.4248 163.032C87.3693 154.443 84.9139 130.708 79.7432 130.708C73.7617 130.708 74.6949 165.082 74.6949 165.082C71.9948 147.719 72.3849 116.794 80.4928 120.32C88.6007 123.839 90.9566 160.562 91.0408 162.451H91.0331Z" fill="#094493"/>
<path d="M88.9756 162.902L88.4631 163.437C88.4478 163.307 88.4325 163.17 88.4172 163.032C87.3617 154.442 84.9063 130.707 79.7356 130.707C74.1748 130.707 74.5879 160.424 74.672 164.6L74.6031 164.524C74.6031 164.524 72.3773 123.097 79.5291 125.659C86.6809 128.214 89.0291 162.81 88.9832 162.91L88.9756 162.902Z" fill="#094493"/>
<path d="M459.408 190.277L442.672 192.862L419.625 171.193L440.966 136.719C440.966 136.719 473.383 138.042 473.589 139.335C473.796 140.627 459.4 190.277 459.4 190.277H459.408Z" fill="#44537A"/>
<path d="M537.886 142.738C537.886 142.738 536.9 124.266 532.41 121.589C527.92 118.904 522.726 134.913 520.99 143.465C519.253 152.016 537.886 142.738 537.886 142.738Z" fill="#44537A"/>
<path d="M515.284 130.493H529.327V191.111H517.808C510.075 191.111 503.604 185.268 502.793 177.58C501.508 165.48 501.615 153.387 503.106 141.294C503.871 135.136 509.073 130.501 515.276 130.501L515.284 130.493Z" fill="#44537A"/>
<path d="M528.891 191.134C535.088 191.134 540.112 177.559 540.112 160.814C540.112 144.068 535.088 130.493 528.891 130.493C522.694 130.493 517.67 144.068 517.67 160.814C517.67 177.559 522.694 191.134 528.891 191.134Z" fill="#15244F"/>
<path d="M538.973 160.813C538.973 174.237 534.949 185.122 529.985 185.122C526.933 185.122 524.241 181.022 522.619 174.75C521.586 170.803 520.982 165.999 520.982 160.813C520.982 155.91 521.518 151.352 522.443 147.535C524.049 140.895 526.826 136.505 529.977 136.505C534.949 136.505 538.965 147.397 538.965 160.813H538.973Z" fill="#15244F"/>
<path d="M527.338 150.946V170.673L522.619 174.742C521.586 170.796 520.982 165.992 520.982 160.806C520.982 155.903 521.518 151.344 522.443 147.527L527.331 150.946H527.338Z" fill="#44537A"/>
<path d="M527.338 170.681C529.729 170.681 531.668 166.263 531.668 160.813C531.668 155.364 529.729 150.946 527.338 150.946C524.947 150.946 523.009 155.364 523.009 160.813C523.009 166.263 524.947 170.681 527.338 170.681Z" fill="#15244F"/>
<path d="M422.846 148.843H441.991V221.416H426.295C415.755 221.416 406.943 214.417 405.827 205.216C404.075 190.729 404.22 176.241 406.255 161.77C407.295 154.396 414.394 148.843 422.846 148.843Z" fill="#44537A"/>
<path d="M442.672 221.462C449.456 221.462 454.956 205.206 454.956 185.152C454.956 165.099 449.456 148.843 442.672 148.843C435.887 148.843 430.388 165.099 430.388 185.152C430.388 205.206 435.887 221.462 442.672 221.462Z" fill="#15244F"/>
<path d="M453.709 185.144C453.709 201.222 449.303 214.249 443.865 214.249C440.522 214.249 437.578 209.346 435.803 201.827C434.671 197.1 434.013 191.348 434.013 185.137C434.013 179.27 434.602 173.808 435.612 169.242C437.371 161.287 440.415 156.032 443.865 156.032C449.303 156.032 453.709 169.074 453.709 185.137V185.144Z" fill="#15244F"/>
<path d="M440.966 173.342V196.962L435.803 201.835C434.671 197.108 434.013 191.356 434.013 185.145C434.013 179.278 434.602 173.816 435.612 169.25L440.966 173.342Z" fill="#44537A"/>
<path d="M440.966 196.963C443.585 196.963 445.709 191.675 445.709 185.153C445.709 178.63 443.585 173.343 440.966 173.343C438.347 173.343 436.224 178.63 436.224 185.153C436.224 191.675 438.347 196.963 440.966 196.963Z" fill="#15244F"/>
<path d="M267.663 142.632H286.809V215.205H271.113C260.573 215.205 251.761 208.207 250.644 199.005C248.893 184.518 249.038 170.03 251.073 155.559C252.113 148.185 259.211 142.632 267.663 142.632Z" fill="#44537A"/>
<path d="M287.489 142.632C280.705 142.632 275.205 158.886 275.205 178.942C275.205 198.997 280.705 215.251 287.489 215.251C294.274 215.251 299.774 198.997 299.774 178.942C299.774 158.886 294.274 142.632 287.489 142.632Z" fill="#15244F"/>
<path d="M537.886 140.75V140.766C537.733 140.054 535.163 122.27 531.423 123.448C527.514 124.68 524.631 132.505 521.885 151.107C520.844 158.144 519.621 163.544 518.489 167.522C518.489 167.537 518.489 167.545 518.489 167.552C517.754 170.176 517.058 172.18 516.492 173.641C515.735 175.599 514.136 177.114 512.132 177.748L457.671 194.813C456.578 195.157 455.492 194.24 455.652 193.1C456.134 189.597 456.562 184.77 456.792 179.546C457.381 166.122 456.685 150.044 452.348 146.9C445.877 142.211 438.603 147.55 433.424 169.051C432.904 171.208 432.392 173.22 431.887 175.117C427.32 192.105 423.396 198.653 423.396 198.653C403.991 200.756 247.248 195.112 245.474 193.008C243.691 190.905 238.88 175.844 238.222 171.484C238.176 171.17 238.13 170.834 238.1 170.489C237.649 165.992 238.184 158.45 239.676 142.739C241.297 125.797 243.072 122.156 248.571 115.853C254.071 109.55 263.127 104.861 263.127 104.861C263.127 104.861 301.296 67.343 324.74 61.8434C348.192 56.3438 430.51 58.6079 451.047 62.6542C471.585 66.7005 496.651 99.6829 496.651 99.6829C496.651 99.6829 510.557 103.079 519.942 107.928C529.319 112.778 534.972 120.702 535.951 123.617C536.418 125.039 536.907 129.162 537.259 133.009C537.626 136.918 537.879 140.536 537.894 140.758L537.886 140.75Z" fill="#1470EB"/>
<path d="M255.364 112.617L270.562 103.079C270.562 103.079 285.118 105.022 341.797 105.664C398.476 106.315 403.815 105.504 403.815 105.504C403.815 105.504 395.57 111.485 386.024 113.589C386.024 113.589 296.752 123.295 255.356 112.617H255.364Z" fill="#1470EB"/>
<path d="M386.031 113.589C385.297 115.976 384.494 118.309 383.652 120.58C375.674 141.837 363.406 157.41 363.406 157.41C328.794 159.843 268.153 156.117 268.153 156.117C258.637 151.865 256.197 128.138 255.578 117.628C255.402 114.561 255.371 112.618 255.371 112.618C287.719 108.258 386.039 113.589 386.039 113.589H386.031Z" fill="#153575"/>
<path d="M431.879 175.125C427.313 192.113 423.389 198.661 423.389 198.661C403.983 200.764 247.24 195.12 245.466 193.016C243.684 190.913 238.873 175.852 238.215 171.492C238.169 171.178 238.123 170.842 238.092 170.497C289.906 169.679 350.854 170.918 416.222 173.144C417.055 173.175 417.897 173.236 418.723 173.358L431.872 175.125H431.879Z" fill="#22408C"/>
<path d="M350.777 133.155L349.89 135.472L344.826 148.789C343.87 151.291 341.484 152.958 338.806 152.989C322.086 153.218 306.061 153.004 291.115 152.101C290.656 152.071 290.197 152.002 289.753 151.88C287.765 151.321 286.12 149.853 285.386 147.856L279.58 132.176L350.777 133.147V133.155Z" fill="#1470EB"/>
<path d="M349.897 135.481L344.834 148.797C343.878 151.299 341.491 152.966 338.814 152.997C322.093 153.226 306.069 153.012 291.123 152.109C290.664 152.079 290.205 152.01 289.761 151.888C289.394 151.398 289.088 150.847 288.866 150.251L283.061 134.57L349.89 135.481H349.897Z" fill="#1470EB"/>
<path d="M338.822 147.863L293.287 147.267C291.673 147.244 290.381 145.936 290.381 144.322V134.669L341.805 135.342V144.919C341.805 146.563 340.466 147.886 338.822 147.863Z" fill="#15244F"/>
<path d="M409.001 126.768C409.001 127.012 408.818 127.823 408.496 128.963C407.326 133.154 404.289 141.752 401.551 142.739C399.715 143.396 385.366 143.848 372.255 144.123C360.583 144.368 349.89 144.475 349.89 144.475C349.89 144.475 350.165 143.748 350.601 142.632C351.381 140.658 352.682 137.461 353.89 134.952C354.846 132.948 355.757 131.38 356.269 131.219C357.806 130.737 380.73 127.708 380.73 127.708L383.094 122.018C383.094 122.018 408.993 125.636 408.993 126.768H409.001Z" fill="#ED3232"/>
<path d="M277.4 142.096C277.4 142.096 269.92 141.989 261.758 141.744C252.587 141.469 246.223 141.163 245.053 140.314C242.644 138.57 243.057 130.493 243.668 126.018C243.821 124.909 243.99 124.014 244.127 123.502C244.403 122.446 254.958 119.83 255.662 119.646C255.693 119.646 255.7 119.646 255.7 119.646L255.83 125.337C255.83 125.337 255.968 125.368 256.213 125.414C256.213 125.414 256.274 125.429 256.389 125.444C256.481 125.46 256.588 125.475 256.695 125.498C256.71 125.498 256.725 125.498 256.741 125.498C256.832 125.521 256.939 125.536 257.054 125.559C257.069 125.559 257.085 125.559 257.092 125.559C257.2 125.582 257.314 125.605 257.437 125.628C257.788 125.697 258.209 125.781 258.668 125.865C258.852 125.896 259.043 125.934 259.249 125.972C260.649 126.248 262.393 126.584 264.16 126.928C264.29 126.959 264.412 126.974 264.543 127.005C265.43 127.181 266.317 127.357 267.166 127.533C267.503 127.601 267.824 127.67 268.138 127.731C268.375 127.777 268.604 127.823 268.834 127.877C269.048 127.923 269.247 127.969 269.446 128.014C269.698 128.06 269.935 128.106 270.157 128.167C270.356 128.206 270.547 128.252 270.723 128.29C270.899 128.32 271.067 128.366 271.235 128.397C271.373 128.428 271.511 128.458 271.633 128.489C272.314 128.649 272.773 128.772 272.933 128.841C273.293 129.001 273.928 130.569 274.601 132.573C275.435 135.074 276.353 138.279 276.896 140.253C277.202 141.37 277.4 142.096 277.4 142.096Z" fill="#ED3232"/>
<path d="M386.031 113.589C385.297 115.976 384.494 118.309 383.652 120.58C339.701 116.412 255.578 117.628 255.578 117.628C255.402 114.561 255.371 112.618 255.371 112.618C287.719 108.258 386.039 113.589 386.039 113.589H386.031Z" fill="#22408C"/>
<path d="M415.885 77.8987C415.885 78.0899 415.855 78.2811 415.809 78.4723C414.141 85.7848 410.125 93.885 407.471 98.7268C405.987 101.435 403.165 103.14 400.082 103.209C336.336 104.739 288.17 102.184 275.083 101.373C275.037 101.373 274.991 101.373 274.945 101.373C273.515 101.282 272.811 99.5759 273.767 98.505C282.739 88.4772 297.907 77.5315 303.59 73.5693C305.028 72.5673 306.719 71.986 308.471 71.8942C366.534 68.827 402.025 72.7432 412.879 74.2424C414.707 74.5025 416 76.1241 415.885 77.9063V77.8987Z" fill="#153575"/>
<path d="M415.885 77.8984C415.885 78.0896 415.855 78.2808 415.809 78.4721C414.141 85.7845 410.125 93.8848 407.471 98.7266C405.987 101.434 403.165 103.14 400.082 103.209C398.27 103.247 396.472 103.293 394.697 103.324C388.242 103.461 381.962 103.553 375.873 103.607C370.848 103.653 365.968 103.675 361.21 103.683C348.521 103.698 336.841 103.561 326.392 103.347C300.623 102.819 282.38 101.832 275.075 101.373C284.047 91.3606 299.185 80.4302 304.86 76.4757C306.298 75.4737 307.981 74.8923 309.74 74.7929C331.586 73.6456 350.234 73.4773 365.578 73.8062C375.116 74.0051 383.385 74.3952 390.338 74.8464C392.586 74.9994 394.697 75.1524 396.671 75.313C401.444 75.6955 405.414 76.0932 408.573 76.4527C410.86 76.7128 412.718 76.9499 414.149 77.1488C414.807 77.2406 415.403 77.5083 415.878 77.8984H415.885Z" fill="#D7E2FF"/>
<path style="mix-blend-mode:screen" opacity="0.7" d="M390.345 74.8459L361.218 103.683C348.528 103.698 336.848 103.56 326.4 103.346L365.585 73.8057C375.124 74.0045 383.392 74.3946 390.345 74.8459Z" fill="url(#paint0_linear_1818_29861)"/>
<path style="mix-blend-mode:screen" opacity="0.7" d="M408.58 76.453L394.697 103.324C388.242 103.462 381.962 103.553 375.873 103.607L396.679 75.3057C401.451 75.6881 405.421 76.0859 408.58 76.4454V76.453Z" fill="url(#paint1_linear_1818_29861)"/>
<path d="M409.001 126.768C409.001 126.768 480.802 116.335 523.009 117.628C523.009 117.628 454.581 122.148 407.127 133.247L409.001 126.768Z" fill="#22408C"/>
<path d="M500.208 105.504C500.208 105.504 468.311 104.287 435.321 107.569C435.321 107.569 426.586 95.5598 425.982 94.1065C425.378 92.6532 427.076 72.2763 442.481 69.0026C457.886 65.7288 473.528 72.154 500.215 105.511L500.208 105.504Z" fill="#153575"/>
<path d="M497.301 104.127C497.301 104.127 495.343 104.051 491.901 103.99C489.277 103.951 485.789 103.913 481.666 103.928C479.249 103.928 476.618 103.959 473.811 104.013C471.233 104.058 468.495 104.127 465.642 104.219C465.642 104.219 465.619 104.219 465.611 104.219C464.762 104.25 463.898 104.28 463.026 104.311C462.399 104.334 461.771 104.357 461.144 104.387C459.125 104.479 457.06 104.571 454.956 104.686C451.881 104.862 448.738 105.068 445.548 105.321C444.967 105.351 444.393 105.405 443.812 105.458C441.723 105.619 439.612 105.81 437.493 106.024C437.493 106.024 429.439 94.9562 428.881 93.6176C428.667 93.1204 428.758 90.1909 429.684 86.5729C429.913 85.655 430.212 84.6913 430.556 83.7045C430.923 82.6872 431.359 81.6393 431.879 80.6144C433.593 77.1723 436.178 73.868 440.025 71.9098C441.249 71.2826 442.595 70.7931 444.087 70.4718C444.821 70.3188 445.556 70.1888 446.29 70.0741C446.841 69.9976 447.384 69.9287 447.934 69.8828C449.273 69.7605 450.619 69.7299 451.981 69.8064C454.168 69.9287 456.394 70.3112 458.712 71.0149C461.741 71.9328 464.907 73.4014 468.281 75.5431C474.606 79.5359 481.666 85.8769 489.958 95.331C492.306 98.0081 494.738 100.922 497.293 104.112L497.301 104.127Z" fill="#D7E2FF"/>
<path style="mix-blend-mode:screen" opacity="0.7" d="M491.893 103.989C489.269 103.951 485.782 103.912 481.659 103.928L458.727 71.0293C461.756 71.9472 464.923 73.4158 468.296 75.5575L491.901 103.989H491.893Z" fill="url(#paint2_linear_1818_29861)"/>
<path style="mix-blend-mode:screen" opacity="0.7" d="M461.136 104.395C459.117 104.486 457.052 104.578 454.948 104.693L431.879 80.6215C433.593 77.1795 436.178 73.8751 440.025 71.917L461.136 104.395Z" fill="url(#paint3_linear_1818_29861)"/>
<path d="M473.796 104.012C471.218 104.058 468.48 104.127 465.627 104.219C461.649 96.4626 453.006 79.7036 449.082 72.1159L448.539 71.0679L448.172 70.3566L447.957 69.9359L447.934 69.9053C449.273 69.7829 450.619 69.7523 451.981 69.8288C456.096 75.6803 468.923 96.1948 473.796 104.02V104.012Z" fill="#153575"/>
<path d="M465.603 104.219C464.754 104.25 463.89 104.28 463.018 104.311L446.29 70.0818C446.841 70.0054 447.384 69.9365 447.934 69.8906L447.957 69.9212L448.171 70.3419L448.539 71.0533L449.082 72.1012L465.596 104.212L465.603 104.219Z" fill="#153575"/>
<path d="M497.301 104.127C497.301 104.127 495.343 104.05 491.901 103.989C491.939 101.136 491.098 98.0993 489.965 95.3457C492.314 98.0228 494.746 100.937 497.301 104.127Z" fill="#153575"/>
<path d="M445.54 105.32C444.959 105.351 444.385 105.404 443.804 105.458L429.684 86.5725C429.913 85.6546 430.212 84.6908 430.556 83.7041L445.54 105.32Z" fill="#153575"/>
<path d="M493.736 111.975C493.736 111.975 489.629 107.156 490.585 104.938C490.83 104.372 495.649 102.085 495.649 102.085C495.649 102.085 496.567 92.401 498.02 92.0033C499.473 91.5979 508.124 92.0874 510.557 94.428C512.981 96.7762 515.735 105.091 513.708 106.024C511.689 106.957 504.973 107.11 497.775 106.024C497.775 106.024 495.595 112.38 493.729 111.975H493.736Z" fill="#153575"/>
<path d="M497.783 103.844C497.783 103.844 498.265 94.3055 498.915 93.8542C499.565 93.4105 507.084 95.0245 508.094 95.797C509.103 96.5619 512.867 103.806 511.612 104.655C510.358 105.504 503.443 105.343 497.783 103.844Z" fill="#D7E2FF"/>
<path d="M518.481 167.56C517.747 170.183 517.051 172.187 516.484 173.648C515.727 175.606 514.129 177.121 512.125 177.756L457.664 194.821C456.57 195.165 455.484 194.247 455.645 193.107C456.126 189.604 456.555 184.777 456.784 179.553L518.481 167.56Z" fill="#22408C"/>
<path d="M537.886 140.75V140.766C537.733 140.054 535.163 122.27 531.423 123.448C527.514 124.68 524.631 132.505 521.885 151.107C520.844 158.144 519.621 163.544 518.489 167.522L511.168 168.975C511.168 168.975 512.821 158.985 515.123 147.527C517.441 136.039 520.829 119.41 529.388 120.136C534.314 120.557 536.395 127.326 537.259 133.01C537.886 137.056 537.894 140.551 537.894 140.758L537.886 140.75Z" fill="#1470EB"/>
<path d="M512.392 161.915L460.096 170.245L465.068 166.076L513.356 156.63L512.392 161.915Z" fill="#153575"/>
<path d="M487.395 173.029L484.076 126.47C483.77 122.148 481.659 118.163 478.278 115.532L465.06 105.236L465.473 104.686L478.691 114.981C482.225 117.735 484.428 121.903 484.757 126.416L488.076 172.976L487.395 173.029Z" fill="#153575"/>
<path d="M453.373 148.568L450.153 126.837C449.678 123.662 448.164 120.679 445.877 118.431L435.076 107.806L435.551 107.324L446.351 117.949C448.745 120.297 450.328 123.425 450.826 126.745L454.046 148.476L453.373 148.575V148.568Z" fill="#153575"/>
<path d="M456.784 179.546C457.373 166.122 456.677 150.044 452.34 146.901C445.869 142.212 438.595 147.551 433.417 169.052C432.897 171.209 432.384 173.221 431.879 175.118L418.731 173.351C427.06 146.725 435.467 133.997 449.051 139.825C462.636 145.646 456.784 179.546 456.784 179.546Z" fill="#1470EB"/>
<path d="M470.453 121.842L461.029 123.158C459.851 123.318 458.758 122.5 458.597 121.322C458.436 120.144 459.255 119.05 460.433 118.889L469.856 117.574C471.034 117.413 472.128 118.232 472.289 119.41C472.449 120.588 471.631 121.681 470.453 121.842Z" fill="#153575"/>
<path d="M494.142 118.462L488.221 119.288C487.472 119.395 486.776 118.867 486.676 118.117C486.569 117.368 487.097 116.672 487.847 116.572L493.767 115.746C494.517 115.639 495.213 116.167 495.312 116.917C495.419 117.666 494.891 118.362 494.142 118.462Z" fill="#153575"/>
<path d="M265.009 263.094L266.401 265.075C270.639 264.647 273.278 264.272 273.278 264.272L272.459 260.907C272.865 256.363 271.136 254.527 271.136 254.527L271.801 246.672H261.949L261.697 250.397L260.374 252.539L253.689 259.736C253.689 259.736 247.462 261.985 244.709 263.308C241.955 264.632 242.972 266.215 242.972 266.215C250.736 266.299 258.194 265.825 263.77 265.328L265.017 263.102L265.009 263.094Z" fill="#805134"/>
<path d="M318.659 258.153L320.61 259.583C324.488 257.832 326.867 256.631 326.867 256.631L325.023 253.701C323.968 249.265 321.734 248.079 321.734 248.079L319.86 240.415L310.521 243.551L311.462 247.161L311.278 249.418L306.536 257.732C306.536 257.732 303.537 259.262 300.011 261.236C297.342 262.727 298.168 264.471 298.168 264.471C308.065 264.984 313.496 263.913 318.185 260.662L318.652 258.153H318.659Z" fill="#805134"/>
<path d="M317.955 101.334C317.955 101.334 313.427 177.364 313.427 176.554L322.682 241.463L309.335 246.159L292.813 182.887L288.27 133.268L279.749 185.947L274.44 248.408H258.523L260.359 185.947L265.254 108.791L281.791 87.1523L317.955 101.341V101.334Z" fill="#0C193A"/>
<path d="M260.749 179.812L260.359 185.939L259.41 218.256L278.081 205.574L279.749 185.946L288.27 133.268L286.794 120.219C286.794 120.219 273.676 168.499 260.749 179.82V179.812Z" fill="#061128"/>
<path d="M281.799 87.1455L265.262 108.784L264.902 114.391C271.801 116.846 293.157 119.654 316.976 117.764C317.665 106.26 317.955 101.334 317.955 101.334L281.791 87.1455H281.799Z" fill="#061128"/>
<path d="M276.215 118.987L293.157 120.823" stroke="#101F18" stroke-width="0.443641" stroke-miterlimit="10"/>
<path d="M282.717 95.5127L286.289 120.081" stroke="#101F18" stroke-width="0.443641" stroke-miterlimit="10"/>
<path d="M278.188 96.7363L280.169 111.285C280.33 112.478 281.133 113.48 282.258 113.908L285.577 115.17" stroke="#101F18" stroke-width="0.443641" stroke-miterlimit="10"/>
<path d="M260.909 248.4L263.632 181.433L270.708 106.19" stroke="#101F18" stroke-width="0.443641" stroke-miterlimit="10"/>
<path d="M295.582 106.642L297.793 180.294L314.383 244.377" stroke="#101F18" stroke-width="0.443641" stroke-miterlimit="10"/>
<path d="M233.863 88.4377L242.261 85.8906L245.122 93.5243L236.104 94.8476L233.863 88.4377Z" fill="#7D4730"/>
<path d="M244.135 84.4902L241.16 85.6835L245.221 96.7363L251.493 94.847L244.135 84.4902Z" fill="white"/>
<path d="M264.305 37.1053C264.305 37.1053 262.095 45.0679 263.319 50.644C261.888 54.8892 262.126 58.4613 262.126 58.4613L259.747 77.4996L244.135 84.4831L248.526 97.8153C248.526 97.8153 273.836 89.432 274.242 89.409C274.647 89.3861 264.305 37.0977 264.305 37.0977V37.1053Z" fill="#0C193A"/>
<path d="M274.241 89.4163C274.486 89.401 270.907 70.8139 267.977 55.8066L265.736 86.3261L257.551 94.8394C264.864 92.43 273.997 89.4316 274.234 89.4163H274.241Z" fill="#061128"/>
<path d="M262.967 79.2891L271.587 82.9147" stroke="#101F18" stroke-width="0.443641" stroke-miterlimit="10"/>
<path d="M262.133 81.1025L268.673 89.7076" stroke="#101F18" stroke-width="0.443641" stroke-miterlimit="10"/>
<path d="M333.491 149.813H307.507L313.718 139.196H327.287L333.491 149.813Z" stroke="#402418" stroke-width="1.65983" stroke-miterlimit="10"/>
<path d="M345.836 181.755H295.169L297.081 148.788H343.924L345.836 181.755Z" fill="#9C7359"/>
<path d="M309.587 158.28H306.421V179.001H309.587V158.28Z" fill="#805134"/>
<path d="M308.004 172.332C309.47 172.332 310.658 171.144 310.658 169.678C310.658 168.212 309.47 167.023 308.004 167.023C306.538 167.023 305.35 168.212 305.35 169.678C305.35 171.144 306.538 172.332 308.004 172.332Z" fill="white"/>
<path d="M334.584 158.28H331.418V179.001H334.584V158.28Z" fill="#805134"/>
<path d="M333.001 172.332C334.467 172.332 335.655 171.144 335.655 169.678C335.655 168.212 334.467 167.023 333.001 167.023C331.535 167.023 330.347 168.212 330.347 169.678C330.347 171.144 331.535 172.332 333.001 172.332Z" fill="white"/>
<path d="M343.924 148.788H297.081L296.646 156.368C301.059 161.134 310.085 164.407 320.51 164.407C330.936 164.407 339.962 161.134 344.375 156.368L343.939 148.788H343.924Z" fill="#C79372"/>
<path d="M317.259 122.223V126.186L314.506 135.678V138.493H315.974L317.259 142.21L324.862 141.392L326.492 135.166C326.492 135.166 326.132 128.633 324.709 125.773L324.763 122.216H317.259V122.223Z" fill="#7D4730"/>
<path d="M317.955 135.112L319.523 141.966" stroke="#402418" stroke-width="0.443641" stroke-miterlimit="10"/>
<path d="M321.627 141.736L321.428 135.112" stroke="#402418" stroke-width="0.443641" stroke-miterlimit="10"/>
<path d="M323.6 141.53L324.465 135.112" stroke="#402418" stroke-width="0.443641" stroke-miterlimit="10"/>
<path d="M326.086 120.823H315.745V124.227H326.086V120.823Z" fill="white"/>
<path d="M297.173 26.9014C297.173 26.9014 314.49 29.8233 321.091 33.1582C321.091 33.1582 326.232 39.0785 325.681 48.4026L328.603 80.6507C328.603 80.6507 331.869 85.4849 330.714 97.5244C329.559 109.564 326.905 122.223 326.905 122.223H314.727L314.391 108.21C314.391 108.21 301.189 113.786 286.832 113.381L279.963 93.9217L276.766 113.381C276.766 113.381 269.759 114.536 262.141 112.631L270.784 82.3565L264.321 37.1128C264.321 37.1128 272.467 32.2174 285.753 29.0125L297.181 26.9014H297.173Z" fill="#0C193A"/>
<path d="M279.856 76.3291C278.8 81.6375 277.645 86.1274 279.955 94.5643" stroke="#101F18" stroke-width="0.443641" stroke-miterlimit="10"/>
<path d="M285.738 29.0125C284.981 29.1961 284.239 29.3873 283.512 29.5785L277.095 35.1011L278.318 50.6515L275.159 52.9614C275.159 63.8842 279.443 78.3713 279.443 78.3713L295.009 54.8966L290.97 50.6515L304.294 35.5065L299.766 27.2609C298.16 27.0314 297.166 26.9014 297.166 26.9014L285.738 29.0125Z" fill="#314FA5"/>
<path d="M310.651 67.4717C310.651 67.4717 311.125 99.1843 304.302 111.377C310.345 109.924 314.391 108.21 314.391 108.21L313.305 80.8192L310.658 67.4717H310.651Z" fill="#061128"/>
<path d="M253.681 259.729C253.681 259.729 247.455 261.978 244.701 263.301C241.948 264.625 242.965 266.208 242.965 266.208C250.729 266.292 258.186 265.818 263.762 265.321L265.009 263.095L266.401 265.076C270.639 264.648 273.278 264.273 273.278 264.273L272.459 260.907C272.865 256.364 271.136 254.528 271.136 254.528L265.812 254.933L266.287 251.262L261.697 250.397L260.374 252.539L253.689 259.737L253.681 259.729Z" fill="#101F18"/>
<path d="M315.607 249.693L311.286 249.418L306.543 257.732C306.543 257.732 303.545 259.262 300.019 261.235C297.349 262.727 298.175 264.471 298.175 264.471C308.073 264.983 313.504 263.912 318.193 260.662L318.659 258.153L320.61 259.583C324.488 257.832 326.866 256.631 326.866 256.631L325.023 253.701C323.968 249.265 321.734 248.079 321.734 248.079L316.181 252.959L315.6 249.693H315.607Z" fill="#101F18"/>
<path d="M297.77 28.8979C297.77 28.8979 283.841 56.7325 279.856 76.3292C276.689 60.4116 280.927 36.7304 285.187 30.7107V27.4828C285.187 27.0392 285.463 26.6414 285.876 26.4731C287.926 25.647 292.041 24.6603 296.133 25.0657C296.661 25.1193 297.097 25.4864 297.211 26.0065C297.441 27.0697 297.816 28.7755 297.793 28.829L297.77 28.9055V28.8979Z" fill="white"/>
<path d="M314.383 108.21L313.297 80.8188L307.308 50.6436" stroke="#101F18" stroke-width="0.443641" stroke-miterlimit="10"/>
<path d="M322.958 109.533L322.415 122.223" stroke="#101F18" stroke-width="0.443641" stroke-miterlimit="10"/>
<path d="M321.443 113.886C321.811 113.886 322.109 113.588 322.109 113.22C322.109 112.853 321.811 112.555 321.443 112.555C321.076 112.555 320.778 112.853 320.778 113.22C320.778 113.588 321.076 113.886 321.443 113.886Z" fill="white"/>
<path d="M321.084 119.653C321.451 119.653 321.749 119.355 321.749 118.988C321.749 118.62 321.451 118.322 321.084 118.322C320.716 118.322 320.418 118.62 320.418 118.988C320.418 119.355 320.716 119.653 321.084 119.653Z" fill="white"/>
<path d="M319.149 34.6885C319.149 34.6885 313.947 37.8552 308.333 48.3649" stroke="#101F18" stroke-width="0.443641" stroke-miterlimit="10"/>
<path d="M305.878 82.2494L311.003 69.2461" stroke="#101F18" stroke-width="0.443641" stroke-miterlimit="10"/>
<path d="M308.333 88.2695H289.96V90.503H308.333V88.2695Z" fill="#314FA5"/>
<path d="M281.883 82.2498C282.567 82.2498 283.122 81.695 283.122 81.0106C283.122 80.3263 282.567 79.7715 281.883 79.7715C281.198 79.7715 280.644 80.3263 280.644 81.0106C280.644 81.695 281.198 82.2498 281.883 82.2498Z" stroke="white" stroke-width="0.328906" stroke-miterlimit="10"/>
<path d="M281.883 91.4822C282.567 91.4822 283.122 90.9274 283.122 90.243C283.122 89.5587 282.567 89.0039 281.883 89.0039C281.198 89.0039 280.644 89.5587 280.644 90.243C280.644 90.9274 281.198 91.4822 281.883 91.4822Z" stroke="white" stroke-width="0.328906" stroke-miterlimit="10"/>
<path d="M304.654 50.6436H295.467V51.898H304.654V50.6436Z" fill="#314FA5"/>
<path d="M294.45 15.6729L296.546 25.846C296.546 25.846 294.014 28.6379 285.983 27.0698L285.401 22.3045L294.45 15.6729Z" fill="#7D4730"/>
<path d="M295.016 18.4112L294.45 15.6729L285.401 22.3045L285.983 27.0698C287.75 27.414 289.233 27.5364 290.503 27.5364C292.806 25.0964 294.297 20.8742 295.016 18.4112Z" fill="#573121"/>
<path d="M285.914 0.0920874C289.448 -0.458639 293.089 1.4842 295.031 5.29339C296.974 9.10259 296.73 14.7475 293.876 17.0652L291.253 22.8096C290.977 23.4062 290.427 23.8192 289.777 23.9187L286.166 24.4541C285.501 24.5535 284.835 24.3011 284.399 23.7886L281.118 19.8876L279.282 13.7991C279.282 13.7991 277.959 10.9077 278.433 7.80991C278.907 4.71207 280.437 0.941124 285.914 0.0844384V0.0920874Z" fill="#7D4730"/>
<path d="M285.914 0.0922509C280.437 0.941288 278.907 4.71988 278.433 7.81772C278.081 10.1277 278.724 12.323 279.076 13.2867C279.611 11.8793 279.756 9.24808 279.756 9.24808L288.736 7.10637C290.236 10.709 292.408 10.9844 292.408 10.9844L294.037 16.9124C296.729 14.5106 296.921 9.03391 295.024 5.30121C293.081 1.49201 289.44 -0.450827 285.906 0.0998999L285.914 0.0922509Z" fill="#15244F"/>
<path d="M296.687 14.9756C297.314 13.5253 297.07 12.0249 296.143 11.6244C295.217 11.2239 293.957 12.075 293.331 13.5253C292.704 14.9756 292.947 16.476 293.874 16.8765C294.801 17.277 296.06 16.4259 296.687 14.9756Z" fill="#7D4730"/>
<path d="M293.716 15.4513C293.8 14.0592 295.23 11.7109 296.538 13.1719" stroke="#402418" stroke-width="0.443641" stroke-miterlimit="10"/>
<path d="M236.31 88.2703C238.689 88.8823 240.463 91.8577 239.339 94.1983C238.215 96.5389 235.492 98.78 233.319 98.78C231.147 98.78 232.241 88.844 232.241 88.844L236.31 88.2627V88.2703Z" fill="#7D4730"/>
<path d="M227.43 95.9272L234.237 97.8318L238.934 92.9976L228.455 86.8096L219.268 88.783C216.086 89.502 215.903 91.4372 219.742 94.3591C222.19 96.3326 227.43 95.9272 227.43 95.9272Z" fill="#FF8787"/>
<path d="M229.082 89.1885L237.763 94.1986" stroke="#9E4444" stroke-width="0.413045" stroke-miterlimit="10"/>
<path d="M227.896 90.5039L236.578 95.514" stroke="#9E4444" stroke-width="0.413045" stroke-miterlimit="10"/>
<path d="M226.55 91.6973L235.232 96.6997" stroke="#9E4444" stroke-width="0.413045" stroke-miterlimit="10"/>
<path d="M226.19 91.9189L233.61 95.1315L233.319 98.7801H227.246L223.773 96.6996L226.19 91.9189Z" fill="#7D4730"/>
<path d="M225.908 97.9847L227.667 92.5615" stroke="#402418" stroke-width="0.443641" stroke-miterlimit="10"/>
<path d="M228.34 98.7801L229.877 93.5176" stroke="#402418" stroke-width="0.443641" stroke-miterlimit="10"/>
<path d="M230.895 98.78L231.767 94.3359" stroke="#402418" stroke-width="0.443641" stroke-miterlimit="10"/>
<path d="M236.31 88.2709L230.359 87.1465L225.15 90.5044L226.343 91.2999L230.895 89.9384L234.291 90.2596L236.31 88.2709Z" fill="#7D4730"/>
<path d="M201.783 234.519V247.889L208.927 258.506C208.927 258.506 217.601 263.508 217.807 264.732C217.953 265.581 211.344 265.252 207.298 264.969C205.332 264.831 203.481 264.021 202.043 262.674L195.763 256.777L196.275 265.283H194.44C194.44 265.283 194.134 262.185 192.497 258.513C190.86 254.842 194.845 248.103 194.845 248.103L191.273 234.526H201.783V234.519Z" fill="#FF8787"/>
<path d="M194.432 265.276H196.268L195.755 256.77L202.035 262.668C203.473 264.014 205.324 264.832 207.29 264.962C211.336 265.245 217.945 265.574 217.8 264.725C217.593 263.501 208.919 258.499 208.919 258.499L205.385 253.252C203.496 253.504 202.004 254.009 200.941 254.491C199.595 255.095 198.042 254.988 196.811 254.185L193.109 251.775C192.29 253.948 191.655 256.625 192.489 258.499C194.118 262.17 194.432 265.268 194.432 265.268V265.276Z" fill="#ED3232"/>
<path d="M152.676 234.519L147.957 247.889L153.885 258.506C153.885 258.506 161.985 263.508 162.054 264.732C162.1 265.581 155.529 265.252 151.514 264.969C149.563 264.831 147.804 264.021 146.519 262.674L140.92 256.777L140.453 265.283H138.617C138.617 265.283 138.663 262.185 137.455 258.513C136.246 254.842 140.996 248.103 140.996 248.103L142.166 234.526H152.676V234.519Z" fill="#FF8787"/>
<path d="M138.617 265.276H140.453L140.92 256.77L146.519 262.668C147.804 264.014 149.563 264.832 151.506 264.962C155.522 265.245 162.092 265.574 162.046 264.725C161.985 263.501 153.877 258.499 153.877 258.499L150.947 253.252C149.035 253.504 147.483 254.009 146.358 254.491C144.943 255.095 143.406 254.988 142.258 254.185L138.832 251.775C137.768 253.948 136.827 256.625 137.447 258.499C138.656 262.17 138.61 265.268 138.61 265.268L138.617 265.276Z" fill="#ED3232"/>
<path d="M195.044 44.7012C197.698 46.4222 200.865 49.9866 202.593 62.8522C204.322 75.7178 208.307 110.314 208.307 110.314H197.897L190.042 82.1812L195.044 44.7088V44.7012Z" fill="#22408C"/>
<path d="M221.548 101.335H189.361V131.441H221.548V101.335Z" fill="#E3E3E3"/>
<path d="M198.31 101.435L204.23 237.173H189.537C189.537 237.173 183.41 200.022 184.84 188.189C186.27 176.349 175.975 148.591 175.715 141.24L155.445 237.173H139.933C139.933 237.173 140.545 214.724 142.182 200.634C143.811 186.552 149.731 177.443 150.343 171.996C150.955 166.55 149.617 142.601 150.55 125.047C151.559 105.993 160.142 95.2695 160.142 95.2695L198.31 101.435Z" fill="#314FA5"/>
<path d="M189.537 237.173H204.23L201.66 178.23C182.553 149.944 177.796 131.441 177.796 131.441L175.715 141.24C175.983 148.59 186.271 176.349 184.84 188.189C183.41 200.03 189.537 237.173 189.537 237.173Z" fill="#22408C"/>
<path d="M198.547 106.758L198.318 101.435L160.149 95.2695C160.149 95.2695 157.028 99.1782 154.328 106.445C164.8 111.294 173.298 112.908 180.044 112.809L184.649 103.561L193.491 109.887C195.633 108.877 197.3 107.753 198.555 106.758H198.547Z" fill="#22408C"/>
<path d="M147.421 237.173L175.715 104.089" stroke="#091A29" stroke-width="0.474237" stroke-miterlimit="10"/>
<path d="M193.614 104.089L200.964 237.173" stroke="#091A29" stroke-width="0.474237" stroke-miterlimit="10"/>
<path d="M175.715 141.24L180.687 117.559L188.512 113.138" stroke="#091A29" stroke-width="0.474237" stroke-miterlimit="10"/>
<path d="M185.268 98.9561L181.834 116.916" stroke="#091A29" stroke-width="0.474237" stroke-miterlimit="10"/>
<path d="M188.435 99.8428C188.435 99.8428 187.709 111.538 182.668 112.54" stroke="#091A29" stroke-width="0.474237" stroke-miterlimit="10"/>
<path d="M215.719 131.441L213.401 133.261L206.823 132.703L204.911 126.645L209.852 125.888L212.002 130.867L211.283 125.046L212.92 124.648L214.518 131.441H215.719Z" fill="#FF8787"/>
<path d="M208.055 126.163L210.388 132.359" stroke="#9E4444" stroke-width="0.413045" stroke-miterlimit="10"/>
<path d="M206.165 126.4L208.498 132.596" stroke="#9E4444" stroke-width="0.413045" stroke-miterlimit="10"/>
<path d="M170.422 20.3473C173.142 20.3473 175.348 18.0631 175.348 15.2454C175.348 12.4277 173.142 10.1436 170.422 10.1436C167.701 10.1436 165.496 12.4277 165.496 15.2454C165.496 18.0631 167.701 20.3473 170.422 20.3473Z" fill="#15244F"/>
<path d="M169.55 19.2542C169.55 19.6061 169.581 19.9503 169.649 20.2792C169.902 20.3174 170.162 20.348 170.422 20.348C173.145 20.348 175.348 18.061 175.348 15.2461C175.348 14.8943 175.317 14.5501 175.248 14.2212C174.996 14.1829 174.736 14.1523 174.476 14.1523C171.753 14.1523 169.55 16.4394 169.55 19.2542Z" fill="#0E1E3D"/>
<path d="M189.399 20.7456C192.39 19.996 192.191 15.1006 188.259 14.5346C184.328 13.9686 181.421 15.093 181.421 15.093C181.421 15.093 177.336 13.5097 174.529 14.787C171.722 16.0644 169.129 19.2311 172.747 26.4747L174.483 31.2706L189.399 20.7379V20.7456Z" fill="#15244F"/>
<path d="M181.238 19.957C181.238 19.957 183.961 22.0987 189.399 20.7372L188.244 26.8641C188.244 26.8641 190.76 34.3448 182.936 35.0255L182.53 40.0585L188.244 42.1008C188.244 42.1008 185.796 44.0054 179.807 44.5485C173.818 45.0916 168.578 44.0743 166.475 42.7816L171.852 41.2135L174.774 28.5621C174.774 28.5621 175.998 27.8125 176.816 24.3475C176.816 24.3475 180.014 24.6229 181.238 19.957Z" fill="#FF8787"/>
<path d="M173.872 30.238C175.16 30.238 176.204 28.9573 176.204 27.3773C176.204 25.7974 175.16 24.5166 173.872 24.5166C172.583 24.5166 171.539 25.7974 171.539 27.3773C171.539 28.9573 172.583 30.238 173.872 30.238Z" fill="#FF8787"/>
<path d="M182.936 35.0341C180.786 35.2253 178.499 34.2692 177.291 32.9918C176.962 32.64 176.365 32.8465 176.357 33.3284C176.304 35.7225 177.696 38.8357 182.591 39.2869L182.936 35.0341Z" fill="#FF6666"/>
<path d="M169.55 43.2631C169.55 43.2631 185.429 43.0643 185.965 42.5518C186.5 42.0393 190.76 81.7452 190.76 81.7452L178.721 83.1755L169.557 43.2708L169.55 43.2631Z" fill="#ED3232"/>
<path d="M194.241 88.2701C194.241 88.2701 198.111 73.4694 198.624 67.7556C199.136 62.0418 196.581 55.2036 196.581 55.2036L195.052 44.7016L184.167 40.334C188.657 55.2648 185.391 80.2693 185.391 80.2693C181.176 60.6726 169.948 41.772 169.948 41.772C169.948 41.772 159.331 44.4491 155.239 46.5067L153.938 61.8123L162.903 85.4094L153.824 99.4912C163.951 105.695 172.349 108.219 179.096 108.785L184.343 100.409L192.168 107.255C197.622 105.312 200.268 102.352 200.268 102.352L194.256 88.2701H194.241Z" fill="#314FA5"/>
<path d="M185.643 40.9306L184.159 40.334C188.649 55.2648 185.383 80.2693 185.383 80.2693C181.169 60.6726 169.94 41.772 169.94 41.772C169.94 41.772 169.359 41.9173 168.425 42.1697L163.821 52.1899L177.635 71.6336C177.635 71.6336 185.796 83.4742 185.666 83.8108C185.536 84.1473 190.5 73.607 190.5 73.607L189.07 64.5583C189.07 64.5583 191.862 56.458 193.629 51.6315C190.852 47.6464 186.982 42.6287 185.659 40.9306H185.643Z" fill="#22408C"/>
<path d="M194.241 88.2706C194.241 88.2706 194.256 88.2094 194.287 88.1023L190.049 89.2191L154.229 58.3555L153.938 61.8052L162.903 85.4023L160.05 89.8234C164.111 94.2292 170.697 99.4993 179.234 99.79C191.418 100.211 196.199 97.0287 197.507 95.8967L194.248 88.263L194.241 88.2706Z" fill="#22408C"/>
<path d="M195.862 82.1816L219.268 88.7827C219.268 88.7827 222.19 96.3323 219.742 94.3588L192.458 94.4277C192.458 94.4277 190.011 84.2928 195.862 82.1816Z" fill="#FF8787"/>
<path d="M184.328 100.417L186.202 97.4877L185.727 85.1729" stroke="#091A29" stroke-width="0.443641" stroke-miterlimit="10"/>
<path d="M177.369 88.4211L166.287 93.7549L166.894 95.0162L177.976 89.6824L177.369 88.4211Z" fill="#22408C"/>
<path d="M153.678 47.6162C159.392 42.3766 165.924 49.7961 172.319 58.233C178.713 66.6698 187.012 79.3212 187.012 79.3212L195.855 82.1819C195.855 82.1819 193.132 88.4388 194.088 95.9271L185.865 94.6804C180.763 93.9078 176.158 91.2154 172.984 87.1538C168.104 80.9122 161.067 71.6187 157.755 67.6183C151.835 60.4741 149.479 51.456 153.67 47.6162H153.678Z" fill="#314FA5"/>
<path d="M187.02 79.3213L195.862 82.182" stroke="#091A29" stroke-width="0.443641" stroke-miterlimit="10"/>
<path d="M157.793 45.8721C160.379 45.8797 161.778 46.354 165.006 49.7272" stroke="#091A29" stroke-width="0.443641" stroke-miterlimit="10"/>
<defs>
<linearGradient id="paint0_linear_1818_29861" x1="341.927" y1="131.846" x2="364.973" y2="71.924" gradientUnits="userSpaceOnUse">
<stop stop-color="#095C8D" stop-opacity="0"/>
<stop offset="1" stop-color="#085F8F"/>
</linearGradient>
<linearGradient id="paint1_linear_1818_29861" x1="371.735" y1="143.313" x2="394.782" y2="83.3906" gradientUnits="userSpaceOnUse">
<stop stop-color="#095C8D" stop-opacity="0"/>
<stop offset="1" stop-color="#085F8F"/>
</linearGradient>
<linearGradient id="paint2_linear_1818_29861" x1="489.667" y1="111.316" x2="470.744" y2="79.948" gradientUnits="userSpaceOnUse">
<stop stop-color="#095C8D" stop-opacity="0"/>
<stop offset="1" stop-color="#085F8F"/>
</linearGradient>
<linearGradient id="paint3_linear_1818_29861" x1="466.338" y1="125.391" x2="447.414" y2="94.0149" gradientUnits="userSpaceOnUse">
<stop stop-color="#095C8D" stop-opacity="0"/>
<stop offset="1" stop-color="#085F8F"/>
</linearGradient>
</defs>
</svg>
