<svg width="482" height="326" viewBox="0 0 482 326" fill="none" xmlns="http://www.w3.org/2000/svg">
<path d="M76.1177 267.322H418.773" stroke="#263238" stroke-width="0.721638" stroke-linecap="round" stroke-linejoin="round"/>
<path d="M353.256 39.9648C352.151 37.7782 350.658 35.8081 348.724 34.3143C345.888 32.1205 341.63 29.9917 336.485 31.0742C326.974 33.0803 326.468 42.0864 321.467 43.5946C316.459 45.0956 313.955 38.0885 305.945 40.0874C297.935 42.0936 299.436 48.5955 295.431 49.5986C291.426 50.6017 285.92 47.0945 280.911 48.5955C275.903 50.0965 274.9 55.1047 272.403 55.6026L269.899 56.1006H378.47C378.47 56.1006 376.543 48.5883 369.536 45.0884C362.529 41.5812 360.522 46.0915 357.015 44.0853C355.089 42.9812 353.919 41.2781 353.256 39.9648Z" stroke="#263238" stroke-width="0.721638" stroke-linecap="round" stroke-linejoin="round"/>
<path d="M152.64 74.2347C151.984 72.943 151.103 71.7667 149.956 70.8791C148.274 69.5801 145.741 68.31 142.696 68.9523C137.053 70.143 136.757 75.4903 133.784 76.378C130.811 77.2656 129.331 73.1089 124.576 74.2996C119.82 75.4903 120.715 79.3511 118.341 79.9428C115.967 80.5346 112.698 78.4563 109.724 79.3511C106.751 80.2387 106.16 83.2119 104.673 83.5077L103.186 83.8036H167.6C167.6 83.8036 166.46 79.3511 162.303 77.2656C158.146 75.18 156.956 77.8573 154.877 76.6738C153.737 76.0171 153.037 75.0068 152.647 74.2275L152.64 74.2347Z" stroke="#263238" stroke-width="0.721638" stroke-linecap="round" stroke-linejoin="round"/>
<path d="M218.1 14.4544C217.443 13.1555 216.563 11.9864 215.415 11.0988C213.734 9.79985 211.208 8.52977 208.156 9.17203C202.513 10.3627 202.217 15.7101 199.244 16.5977C196.27 17.4853 194.791 13.3287 190.035 14.5194C185.28 15.7101 186.175 19.5708 183.801 20.1626C181.426 20.7543 178.157 18.676 175.184 19.5708C172.211 20.4584 171.619 23.4316 170.133 23.7275L168.646 24.0233H233.06C233.06 24.0233 231.919 19.5708 227.763 17.4853C223.606 15.407 222.415 18.077 220.337 16.8936C219.197 16.2369 218.497 15.2266 218.107 14.4472L218.1 14.4544Z" stroke="#263238" stroke-width="0.721638" stroke-linecap="round" stroke-linejoin="round"/>
<path d="M416.204 111.053H420.787" stroke="#263238" stroke-width="0.721638" stroke-linecap="round" stroke-linejoin="round"/>
<path d="M313.421 92.9616H320.031V101.52H330.214V83.8906H343.954V112.33H357.181V79.4453H382.114V139.298H400.357V111.053H412.134" stroke="#263238" stroke-width="0.721638" stroke-linecap="round" stroke-linejoin="round"/>
<path d="M151.096 98.4963H167.383V123.176H172.976V63.7422H224.205V117.952H251.851V105.049H290.524V120.658H301.204V92.9613H308.334" stroke="#263238" stroke-width="0.721638" stroke-linecap="round" stroke-linejoin="round"/>
<path d="M74.2632 165.992H98.1783V114.113H121.076V122.679H131.251V98.4971H144.991" stroke="#263238" stroke-width="0.721638" stroke-linecap="round" stroke-linejoin="round"/>
<path d="M132.268 144.335H107.848V167.002H103.266" stroke="#263238" stroke-width="0.721638" stroke-linecap="round" stroke-linejoin="round"/>
<path d="M421.292 181.608H415.187V157.433H327.161V165.991H314.944V147.857H184.176V164.483H170.941V154.914H152.626V144.335H139.391" stroke="#263238" stroke-width="0.721638" stroke-linecap="round" stroke-linejoin="round"/>
<path d="M43.2035 243.704H255.5C257.205 243.704 258.909 243.5 260.562 243.082L295.215 234.49C308.184 231.275 314.909 216.939 309.082 204.908L307.735 202.122C304.225 194.867 296.868 190.255 288.807 190.255H48.9791C41.0606 190.255 33.8157 194.704 30.2239 201.765L24.4483 213.143C20.1116 221.684 22.0912 232.092 29.2749 238.429C33.1218 241.827 38.0708 243.694 43.1933 243.694L43.2035 243.704Z" fill="#263238" stroke="#263238" stroke-width="1.02041" stroke-linecap="round" stroke-linejoin="round"/>
<path d="M289.021 199.398H276.245V201.898C263.878 206.939 255.164 219.072 255.164 233.256C255.164 247.44 263.878 259.562 276.245 264.613V267.113H289.021C307.715 267.113 322.878 251.96 322.878 233.256C322.878 214.552 307.725 199.398 289.021 199.398Z" fill="#263238" stroke="#263238" stroke-width="1.02041" stroke-linecap="round" stroke-linejoin="round"/>
<path d="M276.245 267.113C294.944 267.113 310.103 251.955 310.103 233.256C310.103 214.557 294.944 199.398 276.245 199.398C257.547 199.398 242.388 214.557 242.388 233.256C242.388 251.955 257.547 267.113 276.245 267.113Z" fill="#424242" stroke="#263238" stroke-width="1.02041" stroke-linecap="round" stroke-linejoin="round"/>
<path d="M299.071 242.52C304.205 229.909 298.143 215.525 285.533 210.391C272.922 205.258 258.537 211.319 253.404 223.93C248.27 236.541 254.332 250.925 266.942 256.059C279.553 261.192 293.938 255.131 299.071 242.52Z" fill="white" stroke="#263238" stroke-width="1.02041" stroke-linecap="round" stroke-linejoin="round"/>
<path d="M397.675 199.397H384.899C366.205 199.397 351.042 214.551 351.042 233.255C351.042 251.959 366.195 267.112 384.899 267.112H397.675C416.369 267.112 431.532 251.959 431.532 233.255C431.532 214.551 416.379 199.397 397.675 199.397Z" fill="#263238" stroke="#263238" stroke-width="1.02041" stroke-linecap="round" stroke-linejoin="round"/>
<path d="M186.347 199.397H173.571C154.877 199.397 139.714 214.551 139.714 233.255C139.714 251.959 154.867 267.112 173.571 267.112H186.347C205.041 267.112 220.204 251.959 220.204 233.255C220.204 214.551 205.051 199.397 186.347 199.397Z" fill="#263238" stroke="#263238" stroke-width="1.02041" stroke-linecap="round" stroke-linejoin="round"/>
<path d="M74.6936 199.397H57.6017V213.816C55.214 219.326 53.8058 226.04 53.8058 233.295C53.8058 240.551 55.214 247.265 57.6017 252.775V267.194H74.6936C86.2345 267.194 95.5917 252.01 95.5917 233.285C95.5917 214.561 86.2345 199.377 74.6936 199.377V199.397Z" fill="#263238" stroke="#263238" stroke-width="1.02041" stroke-linecap="round" stroke-linejoin="round"/>
<path d="M57.5913 267.214C69.133 267.214 78.4894 252.033 78.4894 233.306C78.4894 214.579 69.133 199.397 57.5913 199.397C46.0496 199.397 36.6932 214.579 36.6932 233.306C36.6932 252.033 46.0496 267.214 57.5913 267.214Z" fill="#424242" stroke="#263238" stroke-width="1.02041" stroke-linecap="round" stroke-linejoin="round"/>
<path d="M57.5914 257.326C65.763 257.326 72.3874 246.572 72.3874 233.306C72.3874 220.04 65.763 209.285 57.5914 209.285C49.4198 209.285 42.7954 220.04 42.7954 233.306C42.7954 246.572 49.4198 257.326 57.5914 257.326Z" fill="white" stroke="#263238" stroke-width="1.02041" stroke-linecap="round" stroke-linejoin="round"/>
<path d="M344.756 155.275L334.695 164.102V167.612H348.552L344.756 155.275Z" fill="white" stroke="#263238" stroke-width="1.02041" stroke-linecap="round" stroke-linejoin="round"/>
<path d="M348.225 167.703H367.205C369.115 167.703 370.664 166.154 370.664 164.244V154.948C370.664 153.038 369.115 151.489 367.205 151.489H348.225C346.315 151.489 344.766 153.038 344.766 154.948V164.244C344.766 166.154 346.315 167.703 348.225 167.703Z" fill="#878787" stroke="#263238" stroke-width="1.02041" stroke-linecap="round" stroke-linejoin="round"/>
<path d="M355.97 167.347L315.266 133.959C304.215 124.898 290.358 119.938 276.062 119.938H168.245L238.296 167.337H355.97V167.347Z" fill="#878787" stroke="#263238" stroke-width="1.02041" stroke-linecap="round" stroke-linejoin="round"/>
<path d="M318.531 138.163C307.48 129.102 293.623 124.143 279.327 124.143H190.633C199.613 127.632 207.745 133.204 214.307 140.541L238.286 167.347H354.103L318.521 138.163H318.531Z" fill="#263238" stroke="#263238" stroke-width="1.02041" stroke-linecap="round" stroke-linejoin="round"/>
<path d="M238.296 167.347L235.398 167.367L241.562 171.541H256.429L238.296 167.347Z" fill="white" stroke="#263238" stroke-width="1.02041" stroke-linecap="round" stroke-linejoin="round"/>
<path d="M476.022 244.061H347.838L345.429 227.173L332.48 189.173L372.297 186.193H429.695L465.95 189.173L478.889 227.122L476.022 244.061Z" fill="#878787" stroke="#263238" stroke-width="1.02041" stroke-linecap="round" stroke-linejoin="round"/>
<path d="M354.531 222.724L358.797 235.255C359.705 237.908 362.195 239.693 365.001 239.693H477.746C479.828 239.693 481.501 237.969 481.44 235.887L481.022 222.071C480.961 220.071 479.328 218.489 477.328 218.489H357.562C355.368 218.489 353.817 220.653 354.531 222.734V222.724Z" fill="#263238" stroke="#263238" stroke-width="1.02041" stroke-linecap="round" stroke-linejoin="round"/>
<path d="M470.369 210.806L463.154 191.133L443.756 190.225L450.767 210.806H470.369Z" fill="white" stroke="#263238" stroke-width="1.02041" stroke-linecap="round" stroke-linejoin="round"/>
<path d="M380.991 210.806L373.981 190.225L343.399 193.796L349.021 210.806H380.991Z" fill="white" stroke="#263238" stroke-width="1.02041" stroke-linecap="round" stroke-linejoin="round"/>
<path d="M442.736 210.806L435.726 190.225H382.011L389.021 210.806H442.736Z" fill="#1470EB" stroke="#263238" stroke-width="1.02041" stroke-linecap="round" stroke-linejoin="round"/>
<path d="M46.1932 169.214L91.3567 135.99C102.734 125.663 117.551 119.938 132.918 119.938H168.255C185.847 119.938 202.592 127.428 214.327 140.541L238.306 167.347L46.2034 169.214H46.1932Z" fill="#666666" stroke="#263238" stroke-width="1.02041" stroke-linecap="round" stroke-linejoin="round"/>
<path d="M66.5303 169.215L97.7753 138.847C107.49 129.398 120.143 124.174 133.265 124.174H170.765C185.786 124.174 200.092 131.021 210.102 143.011L230.582 167.521L66.5405 169.235L66.5303 169.215Z" fill="#263238" stroke="#263238" stroke-width="1.02041" stroke-linecap="round" stroke-linejoin="round"/>
<path d="M355.97 167.347L465.95 189.173L429.695 186.194H372.297L332.481 189.173L238.296 167.347H355.97Z" fill="#878787" stroke="#263238" stroke-width="1.02041" stroke-linecap="round" stroke-linejoin="round"/>
<path d="M149.826 124.163C145.48 131.377 137.796 146.969 136.653 168.48L148.786 168.357C149.265 156.806 151.806 136.102 163.255 124.163H149.816H149.826Z" fill="#666666" stroke="#263238" stroke-width="1.02041" stroke-linecap="round" stroke-linejoin="round"/>
<path d="M106.622 131.898C102.633 140.409 98.3162 153.062 97.5406 168.888L100.286 168.858C100.775 158.317 102.796 141.735 110.275 129.807C109.031 130.45 107.816 131.154 106.622 131.898Z" fill="#878787" stroke="#263238" stroke-width="1.02041" stroke-linecap="round" stroke-linejoin="round"/>
<path d="M211.623 167.704L230.572 167.5L214.368 148.122L211.623 167.704Z" fill="#878787" stroke="#263238" stroke-width="1.02041" stroke-linecap="round" stroke-linejoin="round"/>
<path d="M211.623 155.275L221.694 164.102V167.612H207.837L211.623 155.275Z" fill="#263238" stroke="#263238" stroke-width="1.02041" stroke-linecap="round" stroke-linejoin="round"/>
<path d="M208.163 151.489H189.184C187.273 151.489 185.725 153.038 185.725 154.948V164.244C185.725 166.155 187.273 167.704 189.184 167.704H208.163C210.074 167.704 211.623 166.155 211.623 164.244V154.948C211.623 153.038 210.074 151.489 208.163 151.489Z" fill="#878787" stroke="#263238" stroke-width="1.02041" stroke-linecap="round" stroke-linejoin="round"/>
<path d="M237.113 225.378C237.113 215.888 239.164 194.01 268.286 194.01C290.337 194.01 297.154 225.378 297.154 225.378C297.154 225.378 298.858 239.001 302.694 244.541C303.674 245.96 304.409 247.011 304.95 247.796H309.929L347.827 244.052L345.419 227.174L332.46 189.164L238.276 167.337L46.1729 169.204L23.9381 174.541C21.3258 175.163 18.7952 176.061 16.387 177.225C11.7952 179.439 6.1523 182.857 5.84618 185.704L1.4482 226.133C0.784927 232.256 15.9585 238.031 21.7442 240.113L35.2341 243.684C33.3769 239.082 31.8361 233.745 31.8361 228.347C31.8361 216 36.5198 194 57.0505 194C67.6118 194 74.1322 196.153 78.2343 199.857L78.2547 199.817C78.2547 199.817 78.3771 199.939 78.571 200.153C79.9894 201.511 81.1118 203.051 81.9996 204.776C84.4792 208.694 87.5098 214.878 88.9078 223.235C91.4588 238.562 96.9997 245.807 102.112 247.511C102.387 247.603 102.653 247.694 102.908 247.786H245.184C240.357 240.96 237.113 233.072 237.113 225.368V225.378Z" fill="#666666" stroke="#263238" stroke-width="1.02041" stroke-linecap="round" stroke-linejoin="round"/>
<path d="M349.021 210.806H360.532L354.797 192.459L343.399 193.796L349.021 210.806Z" fill="white" stroke="#263238" stroke-width="1.02041" stroke-linecap="round" stroke-linejoin="round"/>
<path d="M464.277 210.806H470.369L463.155 191.133L456.899 190.837L464.277 210.806Z" fill="white" stroke="#263238" stroke-width="1.02041" stroke-linecap="round" stroke-linejoin="round"/>
<path d="M93.6731 179.531H84.3975C83.1746 179.531 82.1832 180.523 82.1832 181.746V182.899C82.1832 184.122 83.1746 185.113 84.3975 185.113H93.6731C94.896 185.113 95.8874 184.122 95.8874 182.899V181.746C95.8874 180.523 94.896 179.531 93.6731 179.531Z" fill="white" stroke="#263238" stroke-width="1.02041" stroke-linecap="round" stroke-linejoin="round"/>
<path d="M158.398 179.531H149.122C147.9 179.531 146.908 180.523 146.908 181.746V182.899C146.908 184.122 147.9 185.113 149.122 185.113H158.398C159.621 185.113 160.612 184.122 160.612 182.899V181.746C160.612 180.523 159.621 179.531 158.398 179.531Z" fill="white" stroke="#263238" stroke-width="1.02041" stroke-linecap="round" stroke-linejoin="round"/>
<path d="M229.725 235.694C230.317 238.072 231.051 240.194 231.939 241.97" stroke="#263238" stroke-width="1.02041" stroke-linecap="round" stroke-linejoin="round"/>
<path d="M235.49 171.918C235.49 171.918 230.919 175.979 229.398 183.591C228.164 189.765 225.929 214.959 228.909 231.847" stroke="#263238" stroke-width="1.02041" stroke-linecap="round" stroke-linejoin="round"/>
<path d="M133.847 220.878C134.071 224.725 134.469 228.449 135.061 231.847" stroke="#263238" stroke-width="1.02041" stroke-linecap="round" stroke-linejoin="round"/>
<path d="M141.643 171.918C141.643 171.918 137.071 175.979 135.551 183.591C134.704 187.816 133.388 200.969 133.602 214.265" stroke="#263238" stroke-width="1.02041" stroke-linecap="round" stroke-linejoin="round"/>
<path d="M251.368 192.225C257.092 187.838 266.184 183.358 277.623 186.133C294.378 190.195 296.909 210.501 297.419 216.593" stroke="#263238" stroke-width="1.02041" stroke-linecap="round" stroke-linejoin="round"/>
<path d="M244.633 198.827C244.633 198.827 245.929 197.062 248.337 194.807" stroke="#263238" stroke-width="1.02041" stroke-linecap="round" stroke-linejoin="round"/>
<path d="M5.85644 185.725L4.20337 200.96H10.5605V185.531H5.90746C5.89725 185.603 5.86664 185.664 5.86664 185.735L5.85644 185.725Z" fill="white" stroke="#263238" stroke-width="1.02041" stroke-linecap="round" stroke-linejoin="round"/>
<path d="M75.8873 173.163C75.8873 173.163 73.5505 183.153 74.122 191.286C74.122 191.286 86.4996 195.265 92.2445 207.194C97.9894 219.122 95.7751 225.316 99.316 230.174" stroke="#263238" stroke-width="1.02041" stroke-linecap="round" stroke-linejoin="round"/>
<path d="M94.5346 161.522C94.5346 161.522 93.5706 180.367 96.6471 203.629C99.7236 226.9 100.688 232.164 100.688 234.47C100.688 236.775 98.768 240.623 99.1452 246.39C99.5308 252.157 100.872 278.815 100.872 278.815C100.872 278.815 97.9884 281.313 97.7956 282.855C97.6028 284.398 97.6028 286.125 97.6028 286.125C97.6028 286.125 92.6066 291.506 91.6426 293.049C90.6785 294.591 86.2608 298.238 87.0236 299.78C87.7948 301.323 94.9035 303.435 99.1368 302.471C103.37 301.507 108.752 299.588 109.909 298.045C111.066 296.503 115.483 296.888 117.026 296.125C118.568 295.354 119.331 294.206 118.753 291.322C118.174 288.438 116.255 281.9 116.255 281.321V273.249C116.255 270.751 123.782 247.597 123.011 241.058C122.24 234.52 122.626 225.097 122.626 225.097L124.52 184.021C124.52 184.021 141.286 234.796 141.479 235.76C141.671 236.725 144.136 247.48 147.791 255.552C151.446 263.625 155.444 278.186 155.444 278.186C155.444 278.186 154.095 280.684 155.252 282.034C156.409 283.383 157.171 285.496 157.171 285.496C157.171 285.496 156.4 288.38 157.75 290.878C159.099 293.376 161.79 292.605 162.746 294.725C163.71 296.838 163.71 301.264 168.899 303.762C174.088 306.26 178.9 305.489 179.855 303.762C180.819 302.035 180.819 297.224 179.47 294.147C178.12 291.071 173.51 287.416 173.124 286.837C172.738 286.259 173.51 283.568 172.931 281.263C172.353 278.957 169.276 275.495 169.276 275.495C169.276 275.495 170.467 252.09 167.583 243.246C164.699 234.402 162.201 231.712 162.201 229.591C162.201 227.47 158.161 164.02 158.161 164.02L156.811 155.947L94.3167 157.104L94.5095 161.53L94.5346 161.522Z" fill="#263238" stroke="#263238" stroke-width="0.838286" stroke-linecap="round" stroke-linejoin="round"/>
<path d="M117.806 142.309L115.425 156.502L123.506 156.116L118.77 140.775L117.806 142.309Z" fill="white" stroke="#263238" stroke-width="0.838286" stroke-linecap="round" stroke-linejoin="round"/>
<path d="M114.704 59.7964C114.704 59.7964 109.297 61.1795 101.543 64.2309C93.7803 67.2823 91.0139 68.5229 91.0139 68.5229C91.0139 68.5229 89.6308 66.7206 85.0537 72.5383C80.4851 78.356 80.0659 80.9882 80.0659 80.9882C80.0659 80.9882 73.1417 86.2527 71.4735 90.4106C69.8137 94.5685 71.616 101.493 74.5249 104.821C77.4337 108.149 81.0383 107.034 83.528 105.927C86.0178 104.821 92.5312 99.4138 92.5312 99.4138C92.5312 99.4138 97.1167 126.817 97.1167 127.371C97.1167 127.924 88.2895 162.461 90.0918 164.54C91.8941 166.619 103.119 174.239 107.545 175.488C111.979 176.737 115.442 175.069 116.271 172.713C117.101 170.358 119.046 145.972 119.046 145.972C119.046 145.972 123.062 172.16 124.177 174.097C125.283 176.033 130.137 177.559 136.642 176.729C143.155 175.899 157.289 171.322 160.332 168.69L163.517 167.03C163.517 167.03 159.083 145.696 157.423 141.118C155.763 136.55 156.668 123.238 156.668 123.238C156.668 123.238 163.182 84.7186 163.316 78.7668C163.459 72.8066 163.316 69.487 162.344 68.2379C161.371 66.9889 157.775 66.159 157.079 66.0248C156.383 65.8823 147.799 62.8393 144.195 62.1436C140.59 61.4478 137.581 59.1006 135.401 59.8215C133.222 60.5425 114.687 59.788 114.687 59.788L114.704 59.7964Z" fill="#1470EB" stroke="#263238" stroke-width="0.838286" stroke-linecap="round" stroke-linejoin="round"/>
<path d="M103.412 148.153L110.278 150.802L110.043 153.619C110.043 153.619 98.3156 149.159 97.142 148.69" fill="#1470EB"/>
<path d="M103.412 148.153L110.278 150.802L110.043 153.619C110.043 153.619 98.3156 149.159 97.142 148.69" stroke="#263238" stroke-width="0.838286" stroke-linecap="round" stroke-linejoin="round"/>
<path d="M96.9155 145.646L100.73 147.122" stroke="#263238" stroke-width="0.838286" stroke-linecap="round" stroke-linejoin="round"/>
<path d="M92.699 70.8711C92.699 70.8711 95.9851 74.3919 96.9239 78.3737L92.699 70.8711Z" fill="#1470EB"/>
<path d="M92.699 70.8711C92.699 70.8711 95.9851 74.3919 96.9239 78.3737" stroke="#263238" stroke-width="0.838286" stroke-linecap="round" stroke-linejoin="round"/>
<path d="M125.736 103.74C123.808 106.289 122.408 107.965 122.408 107.965" stroke="#263238" stroke-width="0.838286" stroke-linecap="round" stroke-linejoin="round"/>
<path d="M142.518 63.1006C142.518 63.1006 142.87 67.5519 142.87 69.6895C142.87 71.8271 141.806 77.167 141.806 77.167L135.217 76.1024L139.132 81.9788C139.132 81.9788 138.595 81.2662 134.68 89.6323C132.912 93.4046 130.237 97.5122 127.84 100.874" stroke="#263238" stroke-width="0.838286" stroke-linecap="round" stroke-linejoin="round"/>
<path d="M112.063 95.9023C113.623 99.2639 115.752 102.91 118.485 105.643" stroke="#263238" stroke-width="0.838286" stroke-linecap="round" stroke-linejoin="round"/>
<path d="M108.702 86.5977C108.702 86.5977 109.339 89.1963 110.697 92.6668" stroke="#263238" stroke-width="0.838286" stroke-linecap="round" stroke-linejoin="round"/>
<path d="M147.565 147.96L150.851 147.055" stroke="#263238" stroke-width="0.838286" stroke-linecap="round" stroke-linejoin="round"/>
<path d="M148.512 145.177L132.325 149.863L133.029 151.975L144.111 148.916" fill="#1470EB"/>
<path d="M148.512 145.177L132.325 149.863L133.029 151.975L144.111 148.916" stroke="#263238" stroke-width="0.838286" stroke-linecap="round" stroke-linejoin="round"/>
<path d="M117.806 142.31L117.135 120.464" stroke="#263238" stroke-width="0.838286" stroke-linecap="round" stroke-linejoin="round"/>
<path d="M112.767 69.4453C112.767 69.4453 114.193 81.919 115.911 88.2984C117.621 94.6777 120.287 106.389 121.243 105.341C122.198 104.293 126.859 91.6347 127.999 88.969C129.139 86.3032 129.139 86.211 130.757 81.9274C132.375 77.6437 136.374 70.5938 136.374 67.8358C136.374 65.0778 129.994 64.9772 123.523 64.7928C117.051 64.6 114.1 65.1701 112.767 69.4621V69.4453Z" fill="white" stroke="#263238" stroke-width="0.838286" stroke-linecap="round" stroke-linejoin="round"/>
<path d="M118.283 78.4905L121.041 83.537C121.041 83.537 117.52 94.2 117.998 95.7256C118.476 97.2513 120.287 106.674 121.234 105.341C122.19 104.008 125.996 94.485 126.088 93.6299C126.18 92.7749 123.615 83.9226 123.615 83.9226C123.615 83.9226 125.711 78.9683 125.903 78.5911C126.096 78.2139 123.523 72.7818 122.86 72.6895C122.198 72.5973 118.292 78.4989 118.292 78.4989L118.283 78.4905Z" fill="#263238" stroke="#263238" stroke-width="0.838286" stroke-linecap="round" stroke-linejoin="round"/>
<path d="M122.098 74.5828C122.098 74.5828 117.051 85.2457 116.288 84.1979C115.525 83.15 113.337 75.0606 112.952 71.917C112.575 68.7734 112.667 64.1126 113.329 61.539C113.991 58.9655 116.85 60.4912 116.85 60.4912C116.85 60.4912 134.554 59.3511 135.418 59.8289C136.273 60.3067 137.128 60.5918 137.321 62.1174C137.514 63.6431 136.558 69.9219 133.699 75.7312C130.841 81.5405 129.793 85.3463 128.846 85.2541C127.898 85.1619 122.089 74.5911 122.089 74.5911L122.098 74.5828Z" fill="white" stroke="#263238" stroke-width="0.838286" stroke-linecap="round" stroke-linejoin="round"/>
<path d="M114.385 52.4023C114.385 52.4023 114.1 61.5397 116.959 67.2568C119.817 72.9655 121.913 75.1618 123.531 74.4912C125.149 73.8205 135.049 63.4509 135.435 61.5397C135.812 59.6367 135.912 56.4932 135.912 56.4932C135.912 56.4932 130.673 58.5889 127.63 58.3039C124.587 58.0189 114.394 52.4023 114.394 52.4023H114.385Z" fill="white" stroke="#263238" stroke-width="0.838286" stroke-linecap="round" stroke-linejoin="round"/>
<path d="M135.896 56.4941C135.896 56.4941 130.807 58.5228 127.748 58.3132L128.418 60.2748L132.853 65.2123C134.27 63.5357 135.301 62.1358 135.418 61.5406C135.795 59.6377 135.896 56.4941 135.896 56.4941Z" fill="#263238" stroke="#263238" stroke-width="0.838286" stroke-linecap="round" stroke-linejoin="round"/>
<path d="M137.053 31.924L137.623 37.7669C137.623 37.7669 138.83 41.8326 138.83 44.2385C138.83 46.6443 138.067 50.4585 137.874 52.2357C137.681 54.0129 137.43 54.3314 136.734 56.3601C136.038 58.3887 134.068 60.1072 133.247 60.5515C132.425 60.9958 128.678 61.6329 126.96 61.3144C125.25 60.9958 123.657 60.233 120.228 58.0115C116.8 55.79 114.201 54.2057 113.497 52.9986C112.801 51.7914 112.734 48.6814 112.734 48.6814C112.734 48.6814 110.32 48.0443 109.054 44.8756C107.788 41.6985 108.291 40.944 109.691 40.1812L112.55 40.4326C112.55 40.4326 113.061 37.3226 111.594 34.5898C110.135 31.857 110.957 27.7326 114.83 25.6369C118.703 23.5412 122.634 24.3711 128.477 24.3711C134.32 24.3711 134.571 24.8154 135.208 25.5782C135.846 26.3411 136.919 30.4654 137.053 31.924Z" fill="white" stroke="#263238" stroke-width="0.838286" stroke-linecap="round" stroke-linejoin="round"/>
<path d="M127.102 38.2021C126.297 37.6488 125.191 37.632 124.26 37.632C121.712 37.632 117.722 37.456 117.126 39.4092C116.531 41.3624 118.057 45.361 119.423 45.8053C120.79 46.2496 124.788 46.1826 125.71 45.361C126.943 44.2545 127.714 42.8043 127.932 41.2199C128.074 40.2056 128.133 38.9984 127.228 38.2859C127.186 38.2524 127.152 38.2272 127.11 38.2021H127.102Z" fill="#263238" stroke="#263238" stroke-width="0.838286" stroke-linecap="round" stroke-linejoin="round"/>
<path d="M131.377 37.6073C131.377 37.6073 131.595 37.0037 133.767 36.8612C135.938 36.7187 139.333 36.3331 139.844 38.1438C140.355 39.9545 139.064 43.8106 137.908 44.3051C136.751 44.7997 133.339 44.959 132.559 44.2381C131.512 43.2573 130.849 41.9328 130.656 40.449C130.313 37.8001 131.377 37.5989 131.377 37.5989V37.6073Z" fill="#263238" stroke="#263238" stroke-width="0.838286" stroke-linecap="round" stroke-linejoin="round"/>
<path d="M127.102 38.2027L130.891 37.9512" stroke="#263238" stroke-width="0.838286" stroke-linecap="round" stroke-linejoin="round"/>
<path d="M128.167 39.4096C128.167 39.4096 129.5 38.521 130.581 39.4096" stroke="#263238" stroke-width="0.838286" stroke-linecap="round" stroke-linejoin="round"/>
<path d="M117.126 39.4082H111.091" stroke="#263238" stroke-width="0.838286" stroke-linecap="round" stroke-linejoin="round"/>
<path d="M114.964 31.6723C114.964 31.6723 116.934 34.4051 116.615 36.1823C116.297 37.9595 113.505 39.4181 113.505 39.4181C113.505 39.4181 114.075 40.6252 113.824 41.0695C113.572 41.5138 113.312 41.7653 113.061 41.5138C112.809 41.2623 112.172 40.4324 111.409 40.3737C110.647 40.3067 109.699 40.1809 109.699 40.1809C109.699 40.1809 109.255 35.9308 108.115 33.2651C106.975 30.5993 106.975 28.6293 107.545 27.615C108.115 26.6007 112.558 20.4393 114.016 19.2992C115.475 18.1592 118.652 16.885 125.375 16.7592C132.098 16.6335 135.535 21.5207 135.845 22.4763C136.164 23.432 135.845 24.1864 135.845 24.1864C135.845 24.1864 138.26 27.1037 138.318 28.8222C138.377 30.5406 137.052 31.9322 137.052 31.9322C137.052 31.9322 135.787 26.6594 134.898 26.1564C134.01 25.645 131.914 25.5193 130.581 26.2235C129.248 26.9192 127.597 27.8078 126.582 27.6234C125.568 27.4306 122.332 25.0247 119.155 25.7792C115.978 26.542 113.505 29.8449 114.964 31.6807V31.6723Z" fill="#263238" stroke="#263238" stroke-width="0.838286" stroke-linecap="round" stroke-linejoin="round"/>
<path d="M132.04 46.5186C132.04 46.5186 131.403 47.5329 130.9 47.9772C130.388 48.4215 129.374 48.17 129.441 48.4215C129.508 48.673 131.595 49.243 132.04 48.9915C132.484 48.74 132.04 46.5186 132.04 46.5186Z" fill="#263238" stroke="#263238" stroke-width="0.838286" stroke-linecap="round" stroke-linejoin="round"/>
<path d="M131.721 51.9834C131.721 51.9834 127.53 52.0505 126.138 52.4948" stroke="#263238" stroke-width="0.838286" stroke-linecap="round" stroke-linejoin="round"/>
<path d="M126.641 37.0034C126.641 37.0034 125.375 36.2406 123.85 35.9891C122.324 35.7376 118.392 36.4334 118.074 36.8106C117.755 37.1878 121.184 36.5591 121.947 36.5591C122.71 36.5591 124.294 37.0034 125.434 37.1962C126.574 37.389 125.945 37.7076 126.641 37.0034Z" fill="#263238" stroke="#263238" stroke-width="0.838286" stroke-linecap="round" stroke-linejoin="round"/>
<path d="M130.698 36.4838C130.698 36.4838 131.436 35.3269 132.551 34.6731C133.666 34.0192 137.019 33.818 137.396 34.1617C137.782 34.5054 134.856 34.6479 134.253 34.8323C133.649 35.0167 132.551 35.897 131.713 36.3915C130.875 36.8861 131.486 37.0789 130.698 36.4754V36.4838Z" fill="#263238" stroke="#263238" stroke-width="0.838286" stroke-linecap="round" stroke-linejoin="round"/>
<path d="M104.779 43.7008C104.779 43.7008 101.266 48.1186 101.4 49.4095C101.534 50.6921 104.108 56.4847 104.913 58.5133C105.726 60.542 107.008 64.549 107.008 64.549C107.008 64.549 113.094 71.1044 113.296 71.1044C113.497 71.1044 115.458 68.2626 116.07 65.4292C116.682 62.5874 116.682 62.185 116.682 62.185L116.867 60.5084C116.867 60.5084 118.242 59.8881 118.376 59.2845C118.51 58.6726 118.107 55.9062 117.764 55.3614C117.428 54.8249 116.548 53.7435 115.131 54.0788C113.715 54.4141 112.156 54.8919 112.156 54.8919C112.156 54.8919 113.505 51.8489 114.117 51.8489C114.729 51.8489 117.093 52.1172 117.093 51.4466C117.093 50.7759 117.16 50.231 116.414 49.9628C115.668 49.6945 115.333 49.5604 114.184 49.1497C113.036 48.7473 112.156 47.8671 110.94 48.8814C109.725 49.8957 108.911 52.1926 108.911 52.1926C108.911 52.1926 111.477 46.7186 111.686 46.3163C111.887 45.9139 113.304 44.7654 113.648 43.9523C113.983 43.1391 113.447 42.3344 112.969 42.2589C112.491 42.1835 111.485 42.7284 110.538 43.4074C109.59 44.0864 108.375 45.1007 107.973 45.9055C107.57 46.7186 105.676 50.0299 105.676 50.0299C105.676 50.0299 106.698 46.5007 106.832 46.2995C106.967 46.0983 110.747 42.217 111.217 41.756C111.686 41.2949 111.15 39.3249 108.853 40.2051C106.556 41.0853 104.795 43.7176 104.795 43.7176L104.779 43.7008Z" fill="white" stroke="#263238" stroke-width="0.838286" stroke-linecap="round" stroke-linejoin="round"/>
<path d="M116.858 60.5009L116.054 57.0137" stroke="#263238" stroke-width="0.838286" stroke-linecap="round" stroke-linejoin="round"/>
<path d="M108.903 52.1758C108.903 52.1758 107.227 54.4308 107.361 54.8415C107.495 55.2523 107.906 55.9313 107.906 55.9313" stroke="#263238" stroke-width="0.838286" stroke-linecap="round" stroke-linejoin="round"/>
<path d="M105.659 50.0127C105.659 50.0127 104.1 51.7144 104.234 52.3934" stroke="#263238" stroke-width="0.838286" stroke-linecap="round" stroke-linejoin="round"/>
<path d="M107.008 64.541L103.462 68.2295L112.172 78.1212L116.146 73.1754L107.008 64.541Z" fill="white" stroke="#263238" stroke-width="0.838286" stroke-linecap="round" stroke-linejoin="round"/>
<path d="M72.0854 93.2691C72.0854 93.2691 72.0854 90.2596 75.0949 87.4681C78.1043 84.6766 84.7687 82.3127 85.0873 82.0947C85.4058 81.8768 101.61 67.1062 102.046 66.7876C102.482 66.4691 103.446 67.5421 103.446 67.5421C103.446 67.5421 111.426 76.8303 112.172 78.1212C112.927 79.4122 113.136 79.7307 112.709 80.7032C112.281 81.6756 102.926 91.341 102.926 91.341C102.926 91.341 92.2881 106.17 90.3517 108.325C88.4153 110.471 87.1243 112.089 82.5053 111.871C77.8864 111.653 73.9045 108.543 71.7585 103.706C69.6125 98.8688 71.0041 93.8223 71.0041 93.8223" fill="#1470EB"/>
<path d="M72.0854 93.2691C72.0854 93.2691 72.0854 90.2596 75.0949 87.4681C78.1043 84.6766 84.7687 82.3127 85.0873 82.0947C85.4058 81.8768 101.61 67.1062 102.046 66.7876C102.482 66.4691 103.446 67.5421 103.446 67.5421C103.446 67.5421 111.426 76.8303 112.172 78.1212C112.927 79.4122 113.136 79.7307 112.709 80.7032C112.281 81.6756 102.926 91.341 102.926 91.341C102.926 91.341 92.2881 106.17 90.3517 108.325C88.4153 110.471 87.1243 112.089 82.5053 111.871C77.8864 111.653 73.9045 108.543 71.7585 103.706C69.6125 98.8688 71.0041 93.8223 71.0041 93.8223" stroke="#263238" stroke-width="0.838286" stroke-linecap="round" stroke-linejoin="round"/>
<path d="M133.666 113.06C133.666 113.06 131.662 111.61 129.097 109.011C126.532 106.413 124.193 105.465 123.003 105.683C121.813 105.893 119.759 105.817 119.759 105.817C119.759 105.817 116.783 104.627 116.162 105.415C115.542 106.203 115.048 106.907 115.592 107.595L116.137 108.282C116.137 108.282 114.36 110.21 114.88 112.163C115.4 114.108 116.23 115.089 116.23 115.089C116.23 115.089 115.634 117.956 116.137 119.44C116.64 120.923 118.107 122.147 118.107 122.147C118.107 122.147 118.694 123.187 119.423 123.572C120.153 123.958 125.467 124.939 126.281 124.872C127.102 124.813 130.832 124.545 130.832 124.545L133.666 113.06Z" fill="white" stroke="#263238" stroke-width="0.838286" stroke-linecap="round" stroke-linejoin="round"/>
<path d="M116.137 108.29C116.137 108.29 117.705 107.921 118.585 108.105C119.465 108.29 122.005 108.239 122.005 108.239" stroke="#263238" stroke-width="0.838286" stroke-linecap="round" stroke-linejoin="round"/>
<path d="M136.927 113.412C136.927 113.412 133.138 112.264 132.87 113.01C132.601 113.756 130.254 125.115 130.849 125.584C131.445 126.053 135.108 126.121 135.108 126.121L136.935 113.412H136.927Z" fill="white" stroke="#263238" stroke-width="0.838286" stroke-linecap="round" stroke-linejoin="round"/>
<path d="M149.132 94.3331C149.132 94.3331 151.748 99.5388 152.72 102.196C153.701 104.854 156.476 110.126 156.476 110.126C156.476 110.126 150.256 111.426 148.554 111.367C146.852 111.3 137.153 112.323 136.927 113.421C136.701 114.519 134.177 127.403 134.856 128.259C135.535 129.114 152.217 130.564 156.216 130.53C160.215 130.497 175.002 127.99 176.595 127.177C178.187 126.364 178.456 123.707 178.447 120.286C178.447 116.858 177.005 102.456 176.025 100.637C175.044 98.8179 172.386 85.8496 172.386 85.8496C172.386 85.8496 171.431 80.0655 169.478 76.1591C167.524 72.2443 164.305 66.8457 159.837 66.8457C155.369 66.8457 154.531 67.2648 154.531 67.2648" fill="#1470EB"/>
<path d="M149.132 94.3331C149.132 94.3331 151.748 99.5388 152.72 102.196C153.701 104.854 156.476 110.126 156.476 110.126C156.476 110.126 150.256 111.426 148.554 111.367C146.852 111.3 137.153 112.323 136.927 113.421C136.701 114.519 134.177 127.403 134.856 128.259C135.535 129.114 152.217 130.564 156.216 130.53C160.215 130.497 175.002 127.99 176.595 127.177C178.187 126.364 178.456 123.707 178.447 120.286C178.447 116.858 177.005 102.456 176.025 100.637C175.044 98.8179 172.386 85.8496 172.386 85.8496C172.386 85.8496 171.431 80.0655 169.478 76.1591C167.524 72.2443 164.305 66.8457 159.837 66.8457C155.369 66.8457 154.531 67.2648 154.531 67.2648" stroke="#263238" stroke-width="0.838286" stroke-linecap="round" stroke-linejoin="round"/>
<path d="M167.248 103.529C168.321 103.353 169.486 103.27 170.743 103.311" stroke="#263238" stroke-width="0.838286" stroke-linecap="round" stroke-linejoin="round"/>
<path d="M157.616 109.842C157.616 109.842 159.368 107.612 162.704 106.204" stroke="#263238" stroke-width="0.838286" stroke-linecap="round" stroke-linejoin="round"/>
<path d="M157.607 106.388C157.607 106.388 160.122 101.501 166.133 101.082" stroke="#263238" stroke-width="0.838286" stroke-linecap="round" stroke-linejoin="round"/>
<path d="M147.187 98.4492C147.187 98.4492 148.009 100.444 152.72 102.188" stroke="#263238" stroke-width="0.838286" stroke-linecap="round" stroke-linejoin="round"/>
<path d="M165.244 84.7686C165.906 85.0703 166.585 85.4308 167.273 85.8835" stroke="#263238" stroke-width="0.838286" stroke-linecap="round" stroke-linejoin="round"/>
<path d="M158.127 83.536C158.127 83.536 159.929 83.251 162.444 83.8294" stroke="#263238" stroke-width="0.838286" stroke-linecap="round" stroke-linejoin="round"/>
<path d="M168.279 110.572C168.279 110.572 167.256 110.22 166.032 109.867C164.096 109.314 161.656 108.769 161.941 109.633C162.411 111.041 164.758 111.51 164.758 111.51" stroke="#263238" stroke-width="0.838286" stroke-linecap="round" stroke-linejoin="round"/>
</svg>
