<svg width="475" height="264" viewBox="0 0 475 264" fill="none" xmlns="http://www.w3.org/2000/svg">
<path d="M475 224.289H0V224.509H475V224.289Z" fill="#EBEBEB"/>
<path d="M427.405 238.436H395.941V238.655H427.405V238.436Z" fill="#EBEBEB"/>
<path d="M314.659 240.826H306.404V241.046H314.659V240.826Z" fill="#EBEBEB"/>
<path d="M394.991 230.275H376.76V230.495H394.991V230.275Z" fill="#EBEBEB"/>
<path d="M90.8675 231.754H49.837V231.974H90.8675V231.754Z" fill="#EBEBEB"/>
<path d="M105.346 231.754H99.332V231.974H105.346V231.754Z" fill="#EBEBEB"/>
<path d="M213.892 235.463H124.896V235.683H213.892V235.463Z" fill="#EBEBEB"/>
<path d="M413.592 222.995L413.146 162.361L403.408 154.756L398.905 134.703L393.072 128.399L389.937 114.359L384.617 120.76L381.606 159.152L378.594 154.756L376.2 139.828L371.393 144.611L365.38 146L361.874 177.719L272.612 187.583L254.011 172.849L246.449 144.145L238.612 136.655L236.227 122.817L228.732 125.217V139.819L222.357 143.213L219.631 172.849L211.632 183.1L209.352 164.787C209.352 164.787 203.224 160.251 201.875 159.152C200.526 158.053 192.793 138.14 193.962 136.655C195.13 135.169 192.29 122.245 192.29 122.245L184.566 126.527V147.934L176.501 149.824L175.285 159.152L154.727 162.229L151.421 147.934H142.253L139.375 156.075L131.034 156.022L117.838 164.778L106.989 145.068L95.9501 149.815L88.0081 132.742L79.6481 142.756L76.5511 175.214L72.2666 175.68L70.2811 168.682L62.2441 175.68V223.004H413.583L413.592 222.995Z" fill="#F5F5F5"/>
<path d="M86.811 14.6279H68.267C66.671 14.584 65.3885 13.3796 65.3885 11.885C65.3885 10.3729 66.709 9.14207 68.3525 9.14207C68.647 9.14207 68.932 9.18603 69.198 9.25636C69.1505 8.98382 69.1315 8.7025 69.1315 8.41238C69.1315 5.21229 71.9341 2.61001 75.4016 2.61001C75.8006 2.61001 76.1805 2.64518 76.5605 2.70672C77.52 1.24734 79.2585 0.271484 81.2345 0.271484C84.2365 0.271484 86.6685 2.50451 86.716 5.27383C86.7445 5.27383 86.773 5.27383 86.811 5.27383C89.5945 5.27383 91.8556 7.36619 91.8556 9.94209C91.8556 12.518 89.5945 14.6104 86.811 14.6104V14.6279Z" fill="#F5F5F5"/>
<path d="M69.3691 206.512L85.0726 203.61L88.6066 163.899L99.3226 157.033L103.056 122.975L112.68 112.953L117.154 120.768L124.46 133.112L126.901 145.217L131.043 156.022L139.992 168.972L148.029 162.334C148.029 162.334 152.409 155.758 154.499 154.906C156.598 154.053 165.167 153.323 165.167 153.323L177.08 163.908V172.137L189.269 178.15L196.764 185.122L201.248 190.247L209.57 194.247C227.877 182.555 271.624 144.356 286.425 110.28L299.25 93.6907L315.163 89.1367L331.142 104.355C331.142 104.355 351.823 172.26 431.604 226.582H52.2216L69.3596 206.512H69.3691Z" fill="#EBEBEB"/>
<path d="M348.033 90.6389H366.244C366.197 90.2345 366.168 89.8213 366.168 89.4081C366.168 83.2804 371.536 78.3133 378.157 78.3133C378.3 78.3133 378.452 78.3309 378.594 78.3309C380.095 74.6033 383.971 71.9395 388.522 71.9395C394.383 71.9395 399.133 76.3352 399.133 81.7595C399.133 81.7595 399.133 81.7771 399.133 81.7859C404.33 82.0145 408.491 85.8475 408.757 90.6477H409.241C412.177 90.6477 414.571 92.8719 414.571 95.5797C414.571 98.2875 412.167 100.512 409.241 100.512H348.033C345.097 100.512 342.703 98.2875 342.703 95.5797C342.703 92.8719 345.107 90.6477 348.033 90.6477V90.6389Z" fill="#F5F5F5"/>
<path d="M190.342 9.66182C194.266 3.86825 201.21 0 209.152 0C217.094 0 224.267 4.00012 228.152 9.95194C229.169 9.6882 230.242 9.53874 231.354 9.53874C237.918 9.53874 243.248 14.4707 243.248 20.5456C243.248 20.5456 243.248 20.5544 243.248 20.5632H249.518C252.786 20.5632 255.455 23.0336 255.455 26.0579C255.455 29.0822 252.786 31.5526 249.518 31.5526H227.877C223.934 37.2846 217.028 41.0913 209.152 41.0913C202.939 41.0913 197.325 38.7176 193.297 34.9109C192.926 34.9373 192.546 34.9636 192.166 34.9636C184.576 34.9636 178.429 29.2668 178.429 22.2512C178.429 15.7983 183.626 10.4882 190.352 9.66182H190.342Z" fill="#F5F5F5"/>
<path d="M237.5 263.992C339.228 263.992 421.695 259.536 421.695 254.04C421.695 248.544 339.228 244.088 237.5 244.088C135.771 244.088 53.3043 248.544 53.3043 254.04C53.3043 259.536 135.771 263.992 237.5 263.992Z" fill="#F5F5F5"/>
<path d="M255.759 228.444C255.759 228.444 271.576 215.555 266.845 213.384C262.105 211.204 256.338 223.116 255.759 221.323C255.179 219.529 258.856 203.168 250.068 204.302C241.29 205.436 250.068 221.323 250.068 221.323C250.068 221.323 243.561 214.808 241.29 215.828C239.02 216.848 248.216 228.444 248.216 228.444H255.759Z" fill="#407BFF"/>
<path d="M81.1871 222.976C81.1871 222.976 94.6106 212.048 90.5921 210.193C86.5736 208.347 81.6811 218.448 81.1871 216.927C80.6931 215.406 83.809 201.525 76.361 202.483C68.913 203.45 76.361 216.927 76.361 216.927C76.361 216.927 70.8416 211.397 68.9131 212.268C66.9846 213.138 74.7841 222.967 74.7841 222.967H81.1871V222.976Z" fill="#407BFF"/>
<path d="M286.425 224.723C286.425 224.723 276.099 206.068 278.692 204.248C281.286 202.419 286.416 219.826 286.425 218.472C286.425 217.118 286.14 193.399 290.909 194.34C295.678 195.28 290.909 217.118 290.909 217.118C290.909 217.118 297.331 205.962 299.849 206.806C302.366 207.65 292.429 220.916 292.429 220.916C292.429 220.916 298.357 217.593 299.849 217.857C301.34 218.112 292.429 224.723 292.429 224.723H286.425Z" fill="#407BFF"/>
<path d="M105.308 17.4603C122.75 15.9306 123.69 28.5991 132.421 28.1859C141.142 27.7727 150.195 26.9111 153.577 35.9136C156.959 44.916 151.459 46.6655 156.646 54.402C161.842 62.1473 166.136 67.2375 160.522 74.174C154.898 81.1105 149.606 80.0467 146.139 88.8382C142.671 97.6296 130.853 101.762 123.168 97.19C115.482 92.6097 112.262 90.5701 106.638 94.4032C101.014 98.245 99.6931 103.555 89.7751 103.036C79.8571 102.526 81.0731 97.7087 72.6941 92.6185C64.3151 87.5282 59.7741 87.792 55.2806 78.939C50.7871 70.086 52.9341 62.5781 61.2751 56.3889C69.6161 50.1997 64.2106 38.8763 69.0651 32.1508C73.9196 25.4165 80.5316 28.7837 88.4641 27.254C96.3966 25.7242 95.0761 18.3482 105.327 17.4427L105.308 17.4603Z" fill="#407BFF"/>
<path opacity="0.7" d="M105.308 17.4603C122.75 15.9306 123.69 28.5991 132.421 28.1859C141.142 27.7727 150.195 26.9111 153.577 35.9136C156.959 44.916 151.459 46.6655 156.646 54.402C161.842 62.1473 166.136 67.2375 160.522 74.174C154.898 81.1105 149.606 80.0467 146.139 88.8382C142.671 97.6296 130.853 101.762 123.168 97.19C115.482 92.6097 112.262 90.5701 106.638 94.4032C101.014 98.245 99.6931 103.555 89.7751 103.036C79.8571 102.526 81.0731 97.7087 72.6941 92.6185C64.3151 87.5282 59.7741 87.792 55.2806 78.939C50.7871 70.086 52.9341 62.5781 61.2751 56.3889C69.6161 50.1997 64.2106 38.8763 69.0651 32.1508C73.9196 25.4165 80.5316 28.7837 88.4641 27.254C96.3966 25.7242 95.0761 18.3482 105.327 17.4427L105.308 17.4603Z" fill="#FAFAFA"/>
<path d="M106.096 113.393C106.096 103.494 74.6702 71.4486 74.6702 71.4486L76.0667 68.4244L92.3687 84.5743L88.3692 57.5757L91.0102 55.2899L97.3087 87.326C97.3087 87.326 106.619 96.223 108.661 100.548C108.661 100.548 113.449 87.8183 126.208 73.1717L124.004 54.0503L126.208 52.1777L130.34 70.886L145.702 57.5669L148.124 60.4769C148.124 60.4769 133.789 73.6992 126.217 81.2511C118.646 88.803 118.313 97.1021 118.313 106.491V231.655H106.096V113.384V113.393Z" fill="#407BFF"/>
<path opacity="0.8" d="M106.096 113.393C106.096 103.494 74.6702 71.4486 74.6702 71.4486L76.0667 68.4244L92.3687 84.5743L88.3692 57.5757L91.0102 55.2899L97.3087 87.326C97.3087 87.326 106.619 96.223 108.661 100.548C108.661 100.548 113.449 87.8183 126.208 73.1717L124.004 54.0503L126.208 52.1777L130.34 70.886L145.702 57.5669L148.124 60.4769C148.124 60.4769 133.789 73.6992 126.217 81.2511C118.646 88.803 118.313 97.1021 118.313 106.491V231.655H106.096V113.384V113.393Z" fill="white"/>
<path d="M92.8911 231.663C92.7581 230.186 92.9766 228.26 94.8481 227.689C98.0116 226.722 99.8926 224.454 99.7881 221.887C99.6836 219.32 103.018 216.823 105.517 219.232C108.015 221.641 107.683 217.385 111.017 216.348C114.352 215.311 117.173 217.825 116.261 220.12C115.349 222.414 118.636 223.847 122.579 221.895C126.521 219.944 130.853 223.496 130.017 226.265C129.181 229.043 129.865 229.351 132.354 228.428C134.368 227.68 137.665 229.245 138.026 231.672H92.8911V231.663Z" fill="#407BFF"/>
<path opacity="0.6" d="M92.8911 231.663C92.7581 230.186 92.9766 228.26 94.8481 227.689C98.0116 226.722 99.8926 224.454 99.7881 221.887C99.6836 219.32 103.018 216.823 105.517 219.232C108.015 221.641 107.683 217.385 111.017 216.348C114.352 215.311 117.173 217.825 116.261 220.12C115.349 222.414 118.636 223.847 122.579 221.895C126.521 219.944 130.853 223.496 130.017 226.265C129.181 229.043 129.865 229.351 132.354 228.428C134.368 227.68 137.665 229.245 138.026 231.672H92.8911V231.663Z" fill="#FAFAFA"/>
<path d="M223.934 126.988L220.875 135.164L206.292 139.279L215.251 221.575H183.103C183.882 213.47 187.52 175.192 188.261 163.974L173.47 137.96H176.424L177.042 138.857C179.341 142.215 182.096 145.301 185.316 147.921C186.637 148.993 188.005 149.96 189.202 150.523C190.589 146.901 193.049 98.9082 193.049 98.9082C193.049 98.9082 196.089 105.757 205.599 101.642L206.463 132.298L215.935 130.505L225.159 113.651H228.855L225.539 120.922L233.291 119.366L239.932 111.471L242.259 111.99L236.246 120.535L223.934 126.979V126.988Z" fill="#407BFF"/>
<g opacity="0.8">
<path d="M223.934 126.988L220.875 135.164L206.292 139.279L215.251 221.575H183.103C183.882 213.47 187.52 175.192 188.261 163.974L173.47 137.96H176.424L177.042 138.857C179.341 142.215 182.096 145.301 185.316 147.921C186.637 148.993 188.005 149.96 189.202 150.523C190.589 146.901 193.049 98.9082 193.049 98.9082C193.049 98.9082 196.089 105.757 205.599 101.642L206.463 132.298L215.935 130.505L225.159 113.651H228.855L225.539 120.922L233.291 119.366L239.932 111.471L242.259 111.99L236.246 120.535L223.934 126.979V126.988Z" fill="white"/>
</g>
<path d="M151.705 82.7504C146.965 84.3152 143.706 88.9571 143.849 93.6078C144.001 98.2673 147.411 102.637 152.057 104.43C156.702 106.224 162.326 105.459 166.364 102.689C166.573 107.155 169.869 112.026 174.486 113.371C179.094 114.725 184.528 113.142 187.482 109.599C199.899 116.817 243.39 119.499 251.028 88.7461C252.605 82.3987 248.786 75.6644 243.181 71.7171C237.576 67.7697 230.46 66.1521 223.468 65.3608C216.837 55.5935 202.131 50.2483 189.772 51.7868C177.412 53.3253 166.421 61.9761 162.811 73.0182C150.214 73.0446 151.525 83.524 151.705 82.7416V82.7504Z" fill="#407BFF"/>
<path d="M167.048 143.244C168.454 145.17 171.114 146.234 173.593 145.873C176.073 145.513 178.248 143.746 178.951 141.513C181.896 143.429 186.447 142.954 189.42 141.091C192.403 139.227 193.933 135.578 193.106 132.334C192.28 129.09 189.135 126.47 185.573 126.04C185.202 122.875 183.483 120.211 180.566 118.523C177.64 116.835 173.878 116.466 170.639 117.556C166.801 116.905 162.877 118.18 160.075 120.694C158.08 122.488 156.75 125.029 156.987 127.587C157.215 130.145 159.239 132.607 161.965 133.099C161.053 135.016 160.797 137.17 161.68 139.095C162.564 141.02 164.939 142.524 167.057 143.253L167.048 143.244Z" fill="#407BFF"/>
<g opacity="0.6">
<path d="M151.705 82.7504C146.965 84.3152 143.706 88.9571 143.849 93.6078C144.001 98.2673 147.411 102.637 152.057 104.43C156.702 106.224 162.326 105.459 166.364 102.689C166.573 107.155 169.869 112.026 174.486 113.371C179.094 114.725 184.528 113.142 187.482 109.599C199.899 116.817 243.39 119.499 251.028 88.7461C252.605 82.3987 248.786 75.6644 243.181 71.7171C237.576 67.7697 230.46 66.1521 223.468 65.3608C216.837 55.5935 202.131 50.2483 189.772 51.7868C177.412 53.3253 166.421 61.9761 162.811 73.0182C150.214 73.0446 151.525 83.524 151.705 82.7416V82.7504Z" fill="#FAFAFA"/>
</g>
<path opacity="0.7" d="M167.048 143.244C168.454 145.17 171.114 146.234 173.593 145.873C176.073 145.513 178.248 143.746 178.951 141.513C181.896 143.429 186.447 142.954 189.42 141.091C192.403 139.227 193.933 135.578 193.106 132.334C192.28 129.09 189.135 126.47 185.573 126.04C185.202 122.875 183.483 120.211 180.566 118.523C177.64 116.835 173.878 116.466 170.639 117.556C166.801 116.905 162.877 118.18 160.075 120.694C158.08 122.488 156.75 125.029 156.987 127.587C157.215 130.145 159.239 132.607 161.965 133.099C161.053 135.016 160.797 137.17 161.68 139.095C162.564 141.02 164.939 142.524 167.057 143.253L167.048 143.244Z" fill="#FAFAFA"/>
<path d="M229.653 96.7463C227.278 95.9903 224.466 96.6144 222.718 98.276C220.97 99.9376 220.381 102.566 221.264 104.738C217.664 104.843 214.339 107.744 213.17 110.892C212.002 114.039 213.132 117.811 215.906 119.938C218.671 122.066 222.879 122.417 226.014 120.782C228.37 123.112 231.467 124.281 234.897 124.009C238.326 123.736 241.585 121.934 243.466 119.27C246.952 117.661 249.27 114.461 249.878 110.892C250.315 108.351 249.726 105.582 247.874 103.665C246.021 101.749 242.81 100.905 240.321 102.03C239.808 99.9904 238.611 98.1266 236.664 97.0804C234.707 96.0254 231.828 96.1485 229.662 96.7463H229.653Z" fill="#407BFF"/>
<path opacity="0.7" d="M229.653 96.7463C227.278 95.9903 224.466 96.6144 222.718 98.276C220.97 99.9376 220.381 102.566 221.264 104.738C217.664 104.843 214.339 107.744 213.17 110.892C212.002 114.039 213.132 117.811 215.906 119.938C218.671 122.066 222.879 122.417 226.014 120.782C228.37 123.112 231.467 124.281 234.897 124.009C238.326 123.736 241.585 121.934 243.466 119.27C246.952 117.661 249.27 114.461 249.878 110.892C250.315 108.351 249.726 105.582 247.874 103.665C246.021 101.749 242.81 100.905 240.321 102.03C239.808 99.9904 238.611 98.1266 236.664 97.0804C234.707 96.0254 231.828 96.1485 229.662 96.7463H229.653Z" fill="#FAFAFA"/>
<path d="M231.942 224.934C235.391 222.771 232.284 219.096 228.845 218.665C225.397 218.235 221.939 214.428 221.777 212.01C221.616 209.593 215.412 202.137 205.77 206.735C196.127 211.333 199.053 207.412 192.08 206.12C185.107 204.828 180.699 208.546 183.768 211.333C183.768 211.333 176.757 210.234 173.869 214.34C170.981 218.446 173.869 220.995 173.869 220.995C173.869 220.995 160.683 220.749 161.87 225.866C163.058 230.982 231.952 224.925 231.952 224.925L231.942 224.934Z" fill="#407BFF"/>
<path opacity="0.6" d="M231.942 224.934C235.391 222.771 232.284 219.096 228.845 218.665C225.397 218.235 221.939 214.428 221.777 212.01C221.616 209.593 215.412 202.137 205.77 206.735C196.127 211.333 199.053 207.412 192.08 206.12C185.107 204.828 180.699 208.546 183.768 211.333C183.768 211.333 176.757 210.234 173.869 214.34C170.981 218.446 173.869 220.995 173.869 220.995C173.869 220.995 160.683 220.749 161.87 225.866C163.058 230.982 231.952 224.925 231.952 224.925L231.942 224.934Z" fill="#FAFAFA"/>
<path opacity="0.6" d="M255.759 228.444C255.759 228.444 271.576 215.555 266.845 213.384C262.105 211.204 256.338 223.116 255.759 221.323C255.179 219.529 258.856 203.168 250.068 204.302C241.29 205.436 250.068 221.323 250.068 221.323C250.068 221.323 243.561 214.808 241.29 215.828C239.02 216.848 248.216 228.444 248.216 228.444H255.759Z" fill="#FAFAFA"/>
<path opacity="0.6" d="M81.1871 222.976C81.1871 222.976 94.6106 212.048 90.5921 210.193C86.5736 208.347 81.6811 218.448 81.1871 216.927C80.6931 215.406 83.809 201.525 76.361 202.483C68.913 203.45 76.361 216.927 76.361 216.927C76.361 216.927 70.8416 211.397 68.9131 212.268C66.9846 213.138 74.7841 222.967 74.7841 222.967H81.1871V222.976Z" fill="#FAFAFA"/>
<path opacity="0.6" d="M286.425 224.723C286.425 224.723 276.099 206.068 278.692 204.248C281.286 202.419 286.416 219.826 286.425 218.472C286.425 217.118 286.14 193.399 290.909 194.34C295.678 195.28 290.909 217.118 290.909 217.118C290.909 217.118 297.331 205.962 299.849 206.806C302.366 207.65 292.429 220.916 292.429 220.916C292.429 220.916 298.357 217.593 299.849 217.857C301.34 218.112 292.429 224.723 292.429 224.723H286.425Z" fill="#FAFAFA"/>
<path d="M421.715 222.508H57.0761C50.6826 222.508 45.4956 227.308 45.4956 233.225C45.4956 235.607 47.5856 237.541 50.1601 237.541H428.631C431.205 237.541 433.295 235.607 433.295 233.225C433.295 227.308 428.108 222.508 421.715 222.508Z" fill="#407BFF"/>
<path opacity="0.4" d="M421.715 222.508H57.0761C50.6826 222.508 45.4956 227.308 45.4956 233.225C45.4956 235.607 47.5856 237.541 50.1601 237.541H428.631C431.205 237.541 433.295 235.607 433.295 233.225C433.295 227.308 428.108 222.508 421.715 222.508Z" fill="#FAFAFA"/>
<path d="M357.742 115.553H364.145C365.74 115.553 367.032 114.357 367.032 112.881V101.974C367.032 100.498 365.74 99.3022 364.145 99.3022H357.742C356.148 99.3022 354.856 100.498 354.856 101.974V112.881C354.856 114.357 356.148 115.553 357.742 115.553Z" fill="#263238"/>
<path opacity="0.4" d="M357.742 115.553H364.145C365.74 115.553 367.032 114.357 367.032 112.881V101.974C367.032 100.498 365.74 99.3022 364.145 99.3022H357.742C356.148 99.3022 354.856 100.498 354.856 101.974V112.881C354.856 114.357 356.148 115.553 357.742 115.553Z" fill="white"/>
<path d="M355.302 106.593C354.638 107.197 353.424 108.194 352.187 108.65C351.511 108.893 351.041 109.466 350.995 110.134L350.686 114.13C350.606 115.126 351.465 115.975 352.542 115.975H355.383C355.68 115.975 355.978 115.911 356.242 115.784L359.197 114.363C359.816 114.066 360.205 113.483 360.205 112.837V107.823C360.205 106.869 359.369 106.105 358.349 106.105H356.631C356.139 106.105 355.669 106.286 355.325 106.604L355.302 106.593Z" fill="#263238"/>
<path opacity="0.3" d="M355.302 106.593C354.638 107.197 353.424 108.194 352.187 108.65C351.511 108.893 351.041 109.466 350.995 110.134L350.686 114.13C350.606 115.126 351.465 115.975 352.542 115.975H355.383C355.68 115.975 355.978 115.911 356.242 115.784L359.197 114.363C359.816 114.066 360.205 113.483 360.205 112.837V107.823C360.205 106.869 359.369 106.105 358.349 106.105H356.631C356.139 106.105 355.669 106.286 355.325 106.604L355.302 106.593Z" fill="white"/>
<path d="M127.089 133.511L144.328 76.6606C145.348 73.3109 148.635 71 152.393 71H213.263" stroke="#263238" stroke-width="6.86239" stroke-linecap="round" stroke-linejoin="round"/>
<path d="M141.408 86.2969H126.917C123.859 86.2969 120.938 87.5265 118.933 89.6572L80.1818 130.808" stroke="#263238" stroke-width="6.86239" stroke-linecap="round" stroke-linejoin="round"/>
<path d="M380.469 183.395H394.432C409.953 183.395 422.531 199.486 422.531 219.33C422.531 239.174 409.953 255.266 394.432 255.266H380.469C364.947 255.266 352.37 239.174 352.37 219.33C352.37 199.486 364.947 183.395 380.469 183.395Z" fill="black"/>
<path d="M185.726 183.395H199.689C215.211 183.395 227.788 199.486 227.788 219.33C227.788 239.174 215.211 255.266 199.689 255.266H185.726C170.205 255.266 157.627 239.174 157.627 219.33C157.627 199.486 170.205 183.395 185.726 183.395Z" fill="black"/>
<path d="M40.7657 203.196H55.13L69.1049 218.917H134.031C134.031 218.917 138.108 226.093 148.2 226.093C158.292 226.093 160.514 219.881 160.514 219.881H198.177L202.771 226.093H269.815L280.182 219.341H336.036C336.036 219.341 338.934 226.093 349.277 226.093C359.621 226.093 364.191 218.917 364.191 218.917H379.69C386.666 218.917 392.943 214.994 395.543 209.005L413.035 168.787H40.7657V203.196Z" fill="#263238"/>
<path d="M271.477 183.393H285.44C300.961 183.393 313.538 199.484 313.538 219.328C313.538 239.172 300.961 255.264 285.44 255.264H271.477C255.955 255.264 243.378 239.172 243.378 219.328C243.378 199.484 255.955 183.393 271.477 183.393Z" fill="black"/>
<path opacity="0.2" d="M267.078 185.938C280.045 185.938 290.56 200.884 290.56 219.329C290.56 237.774 280.045 252.72 267.078 252.72C254.111 252.72 243.596 237.774 243.596 219.329C243.596 200.884 254.111 185.938 267.078 185.938Z" fill="white"/>
<path opacity="0.2" d="M265.05 201.285C272.061 201.285 277.742 209.363 277.742 219.327C277.742 229.292 272.061 237.369 265.05 237.369C258.04 237.369 252.358 229.292 252.358 219.327C252.358 209.363 258.04 201.285 265.05 201.285Z" fill="white"/>
<path opacity="0.7" d="M269.827 210.307C273.332 210.307 276.173 214.345 276.173 219.328C276.173 224.31 273.332 228.349 269.827 228.349C266.322 228.349 263.481 224.31 263.481 219.328C263.481 214.345 266.322 210.307 269.827 210.307Z" fill="white"/>
<path d="M76.7337 183.393H90.6971C106.218 183.393 118.796 199.484 118.796 219.328C118.796 239.172 106.218 255.264 90.6971 255.264H76.7337C61.2125 255.264 48.6351 239.172 48.6351 219.328C48.6351 199.484 61.2125 183.393 76.7337 183.393Z" fill="black"/>
<path opacity="0.2" d="M72.3351 185.938C85.3019 185.938 95.8174 200.884 95.8174 219.329C95.8174 237.774 85.3019 252.72 72.3351 252.72C59.3683 252.72 48.8528 237.774 48.8528 219.329C48.8528 200.884 59.3683 185.938 72.3351 185.938Z" fill="white"/>
<path opacity="0.2" d="M70.3076 201.285C77.3179 201.285 82.9995 209.363 82.9995 219.327C82.9995 229.292 77.3179 237.369 70.3076 237.369C63.2973 237.369 57.6157 229.292 57.6157 219.327C57.6157 209.363 63.2973 201.285 70.3076 201.285Z" fill="white"/>
<path opacity="0.7" d="M75.153 210.307C78.4978 210.307 81.2011 214.155 81.2011 218.914C81.2011 223.674 78.4978 227.522 75.153 227.522C71.8082 227.522 69.1049 223.674 69.1049 218.914C69.1049 214.155 71.8082 210.307 75.153 210.307Z" fill="white"/>
<path d="M434.306 143.399V209.153H306.299L297.33 185.726C296.081 182.44 293.641 179.758 290.549 178.03C288.132 176.674 285.302 175.91 282.324 175.91H262.908C255.749 175.91 249.472 180.331 247.57 186.712L240.881 209.143H109.953L102.095 186.193C99.9983 180.076 93.87 175.91 86.9284 175.91H68.1197C64.1334 175.91 60.4335 177.278 57.5927 179.589C55.2559 181.507 53.5034 184.062 52.6901 187.02L46.6305 209.143H33.8011V125.23C33.8011 122.537 36.1494 120.364 39.0589 120.364H142.713C142.713 120.364 146.711 96.301 155.921 75.0895C156.78 73.1284 158.612 71.6549 160.846 71.1991C166.654 70.0013 180.926 68.125 213.275 68.125C301.591 68.125 319.678 73.1602 319.678 73.1602C345.543 90.3117 369.266 117.629 369.266 117.629C371.373 117.99 373.401 118.361 375.383 118.753C389.449 121.435 400.469 124.424 408.979 127.275C418.808 130.551 425.291 133.636 429.232 135.819C429.438 135.936 429.644 136.053 429.839 136.159C429.907 136.201 429.976 136.243 430.045 136.275C432.691 137.802 434.295 140.484 434.295 143.378L434.306 143.399Z" fill="#407BFF"/>
<path d="M442.382 173.536V208.888C442.382 212.768 438.968 215.927 434.764 215.927H314.329C310.125 215.927 307.525 212.736 306.299 209.153L297.33 185.726C296.081 182.44 293.642 179.758 290.549 178.03C290.549 174.15 309.025 166.486 313.229 166.486H343.985L348.785 176.143C350.137 178.857 353.092 180.606 356.311 180.606H409.026C412.909 180.606 416.196 177.808 416.517 174.225L417.227 166.486H434.742C438.945 166.486 442.359 169.645 442.359 173.536H442.382Z" fill="#263238"/>
<path d="M363.413 118.245H352.175L329.621 115.552H290.56L278.006 118.245H244.73C244.73 118.245 239.621 90.3339 230.686 73.564C230.686 73.564 282.198 71.9633 319.3 76.8077C319.3 76.8077 337.891 87.3976 363.424 118.245H363.413Z" fill="#263238"/>
<path d="M234.054 118.245H181.625C180.09 118.245 178.636 117.651 177.605 116.602L173.893 112.818C172.874 111.768 171.408 111.175 169.884 111.175H149.059C152.335 93.3552 157.467 83.2 159.735 76.8079C160.4 74.921 162.209 73.5854 164.351 73.4264C167.33 73.225 170.319 73.0554 173.286 72.9176C174.512 72.8646 175.749 72.8116 176.963 72.7798C201.453 71.9211 223.607 73.2992 223.607 73.2992C226.62 78.3026 230.045 95.1891 232.129 106.786C233.298 113.369 234.042 118.224 234.042 118.224L234.054 118.245Z" fill="#263238"/>
<path opacity="0.2" d="M442.382 173.536V208.888C442.382 212.768 438.968 215.927 434.764 215.927H314.329C310.125 215.927 307.525 212.736 306.299 209.153L297.33 185.726C296.081 182.44 293.642 179.758 290.549 178.03C290.549 174.15 309.025 166.486 313.229 166.486H343.985L348.785 176.143C350.137 178.857 353.092 180.606 356.311 180.606H409.026C412.909 180.606 416.196 177.808 416.517 174.225L417.227 166.486H434.742C438.945 166.486 442.359 169.645 442.359 173.536H442.382Z" fill="white"/>
<path d="M317.273 167.418L308.109 167.503C306.711 167.503 305.589 166.453 305.589 165.171V147.934C305.589 145.878 307.399 144.203 309.621 144.203H319.426C317.204 144.203 315.394 145.878 315.394 147.934V165.171C315.394 166.241 316.184 167.153 317.273 167.418Z" fill="#407BFF"/>
<path d="M315.394 165.161V147.925C315.394 145.868 317.192 144.193 319.426 144.193H330.446C332.038 144.193 333.481 145.063 334.123 146.409L342.966 164.589C343.573 165.861 342.576 167.292 341.064 167.292L317.914 167.493C316.528 167.493 315.394 166.454 315.394 165.161Z" fill="#407BFF"/>
<path d="M431.042 144.204H422.141C420.515 144.204 419.163 145.349 419.014 146.843L417.227 165.044C417.113 166.253 418.132 167.292 419.449 167.292H433.733V147.904C433.733 146.759 433.149 145.667 432.153 144.978L431.03 144.193L431.042 144.204Z" fill="#407BFF"/>
<path opacity="0.7" d="M315.394 165.161V147.925C315.394 145.868 317.192 144.193 319.426 144.193H330.446C332.038 144.193 333.481 145.063 334.123 146.409L342.966 164.589C343.573 165.861 342.576 167.292 341.064 167.292L317.914 167.493C316.528 167.493 315.394 166.454 315.394 165.161Z" fill="white"/>
<path opacity="0.7" d="M431.042 144.204H422.141C420.515 144.204 419.163 145.349 419.014 146.843L417.227 165.044C417.113 166.253 418.132 167.292 419.449 167.292H433.733V147.904C433.733 146.759 433.149 145.667 432.153 144.978L431.03 144.193L431.042 144.204Z" fill="white"/>
<path d="M337.158 158.512C337.158 161.968 334.707 164.766 331.694 164.766C328.682 164.766 326.23 161.968 326.23 158.512C326.23 155.056 328.682 152.258 331.694 152.258C334.707 152.258 337.158 155.056 337.158 158.512Z" fill="white"/>
<path d="M322.29 154.666C324.074 154.666 325.52 153.057 325.52 151.072C325.52 149.087 324.074 147.479 322.29 147.479C320.506 147.479 319.059 149.087 319.059 151.072C319.059 153.057 320.506 154.666 322.29 154.666Z" fill="white"/>
<path d="M424.34 164.766C427.358 164.766 429.804 161.966 429.804 158.512C429.804 155.058 427.358 152.258 424.34 152.258C421.323 152.258 418.876 155.058 418.876 158.512C418.876 161.966 421.323 164.766 424.34 164.766Z" fill="white"/>
<path d="M433.424 151.072C433.424 153.054 431.981 154.666 430.194 154.666C428.407 154.666 426.964 153.054 426.964 151.072C426.964 149.09 428.407 147.479 430.194 147.479C431.981 147.479 433.424 149.09 433.424 151.072Z" fill="white"/>
<path opacity="0.2" d="M317.273 167.418L308.109 167.503C306.711 167.503 305.589 166.453 305.589 165.171V147.934C305.589 145.878 307.399 144.203 309.621 144.203H319.426C317.204 144.203 315.394 145.878 315.394 147.934V165.171C315.394 166.241 316.184 167.153 317.273 167.418Z" fill="white"/>
<path d="M437.009 147.913V167.302H433.745V147.913C433.745 146.768 433.161 145.687 432.164 144.988L431.042 144.203H434.306L435.429 144.988C436.425 145.687 437.009 146.758 437.009 147.913Z" fill="#407BFF"/>
<path opacity="0.2" d="M437.009 147.913V167.302H433.745V147.913C433.745 146.768 433.161 145.687 432.164 144.988L431.042 144.203H434.306L435.429 144.988C436.425 145.687 437.009 146.758 437.009 147.913Z" fill="white"/>
<path opacity="0.4" d="M309.621 144.203H319.426C317.204 144.203 315.394 145.878 315.394 147.934V155.758H305.589V147.934C305.589 145.878 307.399 144.203 309.621 144.203Z" fill="black"/>
<path opacity="0.4" d="M437.009 147.913V155.758H433.745V147.913C433.745 146.768 433.161 145.687 432.164 144.988L431.042 144.203H434.306L435.429 144.988C436.425 145.687 437.009 146.758 437.009 147.913Z" fill="black"/>
<path opacity="0.4" d="M414.753 145.86L412.198 173.898C412.061 175.414 410.686 176.58 409.037 176.58H356.322C354.787 176.58 353.39 175.753 352.748 174.46L338.338 145.499C338.281 145.393 338.246 145.277 338.235 145.171C338.155 144.556 338.67 143.973 339.392 143.973H412.874C413.974 143.973 414.833 144.852 414.753 145.86Z" fill="black"/>
<path d="M411.958 147.058L409.403 175.096C409.358 175.647 409.14 176.167 408.808 176.591H356.333C354.799 176.591 353.401 175.764 352.76 174.471L338.349 145.51C338.292 145.404 338.258 145.288 338.246 145.182H410.079C411.179 145.182 412.038 146.051 411.958 147.069V147.058Z" fill="#263238"/>
<path opacity="0.2" d="M411.958 147.059L410.881 158.899L410.698 160.871L409.404 175.086C409.358 175.638 409.14 176.157 408.808 176.581H356.334C354.799 176.581 353.401 175.754 352.76 174.461L345.99 160.871L345.005 158.899L338.338 145.5C338.281 145.394 338.247 145.278 338.235 145.172H410.068C411.168 145.172 412.027 146.041 411.947 147.059H411.958Z" fill="white"/>
<path d="M348.132 146.59L349.426 145.17H343.057L344.352 146.59H348.132Z" fill="#263238"/>
<path d="M361.167 146.59L362.462 145.17H356.093L357.387 146.59H361.167Z" fill="#263238"/>
<path d="M374.203 146.59L375.497 145.17H369.128L370.423 146.59H374.203Z" fill="#263238"/>
<path d="M387.238 146.59L388.533 145.17H382.164L383.458 146.59H387.238Z" fill="#263238"/>
<path d="M400.285 146.59L401.568 145.17H395.211L396.494 146.59H400.285Z" fill="#263238"/>
<path d="M411.923 146.59C411.763 145.785 411.007 145.17 410.079 145.17H408.235L409.529 146.59H411.912H411.923Z" fill="#263238"/>
<path d="M343.504 147.099L341.752 145.17H338.258C338.258 145.276 338.304 145.393 338.361 145.499L340.182 149.166H341.626L343.516 147.089L343.504 147.099Z" fill="#263238"/>
<path d="M350.87 149.166H354.65L356.54 147.099L354.776 145.17H350.732L348.979 147.099L350.87 149.166Z" fill="#263238"/>
<path d="M363.905 149.166H367.685L369.575 147.099L367.823 145.17H363.768L362.015 147.099L363.905 149.166Z" fill="#263238"/>
<path d="M376.941 149.166H380.721L382.611 147.099L380.858 145.17H376.815L375.051 147.099L376.941 149.166Z" fill="#263238"/>
<path d="M389.976 149.166H393.756L395.646 147.099L393.894 145.17H389.85L388.086 147.099L389.976 149.166Z" fill="#263238"/>
<path d="M403.023 149.166H406.803L408.693 147.099L406.929 145.17H402.886L401.133 147.099L403.023 149.166Z" fill="#263238"/>
<path d="M348.132 147.609H344.352L342.462 149.687L344.352 151.754H348.132L350.022 149.687L348.132 147.609Z" fill="#263238"/>
<path d="M361.168 151.754L363.058 149.687L361.168 147.609H357.388L355.497 149.687L357.388 151.754H361.168Z" fill="#263238"/>
<path d="M374.203 151.754L376.093 149.687L374.203 147.609H370.423L368.533 149.687L370.423 151.754H374.203Z" fill="#263238"/>
<path d="M387.239 151.754L389.129 149.687L387.239 147.609H383.459L381.568 149.687L383.459 151.754H387.239Z" fill="#263238"/>
<path d="M400.285 151.754L402.175 149.687L400.285 147.609H396.494L394.604 149.687L396.494 151.754H400.285Z" fill="#263238"/>
<path d="M407.651 149.687L409.541 151.754H411.523L411.912 147.609H409.541L407.651 149.687Z" fill="#263238"/>
<path d="M341.614 150.193H340.675L342.336 153.532L343.504 152.26L341.614 150.193Z" fill="#263238"/>
<path d="M354.65 154.338L356.54 152.26L354.65 150.193H350.87L348.979 152.26L350.87 154.338H354.65Z" fill="#263238"/>
<path d="M363.905 154.338H367.685L369.575 152.26L367.685 150.193H363.905L362.015 152.26L363.905 154.338Z" fill="#263238"/>
<path d="M376.941 154.338H380.721L382.611 152.26L380.721 150.193H376.941L375.051 152.26L376.941 154.338Z" fill="#263238"/>
<path d="M389.976 154.338H393.756L395.646 152.26L393.756 150.193H389.976L388.086 152.26L389.976 154.338Z" fill="#263238"/>
<path d="M403.023 154.338H406.803L408.693 152.26L406.803 150.193H403.023L401.133 152.26L403.023 154.338Z" fill="#263238"/>
<path d="M348.132 156.916L350.022 154.849L348.132 152.771H344.352L342.805 154.468L343.642 156.142L344.352 156.916H348.132Z" fill="#263238"/>
<path d="M357.388 152.771L355.497 154.849L357.388 156.916H361.168L363.058 154.849L361.168 152.771H357.388Z" fill="#263238"/>
<path d="M370.423 152.771L368.533 154.849L370.423 156.916H374.203L376.093 154.849L374.203 152.771H370.423Z" fill="#263238"/>
<path d="M383.459 152.771L381.568 154.849L383.459 156.916H387.239L389.129 154.849L387.239 152.771H383.459Z" fill="#263238"/>
<path d="M400.285 152.771H396.494L394.604 154.849L396.494 156.916H400.285L402.175 154.849L400.285 152.771Z" fill="#263238"/>
<path d="M407.651 154.849L409.541 156.916H411.053L411.431 152.771H409.541L407.651 154.849Z" fill="#263238"/>
<path d="M354.65 159.5L356.54 157.423L354.65 155.355H350.87L348.979 157.423L350.87 159.5H354.65Z" fill="#263238"/>
<path d="M363.905 155.355L362.015 157.423L363.905 159.5H367.685L369.575 157.423L367.685 155.355H363.905Z" fill="#263238"/>
<path d="M376.941 155.355L375.051 157.423L376.941 159.5H380.721L382.611 157.423L380.721 155.355H376.941Z" fill="#263238"/>
<path d="M389.976 155.355L388.086 157.423L389.976 159.5H393.756L395.646 157.423L393.756 155.355H389.976Z" fill="#263238"/>
<path d="M403.023 155.355L401.133 157.423L403.023 159.5H406.803L408.693 157.423L406.803 155.355H403.023Z" fill="#263238"/>
<path d="M350.022 160.012L348.132 157.945H344.535L346.597 162.09H348.132L350.022 160.012Z" fill="#263238"/>
<path d="M357.388 162.09H361.168L363.058 160.012L361.168 157.945H357.388L355.497 160.012L357.388 162.09Z" fill="#263238"/>
<path d="M370.423 157.945L368.533 160.012L370.423 162.09H374.203L376.093 160.012L374.203 157.945H370.423Z" fill="#263238"/>
<path d="M387.239 162.09L389.129 160.012L387.239 157.945H383.459L381.568 160.012L383.459 162.09H387.239Z" fill="#263238"/>
<path d="M400.285 162.09L402.175 160.012L400.285 157.945H396.494L394.604 160.012L396.494 162.09H400.285Z" fill="#263238"/>
<path d="M407.651 160.012L409.541 162.09H410.583L410.961 157.945H409.541L407.651 160.012Z" fill="#263238"/>
<path d="M354.65 160.521H350.87L348.979 162.599L350.87 164.666H354.65L356.54 162.599L354.65 160.521Z" fill="#263238"/>
<path d="M367.685 164.666L369.575 162.599L367.685 160.521H363.905L362.015 162.599L363.905 164.666H367.685Z" fill="#263238"/>
<path d="M380.721 164.666L382.611 162.599L380.721 160.521H376.941L375.051 162.599L376.941 164.666H380.721Z" fill="#263238"/>
<path d="M393.756 164.666L395.646 162.599L393.756 160.521H389.976L388.086 162.599L389.976 164.666H393.756Z" fill="#263238"/>
<path d="M403.023 160.521L401.133 162.599L403.023 164.666H406.803L408.693 162.599L406.803 160.521H403.023Z" fill="#263238"/>
<path d="M348.132 163.105H347.101L348.796 166.519L350.022 165.173L348.132 163.105Z" fill="#263238"/>
<path d="M361.168 167.25L363.058 165.173L361.168 163.105H357.388L355.497 165.173L357.388 167.25H361.168Z" fill="#263238"/>
<path d="M374.203 167.25L376.093 165.173L374.203 163.105H370.423L368.533 165.173L370.423 167.25H374.203Z" fill="#263238"/>
<path d="M387.239 167.25L389.129 165.173L387.239 163.105H383.459L381.568 165.173L383.459 167.25H387.239Z" fill="#263238"/>
<path d="M400.285 167.25L402.175 165.173L400.285 163.105H396.494L394.604 165.173L396.494 167.25H400.285Z" fill="#263238"/>
<path d="M407.651 165.173L409.541 167.25H410.114L410.492 163.105H409.541L407.651 165.173Z" fill="#263238"/>
<path d="M354.65 169.837L356.54 167.759L354.65 165.682H350.87L349.266 167.441L349.953 168.83L350.87 169.837H354.65Z" fill="#263238"/>
<path d="M363.905 169.837H367.685L369.575 167.759L367.685 165.682H363.905L362.015 167.759L363.905 169.837Z" fill="#263238"/>
<path d="M380.721 169.837L382.611 167.759L380.721 165.682H376.941L375.051 167.759L376.941 169.837H380.721Z" fill="#263238"/>
<path d="M393.756 169.837L395.646 167.759L393.756 165.682H389.976L388.086 167.759L389.976 169.837H393.756Z" fill="#263238"/>
<path d="M403.023 165.682L401.133 167.759L403.023 169.837H406.803L408.693 167.759L406.803 165.682H403.023Z" fill="#263238"/>
<path d="M361.168 168.268H357.388L355.497 170.345L357.388 172.412H361.168L363.058 170.345L361.168 168.268Z" fill="#263238"/>
<path d="M374.203 168.268H370.423L368.533 170.345L370.423 172.412H374.203L376.093 170.345L374.203 168.268Z" fill="#263238"/>
<path d="M387.239 168.268H383.459L381.568 170.345L383.459 172.412H387.239L389.129 170.345L387.239 168.268Z" fill="#263238"/>
<path d="M400.285 168.268H396.494L394.604 170.345L396.494 172.412H400.285L402.175 170.345L400.285 168.268Z" fill="#263238"/>
<path d="M407.651 170.345L409.541 172.412H409.644L410.022 168.268H409.541L407.651 170.345Z" fill="#263238"/>
<path d="M356.54 172.923L354.65 170.846H350.961L352.76 174.46C352.851 174.651 352.966 174.831 353.092 175.001H354.65L356.54 172.923Z" fill="#263238"/>
<path d="M363.905 170.855L362.015 172.923L363.905 175H367.685L369.575 172.923L367.685 170.855H363.905Z" fill="#263238"/>
<path d="M376.941 170.855L375.051 172.923L376.941 175H380.721L382.611 172.923L380.721 170.855H376.941Z" fill="#263238"/>
<path d="M389.976 170.855L388.086 172.923L389.976 175H393.756L395.646 172.923L393.756 170.855H389.976Z" fill="#263238"/>
<path d="M406.803 170.855H403.023L401.133 172.923L403.023 175H406.803L408.693 172.923L406.803 170.855Z" fill="#263238"/>
<path d="M361.168 173.43H357.388L355.497 175.507L356.471 176.578H362.084L363.058 175.507L361.168 173.43Z" fill="#263238"/>
<path d="M374.203 173.43H370.423L368.533 175.507L369.506 176.578H375.119L376.093 175.507L374.203 173.43Z" fill="#263238"/>
<path d="M387.239 173.43H383.459L381.568 175.507L382.542 176.578H388.155L389.129 175.507L387.239 173.43Z" fill="#263238"/>
<path d="M400.285 173.43H396.494L394.604 175.507L395.589 176.578H401.19L402.175 175.507L400.285 173.43Z" fill="#263238"/>
<path d="M409.541 173.43L407.651 175.507L408.625 176.578H408.796C409.129 176.154 409.358 175.645 409.392 175.083L409.541 173.43Z" fill="#263238"/>
<path d="M354.237 176.018C354.455 176.145 354.695 176.251 354.936 176.336L354.65 176.018H354.237Z" fill="#263238"/>
<path d="M363.905 176.018L363.39 176.579H368.201L367.685 176.018H363.905Z" fill="#263238"/>
<path d="M376.941 176.018L376.425 176.579H381.236L380.721 176.018H376.941Z" fill="#263238"/>
<path d="M389.976 176.018L389.472 176.579H394.272L393.756 176.018H389.976Z" fill="#263238"/>
<path d="M403.023 176.018L402.508 176.579H407.307L406.803 176.018H403.023Z" fill="#263238"/>
<path d="M410.881 158.898L410.698 160.881H345.99L345.016 158.898H410.881Z" fill="#263238"/>
<path opacity="0.2" d="M410.881 158.898L410.698 160.881H345.99L345.016 158.898H410.881Z" fill="white"/>
<path d="M400.457 156.514H358.098L354.913 160.012L358.098 163.51H400.457L403.653 160.012L400.457 156.514Z" fill="#263238"/>
<path opacity="0.2" d="M400.457 156.514H358.098L354.913 160.012L358.098 163.51H400.457L403.653 160.012L400.457 156.514Z" fill="white"/>
<path opacity="0.2" d="M406.219 192.246H360.927V211.942H406.219V192.246Z" fill="white"/>
<path d="M338.086 206.62H327.628C325.795 206.62 324.306 205.242 324.306 203.546V184.932C324.306 183.236 325.795 181.857 327.628 181.857H338.567C339.85 181.857 341.03 182.546 341.568 183.628L344.524 189.447C344.844 190.083 344.925 190.815 344.741 191.504L341.293 204.299C340.927 205.666 339.598 206.631 338.075 206.631L338.086 206.62Z" fill="#263238"/>
<path opacity="0.4" d="M337.158 193.399C337.158 196.59 334.901 199.166 332.118 199.166C329.334 199.166 327.078 196.58 327.078 193.399C327.078 190.219 329.334 187.633 332.118 187.633C334.901 187.633 337.158 190.219 337.158 193.399Z" fill="white"/>
<path d="M423.71 206.62H434.169C436.001 206.62 437.491 205.242 437.491 203.546V184.932C437.491 183.236 436.001 181.857 434.169 181.857H423.229C421.946 181.857 420.767 182.546 420.228 183.628L417.273 189.447C416.952 190.083 416.872 190.815 417.055 191.504L420.503 204.299C420.87 205.666 422.198 206.631 423.722 206.631L423.71 206.62Z" fill="#263238"/>
<path opacity="0.4" d="M429.804 193.399C429.804 196.59 427.548 199.166 424.764 199.166C421.981 199.166 419.724 196.58 419.724 193.399C419.724 190.219 421.981 187.633 424.764 187.633C427.548 187.633 429.804 190.219 429.804 193.399Z" fill="white"/>
<path d="M57.6042 179.589C55.2675 181.508 53.5149 184.062 52.7016 187.02L46.642 209.143H46.4702C45.6684 210.765 43.8929 211.888 41.831 211.888H32.2777C29.4484 211.888 27.146 209.758 27.146 207.139V170.388C27.146 168.331 28.5778 166.222 30.5595 165.564H30.5481L32.2777 165.639H45.3705C47.5355 165.639 49.5286 166.699 50.6168 168.437L57.6157 179.589H57.6042Z" fill="#263238"/>
<path opacity="0.2" d="M57.6042 179.589C55.2675 181.508 53.5149 184.062 52.7016 187.02L46.642 209.143H46.4702C45.6684 210.765 43.8929 211.888 41.831 211.888H32.2777C29.4484 211.888 27.146 209.758 27.146 207.139V170.388C27.146 168.331 28.5778 166.222 30.5595 165.564H30.5481L32.2777 165.639H45.3705C47.5355 165.639 49.5286 166.699 50.6168 168.437L57.6157 179.589H57.6042Z" fill="white"/>
<path d="M42.3808 136.919V165.573H30.548V138.51C30.548 136.485 32.312 134.842 34.4999 134.842H40.1356C41.3727 134.842 42.3808 135.775 42.3808 136.93V136.919Z" fill="#407BFF"/>
<path opacity="0.2" d="M42.3808 136.919V165.573H30.548V138.51C30.548 136.485 32.312 134.842 34.4999 134.842H40.1356C41.3727 134.842 42.3808 135.775 42.3808 136.93V136.919Z" fill="white"/>
<path opacity="0.4" d="M42.3808 136.92V145.74H30.548V138.5C30.548 136.475 32.312 134.832 34.4999 134.832H40.1356C41.3727 134.832 42.3808 135.765 42.3808 136.92Z" fill="black"/>
<path opacity="0.7" d="M42.3808 145.738H30.548V155.851H42.3808V145.738Z" fill="white"/>
<path opacity="0.2" d="M140.903 122.365C140.903 122.365 136.047 152.333 140.686 193.187C140.823 194.438 141.35 195.625 142.175 196.611L143.859 198.635C145.245 200.3 147.387 201.275 149.666 201.275H233.011C235.107 201.275 236.952 199.992 237.536 198.127L245.004 174.18C247.146 167.311 253.939 162.583 261.66 162.583H288.544C290.755 162.583 292.931 163.156 294.81 164.226L300.113 167.248" stroke="black" stroke-width="1.14373" stroke-linecap="round" stroke-linejoin="round"/>
<path opacity="0.2" d="M234.065 121.543C234.065 121.543 229.712 158.072 234.065 195.11" stroke="black" stroke-width="1.14373" stroke-linecap="round" stroke-linejoin="round"/>
<path opacity="0.2" d="M176.974 72.7891C172.473 88.5307 170.331 103.382 169.437 111.173H164.557C167.169 91.9759 173.297 72.9269 173.297 72.9269C174.523 72.8739 175.76 72.8209 176.974 72.7891Z" fill="white"/>
<path opacity="0.2" d="M174.271 73.3105C174.271 73.3105 168.67 92.4337 166.734 109.585" stroke="black" stroke-width="1.14373" stroke-linecap="round" stroke-linejoin="round"/>
<path opacity="0.2" d="M166.734 113.178C166.734 113.178 161.992 149.177 164.592 195.109" stroke="black" stroke-width="1.14373" stroke-linecap="round" stroke-linejoin="round"/>
<path opacity="0.2" d="M430.056 136.171H411.431C408.361 133.52 401.866 132.185 395.199 132.185H340.869C334.168 132.185 332.118 136.171 332.118 136.171H305.589C297.502 130.065 247.891 121.542 247.891 121.542C255.932 118.871 280.354 119.687 280.354 119.687C293.286 121.129 306.78 124.213 306.78 124.213C299.025 120.482 283.515 118.245 283.515 118.245L290.56 115.553H329.621L356.093 119.422H370.847L375.394 118.754C389.461 121.436 400.48 124.425 408.991 127.277L429.243 135.821L430.056 136.16V136.171Z" fill="white"/>
<path opacity="0.2" d="M183.389 133.508H173.802C171.98 133.508 170.503 132.141 170.503 130.455C170.503 128.77 171.98 127.402 173.802 127.402H183.389C185.21 127.402 186.688 128.77 186.688 130.455C186.688 132.141 185.21 133.508 183.389 133.508Z" fill="white"/>
<path opacity="0.2" d="M234.054 118.247H222.53L223.275 108.346C223.344 107.477 224.122 106.799 225.062 106.799H232.141C233.309 113.382 234.054 118.237 234.054 118.237V118.247Z" fill="white"/>
<path d="M223.206 99.3027H216.803C215.209 99.3027 213.916 100.499 213.916 101.974V112.882C213.916 114.357 215.209 115.553 216.803 115.553H223.206C224.8 115.553 226.093 114.357 226.093 112.882V101.974C226.093 100.499 224.8 99.3027 223.206 99.3027Z" fill="#263238"/>
<path opacity="0.4" d="M223.206 99.3027H216.803C215.209 99.3027 213.916 100.499 213.916 101.974V112.882C213.916 114.357 215.209 115.553 216.803 115.553H223.206C224.8 115.553 226.093 114.357 226.093 112.882V101.974C226.093 100.499 224.8 99.3027 223.206 99.3027Z" fill="white"/>
<path d="M225.646 106.595C226.31 107.199 227.524 108.196 228.762 108.652C229.437 108.895 229.907 109.468 229.953 110.136L230.262 114.132C230.342 115.128 229.483 115.976 228.406 115.976H225.566C225.268 115.976 224.97 115.913 224.707 115.786L221.751 114.365C221.133 114.068 220.743 113.485 220.743 112.839V107.825C220.743 106.871 221.579 106.107 222.599 106.107H224.317C224.81 106.107 225.279 106.288 225.623 106.606L225.646 106.595Z" fill="#263238"/>
<path opacity="0.3" d="M225.646 106.595C226.31 107.199 227.524 108.196 228.762 108.652C229.437 108.895 229.907 109.468 229.953 110.136L230.262 114.132C230.342 115.128 229.483 115.976 228.406 115.976H225.566C225.268 115.976 224.97 115.913 224.707 115.786L221.751 114.365C221.133 114.068 220.743 113.485 220.743 112.839V107.825C220.743 106.871 221.579 106.107 222.599 106.107H224.317C224.81 106.107 225.279 106.288 225.623 106.606L225.646 106.595Z" fill="white"/>
<path opacity="0.2" d="M279.197 75.1543C279.197 75.1543 300.606 88.9561 312.313 102.26C312.313 102.26 309.369 93.9065 303.08 86.2954C303.08 86.2954 319.025 96.5884 329.277 112.531L352.989 115.563H359.277C359.277 115.563 334.524 88.9137 319.14 77.8256C319.14 77.8256 300.102 75.8327 279.208 75.1649L279.197 75.1543Z" fill="white"/>
</svg>
