<svg width="493" height="308" viewBox="0 0 493 308" fill="none" xmlns="http://www.w3.org/2000/svg">
<g opacity="0.61">
<mask id="mask0_1822_33481" style="mask-type:luminance" maskUnits="userSpaceOnUse" x="61" y="0" width="425" height="278">
<path d="M227.945 277.131H429.515C474.749 239.138 496.86 176.868 479.941 115.175C458.481 36.9182 379.544 -12.316 299.797 2.68699C286.337 5.21782 273.631 9.38676 261.826 14.9381C246.771 22.0193 229.371 21.3822 214.264 14.4138C192.232 4.25142 166.607 1.3869 141.078 8.21235C86.5698 22.782 52.1956 77.9056 63.0123 133.281C72.3122 180.877 111.284 214.735 156.644 219.992C173.944 221.998 189.493 231.355 199.357 245.708C207.473 257.521 217.12 268.069 227.95 277.131H227.945Z" fill="white"/>
</mask>
<g mask="url(#mask0_1822_33481)">
<path d="M480.933 -27.2227H475.789V230.45H480.933V-27.2227Z" fill="#FFFFFE"/>
<path d="M515.988 -27.3398H-7.27905V296.117H515.988V-27.3398Z" fill="#D7E2FF"/>
<g opacity="0.43">
<path d="M112.558 -27.2227H105.772L-8.62683 204.955V218.732L112.558 -27.2227Z" fill="#FFFFFE"/>
<path d="M319.926 -27.2227H296.854L122.751 326.115L125.438 328.411H144.697L319.926 -27.2227Z" fill="#FFFFFE"/>
<path d="M210.069 -27.2227H203.283L28.0529 328.411H34.8393L210.069 -27.2227Z" fill="#FFFFFE"/>
<path d="M194.993 -27.2227H171.916L-0.276001 322.245L6.93514 328.411H19.7627L194.993 -27.2227Z" fill="#FFFFFE"/>
<path d="M-8.62683 174.845L90.9381 -27.2227H67.8615L-8.62683 128.016V174.845Z" fill="#FFFFFE"/>
<path d="M476.344 -27.2227H453.272L278.22 328.047L278.644 328.411H301.114L476.344 -27.2227Z" fill="#FFFFFE"/>
<path d="M515.841 -8.6791V-27.2227H486.598L312.832 325.439L316.312 328.411H349.746L515.841 -8.6791Z" fill="#FFFFFE"/>
<path d="M515.841 23.2566V9.48438L358.695 328.413H365.482L515.841 23.2566Z" fill="#FFFFFE"/>
<path d="M371.743 -26.837L371.293 -27.2227H333.551L158.321 328.411H196.7L371.743 -26.837Z" fill="#FFFFFE"/>
<path d="M446.23 -27.2227H439.443L264.214 328.411H271L446.23 -27.2227Z" fill="#FFFFFE"/>
</g>
<path d="M125.325 -27.2227H120.181V312.208H125.325V-27.2227Z" fill="#FFFFFE"/>
<path d="M245.549 -27.2227H240.405V312.208H245.549V-27.2227Z" fill="#FFFFFE"/>
<path d="M360.71 -27.2227H355.566V312.208H360.71V-27.2227Z" fill="#FFFFFE"/>
</g>
</g>
<path d="M492.938 271.808C492.938 291.439 382.604 307.348 246.502 307.348C110.401 307.348 0.0622559 291.435 0.0622559 271.808C0.0622559 252.181 110.396 236.268 246.498 236.268C382.599 236.268 492.933 252.181 492.933 271.808H492.938Z" fill="#D7E2FF"/>
<path d="M395.518 266.604C395.518 266.604 391.869 272.549 389.052 273.901C386.235 275.258 380.398 276.51 380.398 278.387C380.398 280.263 393.849 280.679 398.543 278.387C398.543 278.387 405.217 279.011 406.989 278.387C408.761 277.763 405.841 271.505 405.841 271.505L405.425 266.604H395.518Z" fill="#1F282E"/>
<path d="M473.458 266.528C473.458 266.528 470.797 273.133 468.197 274.975C465.597 276.816 459.933 279.074 460.249 280.959C460.57 282.849 474.178 280.977 478.507 277.87C478.507 277.87 485.328 277.363 487.005 276.431C488.682 275.499 484.678 269.701 484.678 269.701L482.957 263.031L473.454 266.528H473.458Z" fill="#1F282E"/>
<path d="M396.437 116.231C396.437 116.231 392.038 119.962 393.837 123.693C393.837 123.693 386.573 159.411 384.706 178.865C382.838 198.323 385.239 217.512 386.838 227.64C388.437 237.767 391.635 252.961 391.635 256.692C391.635 260.423 390.3 263.89 392.168 266.555C392.168 266.555 403.895 267.89 409.494 266.555C409.494 266.555 410.027 263.357 409.494 258.56C408.961 253.763 412.159 228.974 412.692 222.309C413.225 215.644 412.692 211.648 412.692 208.715C412.692 205.781 416.159 203.917 414.027 200.186C414.027 200.186 417.013 192.455 414.72 187.393L424.688 151.22C424.688 151.22 431.084 172.464 438.546 194.856C446.009 217.243 467.863 267.145 467.863 267.145C467.863 267.145 469.731 267.47 474.26 267.145C478.793 266.82 480.656 266.018 484.656 264.419L488.656 262.82C488.656 262.82 485.722 256.423 484.656 251.89C483.59 247.357 476.925 218.041 472.929 211.111C468.93 204.182 468.132 199.384 467.863 195.384C467.595 191.384 465.463 176.993 464.132 174.596C462.797 172.195 458.269 149.01 456.934 144.746C455.604 140.482 456.496 118.705 448.137 109.83C448.137 109.83 401.225 112.764 396.428 116.227L396.437 116.231Z" fill="#314FA5"/>
<path d="M412.432 147.152C412.831 136.222 411.097 135.156 414.031 133.293C416.965 131.425 419.227 135.694 420.163 137.557C421.095 139.425 423.362 146.354 424.696 151.23L414.729 187.402C417.021 192.468 414.036 200.195 414.036 200.195C415.115 202.085 414.759 203.497 414.144 204.81C405.477 194.756 407.553 176.317 408.437 170.744C409.368 164.88 412.033 158.085 412.437 147.156L412.432 147.152Z" fill="#15244F"/>
<path d="M393.841 123.693C392.042 119.962 396.441 116.23 396.441 116.23C401.238 112.764 448.15 109.834 448.15 109.834C449.619 111.394 450.798 113.362 451.76 115.554C436.9 126.9 410.946 128.226 410.946 128.226L409.637 125.695L408.97 128.226C405.594 128.226 397.135 126.735 393.373 126.042C393.672 124.542 393.841 123.693 393.841 123.693Z" fill="#15244F"/>
<path d="M482.416 259.215L483.178 258.972L464.522 200.334C464.487 200.252 462.377 195.19 461.068 188.486C460.492 185.531 458.316 176.781 455.803 166.645C452.522 153.436 448.804 138.463 447.747 132.751C445.905 122.827 445.09 114.147 445.086 114.061L444.288 114.134C444.297 114.221 445.112 122.94 446.958 132.899C448.02 138.632 451.742 153.618 455.027 166.84C457.541 176.963 459.712 185.708 460.288 188.642C461.614 195.433 463.755 200.56 463.777 200.612L482.424 259.215H482.416Z" fill="#0C193A"/>
<path d="M466.091 263.432C477.332 263.172 486.554 257.876 486.645 257.82L486.242 257.131C486.151 257.183 477.098 262.379 466.069 262.635L466.091 263.432Z" fill="#0C193A"/>
<path d="M400.376 262.668C405.858 262.668 409.745 261.697 409.802 261.684L409.607 260.908C409.52 260.93 400.952 263.058 391.354 260.908L391.18 261.688C394.461 262.425 397.624 262.672 400.38 262.672L400.376 262.668Z" fill="#0C193A"/>
<path d="M395.639 108.667C395.639 108.667 393.841 111.766 394.942 112.667L393.841 117.72C393.841 117.72 401.836 120.364 408.432 120.563L410.941 116.563L411.531 120.563C411.531 120.563 416.627 122.162 425.325 120.563C434.022 118.964 435.448 118.764 443.279 117.066C451.11 115.367 452.813 111.753 452.813 111.753C452.813 111.753 449.316 108.169 449.515 106.773C449.714 105.374 447.318 102.773 447.318 102.773L395.644 108.671L395.639 108.667Z" fill="#0C193A"/>
<path d="M395.171 24.3878L392.853 14.1431C392.853 14.1431 392.939 10.3599 392.896 7.19635C392.879 6.01327 392.363 4.8952 391.449 4.14115C389.325 2.39903 385.018 -0.0797982 380.047 2.91907C380.047 2.91907 372.242 -1.10687 364.19 7.5517C356.143 16.2103 365.044 22.3077 374.071 21.5753C383.098 20.8429 395.171 24.3791 395.171 24.3791V24.3878Z" fill="#272727"/>
<path d="M386.27 14.7532C386.27 14.7532 385.906 11.3383 387.856 11.3383C389.806 11.3383 392.003 16.7033 389.685 18.6578L405.295 31.9533C405.295 31.9533 401.637 44.6378 392.61 44.0268L384.563 30.4886C384.563 30.4886 382.855 32.9284 381.148 32.3174C379.44 31.7063 373.707 25.2449 373.707 25.2449C373.707 25.2449 374.925 23.6588 373.217 21.5873C371.51 19.5158 369.56 17.44 369.191 15.8539C368.827 14.2678 374.925 12.5604 378.582 11.3426C382.24 10.1249 386.266 14.7575 386.266 14.7575L386.27 14.7532Z" fill="#473E3E"/>
<path d="M369.196 15.85C368.831 14.2639 374.929 12.5565 378.586 11.3387C382.244 10.121 386.27 14.7536 386.27 14.7536C386.27 14.7536 385.906 11.3387 387.856 11.3387C389.806 11.3387 392.003 16.7038 389.685 18.6582L405.295 31.9538C405.295 31.9538 401.637 44.6383 392.61 44.0272L388.328 36.8291C390.006 35.581 391.457 33.4575 390.708 29.878C389.824 25.6527 390.907 24.1489 390.708 21.8824C390.508 19.616 389.174 19.1523 389.243 20.084C389.646 25.7047 384.563 30.4933 384.563 30.4933C384.563 30.4933 382.855 32.9332 381.148 32.3221C379.44 31.7111 373.707 25.2497 373.707 25.2497C373.707 25.2497 374.925 23.6636 373.217 21.5921C371.51 19.5206 369.56 17.4448 369.191 15.8587L369.196 15.85Z" fill="#645454"/>
<path d="M456.011 92.3734C456.011 92.3734 463.339 94.9042 469.87 93.4395C476.401 91.9747 478.398 83.5762 476.799 78.1115C475.2 72.6468 470.936 66.519 465.471 61.453C460.007 56.387 457.74 49.3276 454.676 47.7285C451.612 46.1294 441.615 33.8695 436.683 30.2683C431.751 26.6714 422.824 26.2684 417.494 28.2705C417.494 28.2705 407.002 26.7277 404.718 28.6302C402.434 30.5327 400.099 36.2834 395.171 36.7991C395.171 36.7991 391.895 38.2638 387.236 37.8651C387.236 37.8651 372.437 44.7946 369.178 52.2571C365.919 59.7196 366.054 65.4486 365.655 71.3163C365.256 77.1797 360.723 92.1047 360.723 97.5694C360.723 103.034 359.657 108.629 357.66 112.893C355.662 117.157 353.794 125.422 353.794 125.422L364.455 133.283C364.455 133.283 373.516 128.75 375.917 124.486C378.318 120.221 380.983 110.492 383.115 106.094C385.247 101.695 388.446 85.8383 388.446 85.8383C388.446 85.8383 390.825 94.1025 391.167 99.6972C391.509 105.296 392.333 109.292 395.652 110.094C398.972 110.895 415.496 109.959 420.961 110.094C426.425 110.228 444.016 107.03 447.214 104.23C450.412 101.431 449.082 91.5717 449.082 91.5717L456.011 92.3691V92.3734Z" fill="#ED3232"/>
<path d="M423.726 52.9952C423.778 52.9952 423.83 52.9865 423.882 52.9649C424.085 52.8782 424.181 52.6442 424.094 52.4405C419.158 40.7311 427.435 31.4701 427.518 31.3748C427.665 31.2101 427.656 30.9587 427.492 30.8114C427.331 30.6641 427.075 30.6727 426.928 30.8374C426.841 30.9327 418.222 40.562 423.357 52.7525C423.422 52.9042 423.57 52.9952 423.726 52.9952Z" fill="#C61717"/>
<path d="M422.109 53.7961C422.191 53.7961 422.269 53.7745 422.339 53.7225C422.521 53.5924 422.56 53.3454 422.434 53.1634C419.158 48.5611 419.518 44.7865 419.522 44.7475C419.544 44.5265 419.388 44.3315 419.167 44.3055C418.928 44.2795 418.751 44.4398 418.729 44.6565C418.712 44.8212 418.321 48.7561 421.784 53.6228C421.862 53.7311 421.988 53.7918 422.109 53.7918V53.7961Z" fill="#C61717"/>
<path d="M455.807 72.1842C455.807 72.1842 457.207 69.0509 460.072 68.5179C462.936 67.9849 466.269 68.4529 465.736 67.8505C465.203 67.2525 459.604 65.3847 456.873 67.0531C456.873 67.0531 459.196 64.7217 460.8 64.323C462.403 63.9243 459.738 62.5895 457.74 63.3912C455.742 64.1886 451.409 61.8571 450.746 58.7283C450.078 55.5951 446.347 46.6028 444.414 46.1348L417.927 52.4488L449.077 73.0552L455.807 72.1885V72.1842Z" fill="#C61717"/>
<path d="M400.97 28.2055C400.536 32.5044 395.171 36.7991 395.171 36.7991C395.171 36.7991 398.036 41.2627 401.438 41.1283C404.835 40.994 406.703 30.9313 406.369 30.0689C406.036 29.2022 401.611 26.381 399.544 27.0484L400.97 28.2055Z" fill="#0C193A"/>
<path d="M395.171 36.8045C395.171 36.8045 396.64 44.202 394.439 44.6657C392.242 45.1337 387.895 41.4025 387.236 40.3364C386.578 39.2703 386.352 36.1154 387.397 35.2617L388.329 36.8262C388.329 36.8262 391.505 38.2042 395.171 36.8045Z" fill="#0C193A"/>
<path d="M469.917 137.535L437.771 89.375L424.575 98.1809L456.722 146.34C458.1 148.403 460.882 148.962 462.949 147.584L468.674 143.762C470.732 142.388 471.296 139.602 469.917 137.535Z" fill="#839ADD"/>
<path d="M432.504 92.9128L429.865 94.6738L464.501 146.568L467.139 144.807L432.504 92.9128Z" fill="#D7E2FF"/>
<path d="M454.867 77.819C456.618 81.7626 454.62 86.2782 451.387 89.2727C450.26 90.3172 449.562 91.7472 449.549 93.2857L449.519 96.0679C449.502 97.7233 448.67 99.2617 447.292 100.18L430.98 111.067C429.623 111.972 427.912 112.159 426.395 111.574L423.647 110.512C422.239 109.966 420.679 110.065 419.309 110.702C415.296 112.557 410.335 112.683 407.353 109.541C380.069 80.8005 390.695 60.2288 403.123 51.7566C415.717 43.5271 438.789 41.6073 454.867 77.8277V77.819Z" fill="#314FA5"/>
<path d="M442.07 94.4469C443.032 95.89 440.579 99.2182 436.592 101.883C432.601 104.544 428.588 105.537 427.626 104.093C426.664 102.65 429.116 99.3222 433.103 96.657C437.09 93.9918 441.108 93.0038 442.07 94.4469Z" fill="#ED3232"/>
<path d="M443.686 84.8257L418.113 101.896C414.014 104.63 408.423 103.517 405.689 99.417C402.954 95.3174 404.068 89.727 408.168 86.9925L433.74 69.9223C437.84 67.1878 443.43 68.3016 446.165 72.4012C448.899 76.5008 447.786 82.0911 443.686 84.8257Z" fill="#6A86C6"/>
<path d="M417.681 55.1582L400.851 66.3906C396.736 69.1369 395.627 74.699 398.373 78.8139L398.375 78.8175C401.122 82.9323 406.684 84.0417 410.799 81.2954L427.628 70.0629C431.743 67.3166 432.852 61.7545 430.106 57.6397L430.104 57.6361C427.357 53.5213 421.795 52.4119 417.681 55.1582Z" fill="#6A86C6"/>
<path d="M402.166 68.3495C399.149 70.3647 398.33 74.4556 400.345 77.4761C402.361 80.4923 406.451 81.3114 409.472 79.2963L426.299 68.0635C429.316 66.0484 430.135 61.9574 428.12 58.9369C426.104 55.9207 422.014 55.1017 418.993 57.1168L402.166 68.3495Z" fill="#314FA5"/>
<path d="M416.995 99.7878L424.003 95.1118C425.684 93.9894 426.135 91.7186 425.017 90.0372L421.771 85.1748C420.649 83.4934 418.378 83.0427 416.696 84.1608L409.49 88.9711C406.348 91.0686 405.598 95.4325 407.947 98.4747C410.083 101.244 414.092 101.729 417 99.7878H416.995Z" fill="#314FA5"/>
<path d="M443.916 73.3486C441.779 70.5794 437.771 70.0941 434.863 72.0355L427.886 76.6942C426.204 77.8166 425.754 80.0874 426.872 81.7688L430.118 86.6312C431.24 88.3126 433.511 88.7633 435.192 87.6452L442.373 82.8522C445.515 80.7548 446.265 76.3908 443.916 73.3486Z" fill="#314FA5"/>
<path d="M418.742 91.5169L417.234 89.2547C416.831 88.6524 416.012 88.4877 415.405 88.8907L413.143 90.3988C412.54 90.8018 412.376 91.6209 412.779 92.2276L414.287 94.4897C414.646 95.0271 415.336 95.2135 415.912 94.9621L416.311 95.5558C416.796 96.2839 417.784 96.4832 418.516 95.9935C419.249 95.5038 419.444 94.5201 418.954 93.7877L418.555 93.194C419.006 92.7606 419.101 92.0543 418.742 91.5126V91.5169ZM416.8 95.2265L416.415 94.6501L418.074 93.5407L418.46 94.1171C418.768 94.5764 418.642 95.1961 418.183 95.5038C417.723 95.8115 417.104 95.6858 416.796 95.2265H416.8ZM418.252 91.8419C418.473 92.1756 418.386 92.6263 418.053 92.8516L415.791 94.3597C415.457 94.5808 415.006 94.4897 414.785 94.1604L413.277 91.8982C413.056 91.5646 413.143 91.1139 413.476 90.8885L415.739 89.3804C416.072 89.1594 416.523 89.2461 416.744 89.5798L418.252 91.8419Z" fill="white"/>
<path d="M416.293 92.969C416.051 93.06 415.769 93.0036 415.583 92.826C415.418 92.6743 415.349 92.4749 415.362 92.2799C415.375 92.0242 415.318 91.7729 415.18 91.5605L414.894 91.1359C414.807 91.0058 414.816 90.8282 414.928 90.7198C415.076 90.5855 415.297 90.6158 415.405 90.7718L415.7 91.2095C415.843 91.4262 416.064 91.5692 416.306 91.6602C416.436 91.7079 416.553 91.7989 416.64 91.9246C416.883 92.2886 416.735 92.8 416.298 92.969H416.293Z" fill="white"/>
<path d="M438.915 78.0091L437.407 75.7469C437.004 75.1445 436.184 74.9799 435.578 75.3829L433.316 76.891C432.713 77.294 432.549 78.1131 432.952 78.7198L434.46 80.9819C434.863 81.5843 435.682 81.749 436.289 81.346L438.252 80.0372L438.637 80.6136C438.945 81.0729 438.819 81.6927 438.36 82.0003C438.178 82.1217 437.97 82.178 437.753 82.165L437.723 82.7544C438.07 82.7717 438.403 82.6807 438.689 82.49C439.417 82.0047 439.617 81.0123 439.127 80.2842L438.728 79.6905C439.179 79.2572 439.274 78.5508 438.915 78.0091ZM438.425 78.3384C438.646 78.6721 438.559 79.1228 438.226 79.3482L435.963 80.8563C435.63 81.0773 435.179 80.9906 434.958 80.6569L433.45 78.3948C433.229 78.0611 433.316 77.6104 433.649 77.385L435.911 75.8769C436.245 75.6559 436.696 75.7426 436.921 76.0763L438.429 78.3384H438.425Z" fill="white"/>
<path d="M436.466 79.4612C436.224 79.5522 435.942 79.4958 435.756 79.3181C435.591 79.1665 435.522 78.9671 435.535 78.7721C435.548 78.5164 435.491 78.2651 435.353 78.0527L435.066 77.628C434.98 77.498 434.988 77.3204 435.101 77.212C435.249 77.0777 435.47 77.108 435.578 77.264L435.873 77.7017C436.016 77.9184 436.237 78.0614 436.479 78.1524C436.609 78.2001 436.726 78.2911 436.813 78.4168C437.056 78.7808 436.908 79.2921 436.471 79.4612H436.466Z" fill="white"/>
<path d="M417.004 63.7562L417.723 63.2752C418.174 62.9762 418.785 63.0975 419.084 63.5482L419.86 64.714C420.141 65.1343 420.024 65.702 419.608 65.9794C419.461 66.0747 419.383 66.2437 419.405 66.4171L419.543 67.6132C419.621 68.2805 419.322 68.9306 418.759 69.3033L416.493 70.8157C415.756 71.3054 414.846 71.4527 413.996 71.2144L412.917 70.911C412.462 70.7854 411.977 70.859 411.583 71.1234L410.686 71.7214C410.083 72.1245 409.268 71.9598 408.865 71.3574L408.358 70.5947C408.085 70.1873 408.198 69.6326 408.605 69.3596L409.988 68.4365C409.806 67.8255 410.04 67.1408 410.586 66.7768C411.132 66.4127 411.856 66.4604 412.35 66.8591L414.638 65.3293C414.456 64.7183 414.69 64.0336 415.236 63.6696C415.782 63.3055 416.506 63.3532 417 63.7519L417.004 63.7562ZM412.029 67.5308C411.778 67.2101 411.314 67.1365 410.976 67.3618C410.638 67.5872 410.53 68.0422 410.729 68.3975L410.889 68.6836L408.995 69.949C408.909 70.0053 408.887 70.1223 408.943 70.209L409.45 70.9717C409.637 71.2491 410.014 71.3271 410.296 71.1407L411.193 70.5427C411.756 70.1657 412.454 70.053 413.108 70.2393L414.187 70.5427C414.841 70.7247 415.539 70.6164 416.103 70.2393L418.369 68.7269C418.707 68.5016 418.889 68.1072 418.846 67.6998L418.707 66.4994C418.655 66.0617 418.854 65.637 419.218 65.3943C419.314 65.3293 419.34 65.1993 419.275 65.104L418.499 63.9383C418.412 63.8126 418.239 63.7779 418.113 63.8602L416.883 64.6793L416.683 64.4236C416.432 64.1029 415.968 64.0293 415.63 64.2546C415.292 64.48 415.184 64.935 415.383 65.2903L415.544 65.572L412.233 67.7822L412.033 67.5265L412.029 67.5308Z" fill="white"/>
<path opacity="0.25" d="M412.727 81.8586H416.202C416.202 81.8586 420.809 83.1154 424.557 81.8586L453.97 100.056L458.945 98.9028L453.714 82.4783L420.696 75.4492L410.941 76.2509L412.727 81.863V81.8586Z" fill="#1F282E"/>
<path d="M444.518 72.9757C446.039 71.524 447.63 71.238 449.822 70.5966C452.02 69.9552 453.848 69.0408 455.859 69.8642C457.87 70.6876 458.511 78.0981 460.981 79.0125C463.452 79.9269 454.03 81.5736 454.03 81.5736L460.89 85.1402C460.89 85.1402 459.703 85.6906 459.244 87.5194C458.784 89.3482 458.329 93.2831 455.768 94.0155C453.207 94.7479 448.431 92.8671 446.988 91.5453C442.689 87.6104 442.507 74.8999 444.518 72.9757Z" fill="#0C193A"/>
<path d="M446.213 74.1164C446.213 74.1164 426.59 74.7145 424.211 73.6181C421.832 72.5217 417.715 70.4155 415.522 70.3245C413.325 70.2335 407.106 71.6376 407.197 72.396C407.288 73.1587 411.132 72.396 411.132 72.396C411.132 72.396 407.838 74.8965 408.571 76.7296C409.303 78.5584 410.582 78.5584 411.223 79.8412C411.864 81.1196 412.319 81.1196 413.234 80.4825C414.148 79.8412 415.154 79.1088 415.154 79.1088C415.154 79.1088 420.826 80.8466 424.115 78.5584C424.115 78.5584 441.212 86.9786 446.798 89.1671C450.035 90.4369 451.989 85.2408 451.37 81.0286C450.672 76.2529 449.099 74.5065 446.204 74.1208L446.213 74.1164Z" fill="#645454"/>
<path d="M357.837 134.05C361.841 136.512 363.133 136.247 366.231 134.952C369.33 133.652 370.231 131.355 372.129 130.553C374.028 129.751 374.53 127.455 371.328 123.658C368.13 119.862 367.128 119.359 367.128 119.359L361.629 124.655L363.428 119.359C363.428 119.359 361.33 119.359 357.928 118.358C354.531 117.357 353.33 117.357 351.93 119.658C350.531 121.955 350.032 125.097 350.531 126.623C351.029 128.152 354.96 132.287 357.829 134.05H357.837Z" fill="#0C193A"/>
<path d="M352.459 126.258L337.365 146.449C337.365 146.449 334.964 148.646 331.068 149.547C327.168 150.449 324.174 151.744 324.473 152.446C324.772 153.144 332.269 152.147 334.366 152.446C336.464 152.745 337.864 153.655 340.364 152.702C342.865 151.749 344.16 148.052 345.161 147.151C346.162 146.249 358.895 136.754 361.993 133.855C365.092 130.956 355.675 121.951 352.455 126.258H352.459Z" fill="#645454"/>
<path d="M329.517 152.95C329.517 152.95 329.539 152.95 329.547 152.95C329.768 152.932 329.933 152.741 329.916 152.52C329.877 152.005 330.483 151.849 331.775 151.636C332.382 151.537 333.01 151.433 333.56 151.22C334.466 150.874 334.891 150.536 334.938 150.128C334.969 149.864 334.826 149.665 334.696 149.574C334.514 149.444 334.267 149.491 334.137 149.673C334.054 149.79 334.046 149.933 334.098 150.055C334.007 150.133 333.786 150.28 333.274 150.479C332.802 150.661 332.213 150.761 331.645 150.856C330.414 151.06 329.023 151.29 329.118 152.585C329.131 152.798 329.309 152.958 329.517 152.958V152.95Z" fill="#A63B3B"/>
<path d="M378.149 66.0907C378.547 67.7894 382.248 73.4882 384.146 76.253C386.045 79.0178 386.946 80.4826 388.445 85.8476C388.445 85.8476 385.247 101.704 383.115 106.103C382.417 107.542 381.663 109.553 380.879 111.75C381.308 107.533 380.246 97.2711 380.246 91.9754C380.246 86.6797 377.048 88.3785 375.648 81.4793C374.249 74.5846 377.746 64.3876 378.149 66.0863V66.0907Z" fill="#C61717"/>
<path d="M363.653 102.073C363.774 102.073 363.9 102.017 363.978 101.909C365.945 99.1957 369.07 98.7754 369.1 98.771C369.317 98.745 369.473 98.5457 369.447 98.3247C369.417 98.1037 369.213 97.9606 369.001 97.978C368.858 97.9953 365.503 98.433 363.328 101.441C363.198 101.618 363.237 101.87 363.415 102C363.484 102.052 363.566 102.073 363.649 102.073H363.653Z" fill="#C61717"/>
<path d="M362.613 100.457C362.734 100.457 362.856 100.401 362.934 100.297L366.673 95.3131C366.808 95.1354 366.769 94.8884 366.591 94.7541C366.413 94.6197 366.166 94.6587 366.032 94.8364L362.292 99.8201C362.158 99.9977 362.197 100.245 362.374 100.379C362.448 100.431 362.53 100.457 362.613 100.457Z" fill="#C61717"/>
<path d="M377.447 64.6906C377.499 64.6906 377.551 64.6819 377.598 64.6603C377.802 64.5736 377.902 64.3439 377.815 64.1402C377.794 64.0839 375.436 58.3505 375.042 54.4589C375.02 54.2379 374.816 54.0689 374.604 54.0992C374.383 54.1209 374.223 54.3159 374.244 54.5369C374.643 58.5455 376.974 64.2052 377.07 64.4436C377.135 64.5996 377.282 64.6906 377.438 64.6906H377.447Z" fill="#C61717"/>
<path d="M376.047 65.2882C376.142 65.2882 376.233 65.2579 376.311 65.1885C376.476 65.0455 376.493 64.7898 376.35 64.6252C373.122 60.8982 372.056 54.4932 372.047 54.4282C372.012 54.2115 371.796 54.0641 371.588 54.0988C371.371 54.1335 371.224 54.3372 371.258 54.5582C371.302 54.8269 372.368 61.2493 375.748 65.1495C375.826 65.2405 375.939 65.2882 376.051 65.2882H376.047Z" fill="#C61717"/>
<path d="M388.441 79.1178C388.441 79.1178 388.476 79.1178 388.493 79.1178C388.71 79.0874 388.866 78.8881 388.836 78.6671C388.827 78.5977 387.887 71.6899 387.631 69.5015C387.605 69.2848 387.41 69.1288 387.189 69.1504C386.968 69.1764 386.812 69.3758 386.838 69.5925C387.093 71.7896 388.034 78.7061 388.047 78.7754C388.073 78.9748 388.246 79.1221 388.441 79.1221V79.1178Z" fill="#C61717"/>
<path d="M414.33 41.5366C414.356 41.5366 414.382 41.5366 414.408 41.5279C414.625 41.4846 414.768 41.2723 414.725 41.0599C413.585 35.3005 418.14 31.4523 418.187 31.4133C418.356 31.2746 418.382 31.0233 418.239 30.8499C418.096 30.6809 417.845 30.6549 417.676 30.7979C417.472 30.9669 412.705 34.9928 413.94 41.2159C413.979 41.4066 414.144 41.5366 414.33 41.5366Z" fill="#C61717"/>
<path d="M467.539 72.587C467.643 72.587 467.747 72.548 467.825 72.4657C467.981 72.3053 467.972 72.054 467.816 71.9023C467.669 71.755 464.08 68.3444 459.669 69.1504C459.452 69.1894 459.309 69.3975 459.348 69.6141C459.387 69.8308 459.586 69.9825 459.816 69.9348C463.799 69.2111 467.226 72.4397 467.261 72.4743C467.339 72.548 467.439 72.587 467.539 72.587Z" fill="#C61717"/>
<path d="M419.795 137.718L420.523 137.388C420.475 137.284 415.903 127.1 414.668 123.945L413.923 124.236C415.167 127.408 419.752 137.614 419.795 137.713V137.718Z" fill="#0C193A"/>
<path d="M388.87 256.007C388.827 256.037 388.797 256.063 388.753 256.093C388.697 256.15 388.623 256.197 388.55 256.254C388.359 256.371 388.155 256.501 387.908 256.618C387.631 256.748 387.31 256.882 386.916 257.012C386.521 257.142 386.071 257.259 385.546 257.376C385.052 257.48 384.485 257.593 383.826 257.697C383.492 257.753 383.111 257.814 382.717 257.87C382.426 257.9 382.106 257.944 381.768 257.987C381.65 258 381.52 258.017 381.39 258.043C381.304 258.043 381.217 258.056 381.113 258.074C380.779 258.104 380.441 258.147 380.077 258.191C379.8 258.221 379.523 258.247 379.232 258.277C378.868 258.321 378.474 258.351 378.08 258.394C377.846 258.425 377.612 258.438 377.365 258.468C377.031 258.498 376.68 258.524 376.329 258.555C373.035 258.845 368.823 259.153 363.432 259.504C362.734 259.547 362.019 259.59 361.274 259.634C358.11 259.824 354.587 260.041 350.622 260.262C349.937 260.305 349.222 260.349 348.507 260.379C347.822 260.423 347.125 260.466 346.423 260.496C345.447 260.553 344.442 260.613 343.419 260.67C343.172 260.683 342.938 260.7 342.691 260.713C342.05 260.743 341.396 260.769 340.724 260.817C339.835 260.86 338.93 260.921 337.998 260.964C336.863 261.021 335.697 261.094 334.501 261.155C331.658 261.302 328.642 261.463 325.508 261.623C303.741 262.672 275.486 263.72 248.574 264.405C215.162 265.28 183.773 265.601 169.321 264.726C168.358 264.669 167.427 264.609 166.521 264.552C165.793 264.509 165.095 264.448 164.406 264.405C163.708 264.362 163.037 264.318 162.382 264.258C162.062 264.245 161.741 264.214 161.433 264.184C161.316 264.184 161.199 264.171 161.082 264.154C160.411 264.11 159.756 264.05 159.128 263.993C159.098 263.993 159.054 263.993 159.024 263.98C158.031 263.894 157.1 263.807 156.198 263.703C155.6 263.647 155.02 263.573 154.448 263.512C154.17 263.482 153.91 263.456 153.633 263.408C152.892 263.322 152.177 263.235 151.505 263.131C154.682 262.459 158.456 261.688 162.521 260.904C174.209 258.646 188.341 256.314 197.636 256.093C204.002 255.946 224.128 255.218 248.565 254.39C272.768 253.575 301.21 252.657 324.715 252.072C329.365 251.955 333.807 251.855 337.989 251.764C342.813 251.677 347.285 251.604 351.294 251.56C359.805 251.456 366.257 251.487 369.655 251.69C373.88 251.937 377.915 252.665 381.633 253.658C384.199 254.329 386.604 255.144 388.844 256.002L388.87 256.007Z" fill="#EDC969"/>
<path d="M237.731 69.0154C237.731 69.0154 245.306 61.0243 248.041 60.6039C250.775 60.1835 254.771 69.3361 254.771 69.3361L237.727 69.0154H237.731Z" fill="#003A8C"/>
<path d="M82.6394 206.643L61.7254 194.44C61.7254 194.44 60.1219 164.442 69.8032 167.129C79.4845 169.816 82.6394 206.643 82.6394 206.643Z" fill="#05042B"/>
<path d="M67.0904 262.183C67.0904 262.183 70.93 263.795 81.0837 263.058C86.0933 262.694 90.2883 259.101 91.454 254.178C93.6121 245.078 95.7746 227.392 92.3597 197.066C92.3597 197.066 93.8505 184.719 67.0861 186.483V262.187L67.0904 262.183Z" fill="#0C193A"/>
<path d="M381.659 253.663C381.586 255.18 381.499 256.636 381.395 258.049C380.606 268.905 379.076 276.935 377.547 282.616C375.653 289.654 368.849 294.798 360.715 295.322C344.251 296.371 338.011 294.07 338.011 294.07V185.704C342.982 185.413 347.35 185.383 351.198 185.574C361.209 186.055 367.636 187.935 371.744 190.224C379.848 194.756 379.016 200.845 379.016 200.845C380.138 209.647 380.896 217.69 381.347 225.048C381.668 230.075 381.828 234.782 381.885 239.185C381.958 244.446 381.854 249.269 381.651 253.668L381.659 253.663Z" fill="#0C193A"/>
<path d="M351.64 239.877C351.64 243.886 351.523 247.803 351.319 251.565C351.159 254.568 350.925 257.48 350.635 260.263C348.611 280.093 343.727 294.069 338.015 294.069C332.304 294.069 327.641 280.722 325.526 261.619C325.192 258.573 324.928 255.383 324.737 252.076C324.503 248.159 324.386 244.077 324.386 239.882C324.386 239.401 324.386 238.92 324.399 238.452C324.442 231.223 324.837 224.346 325.534 218.097C325.911 214.586 326.392 211.262 326.96 208.19C327.749 203.817 328.694 199.93 329.786 196.68C330.908 193.3 332.161 190.604 333.517 188.723C334.917 186.769 336.429 185.707 338.007 185.707C339.584 185.707 340.949 186.669 342.293 188.446C343.718 190.327 345.044 193.122 346.227 196.68C347.306 199.93 348.269 203.822 349.053 208.19C349.781 212.168 350.366 216.554 350.799 221.247C351.293 226.551 351.571 232.25 351.614 238.178C351.627 238.746 351.627 239.314 351.627 239.882L351.64 239.877Z" fill="#15244F"/>
<path d="M163.869 248.626L103.822 244.102L98.4918 156.385L134.409 150.105L163.869 248.626Z" fill="#05042B"/>
<path d="M121.655 302.816C121.655 302.816 127.488 305.121 142.907 304.068C150.517 303.548 156.887 298.404 158.66 291.358C161.94 278.326 165.221 253.009 160.034 209.591C160.034 209.591 162.296 191.914 121.651 194.441V302.816H121.655Z" fill="#0C193A"/>
<path d="M391.93 226.355C391.566 234.295 390.924 239.469 390.924 239.469C390.924 239.469 390.937 239.907 390.937 240.648C390.994 244.114 390.937 254.142 389.031 255.876C388.987 255.932 388.927 255.98 388.87 256.006C388.827 256.036 388.797 256.062 388.753 256.093C388.697 256.149 388.623 256.21 388.55 256.253C388.359 256.37 388.155 256.5 387.908 256.617C387.631 256.764 387.31 256.894 386.916 257.011C386.521 257.141 386.071 257.258 385.546 257.375C385.052 257.492 384.485 257.592 383.826 257.696C383.492 257.752 383.111 257.813 382.716 257.869C382.426 257.9 382.105 257.943 381.767 257.986C381.65 257.999 381.52 258.017 381.39 258.043C381.304 258.043 381.217 258.056 381.113 258.073C380.779 258.103 380.441 258.147 380.077 258.19C379.8 258.22 379.523 258.246 379.232 258.277C378.868 258.32 378.474 258.363 378.079 258.394C377.845 258.424 377.611 258.437 377.364 258.467C377.031 258.498 376.68 258.524 376.329 258.554C373.035 258.844 368.823 259.152 363.432 259.503C362.734 259.546 362.019 259.59 361.274 259.633C358.11 259.824 354.587 260.041 350.622 260.262C349.937 260.305 349.222 260.348 348.507 260.379C347.822 260.422 347.124 260.465 346.422 260.496C345.447 260.552 344.442 260.613 343.419 260.669C343.172 260.682 342.938 260.699 342.691 260.712C342.05 260.743 341.395 260.769 340.724 260.816C339.835 260.86 338.93 260.92 337.998 260.964C336.862 261.02 335.697 261.094 334.501 261.154C331.658 261.302 328.642 261.462 325.508 261.622C303.741 262.671 275.485 263.72 248.574 264.404C215.161 265.28 183.773 265.601 169.32 264.725C168.358 264.669 167.427 264.608 166.521 264.552C165.793 264.508 165.095 264.448 164.406 264.404C163.708 264.348 163.037 264.3 162.382 264.244C162.062 264.231 161.741 264.201 161.433 264.188C161.316 264.188 161.199 264.175 161.082 264.157C160.41 264.101 159.756 264.04 159.128 263.997C159.097 263.997 159.054 263.997 159.024 263.984C158.031 263.897 157.087 263.793 156.198 263.707C155.6 263.65 155.019 263.577 154.447 263.516C154.17 263.486 153.91 263.46 153.633 263.412C152.892 263.325 152.177 263.221 151.505 263.135H151.492C151.202 263.091 150.911 263.048 150.617 263.005C150.148 262.931 149.698 262.857 149.277 262.788C148.84 262.714 148.432 262.628 148.025 262.554C147.236 262.394 146.508 262.233 145.841 262.06C145.65 262.017 145.464 261.956 145.286 261.913C144.978 261.826 144.688 261.739 144.411 261.648C144.12 261.544 143.83 261.458 143.566 261.358C143.028 261.167 142.547 260.964 142.11 260.73C141.876 260.626 141.672 260.513 141.481 260.396C141.481 260.396 141.481 260.409 141.468 260.396C141.278 260.279 141.091 260.162 140.914 260.045C140.74 259.928 140.58 259.811 140.42 259.681C139.938 259.304 139.531 258.879 139.197 258.428C138.994 258.151 138.803 257.848 138.63 257.527C138.296 256.873 138.032 256.158 137.815 255.386C137.772 255.196 137.728 255.022 137.685 254.819C137.629 254.615 137.581 254.411 137.538 254.207C137.347 253.406 137.143 251.789 136.866 249.575C136.836 249.311 136.81 249.037 136.762 248.773C136.706 248.292 136.645 247.781 136.571 247.256C136.558 247.04 136.528 246.806 136.498 246.572C135.505 238.281 133.975 224.99 131.705 212.882C130.392 205.875 128.818 199.257 126.968 194.23C124.901 188.648 122.465 185.034 119.64 185.034C119.449 185.034 119.276 185.047 119.102 185.091C119.089 185.091 119.072 185.091 119.059 185.104C118.886 185.134 118.708 185.177 118.535 185.251C118.405 185.294 118.275 185.355 118.14 185.442C118.11 185.442 118.084 185.455 118.054 185.485C118.01 185.515 117.967 185.541 117.906 185.572C117.876 185.585 117.863 185.602 117.833 185.628C117.729 185.684 117.616 185.758 117.512 185.862C117.456 185.905 117.382 185.966 117.321 186.022C117.291 186.053 117.248 186.079 117.217 186.126C117.204 186.126 117.187 186.157 117.187 186.157C117.1 186.23 117.014 186.317 116.923 186.421C116.91 186.434 116.879 186.464 116.866 186.495C116.793 186.568 116.719 186.655 116.65 186.742C116.619 186.785 116.593 186.815 116.563 186.859C116.507 186.932 116.446 187.006 116.39 187.093C116.26 187.266 116.125 187.457 116.013 187.66C116 187.673 116 187.691 115.982 187.704C115.965 187.717 115.969 187.717 115.969 187.734C115.779 188.042 115.592 188.362 115.415 188.709C115.415 188.74 115.402 188.766 115.384 188.783C115.384 188.796 115.371 188.796 115.371 188.796C115.224 189.086 115.094 189.394 114.964 189.715C114.934 189.758 114.921 189.801 114.908 189.862C114.877 189.918 114.851 189.979 114.821 190.053C114.79 190.109 114.764 190.183 114.747 190.243C114.734 190.274 114.717 190.287 114.717 190.317C114.704 190.347 114.686 190.36 114.686 190.391C114.656 190.447 114.63 190.508 114.613 190.564C114.582 190.62 114.569 190.681 114.539 190.737V190.781C114.539 190.781 114.526 190.811 114.526 190.824C114.496 190.867 114.483 190.911 114.47 190.954C114.439 191.01 114.426 191.071 114.413 191.127C114.37 191.244 114.327 191.374 114.283 191.504C114.253 191.608 114.21 191.708 114.179 191.812C114.136 191.929 114.093 192.059 114.049 192.189C114.049 192.202 114.036 192.219 114.036 192.232V192.276C114.006 192.319 113.993 192.38 113.98 192.436C113.967 192.466 113.95 192.492 113.95 192.523C113.893 192.696 113.846 192.887 113.789 193.077C113.776 193.134 113.759 193.194 113.733 193.251C113.703 193.337 113.69 193.411 113.659 193.498C113.646 193.602 113.616 193.701 113.586 193.805C113.573 193.836 113.573 193.879 113.555 193.91C113.542 193.983 113.512 194.057 113.499 194.126C113.443 194.33 113.395 194.521 113.339 194.724C113.339 194.737 113.326 194.755 113.339 194.768C113.326 194.781 113.326 194.798 113.326 194.811C113.313 194.841 113.295 194.885 113.295 194.915C113.239 195.149 113.178 195.396 113.122 195.643C113.066 195.877 113.018 196.111 112.962 196.341C112.905 196.618 112.845 196.895 112.788 197.173C112.775 197.229 112.758 197.29 112.745 197.346C112.702 197.55 112.671 197.753 112.628 197.957C112.598 198.117 112.554 198.278 112.524 198.451V198.525C112.481 198.729 112.437 198.932 112.407 199.136C112.364 199.353 112.32 199.587 112.277 199.821C112.247 200.011 112.203 200.215 112.173 200.419C112.173 200.432 112.16 200.449 112.16 200.475V200.549C112.147 200.622 112.13 200.679 112.117 200.739V200.796C112.104 200.882 112.086 200.969 112.073 201.06C112.043 201.207 112.017 201.368 112 201.511C111.926 201.992 111.852 202.473 111.783 202.954C111.783 202.984 111.77 202.997 111.77 203.027C111.77 203.058 111.757 203.101 111.77 203.131C111.727 203.378 111.696 203.643 111.653 203.92C111.64 204.05 111.623 204.185 111.597 204.328C111.553 204.605 111.523 204.865 111.493 205.142C111.462 205.42 111.419 205.71 111.389 206C111.358 206.217 111.332 206.451 111.302 206.672C111.289 206.789 111.272 206.906 111.259 207.036C111.215 207.387 111.185 207.734 111.142 208.085C111.142 208.115 111.129 208.141 111.129 208.171V208.288C111.098 208.609 111.055 208.917 111.025 209.251C111.025 209.307 111.012 209.381 111.012 209.454C110.981 209.701 110.955 209.966 110.925 210.213C110.912 210.373 110.895 210.546 110.882 210.724C110.851 211.045 110.825 211.378 110.795 211.716C110.782 211.773 110.782 211.833 110.782 211.89C110.752 212.21 110.726 212.544 110.695 212.865C110.682 212.969 110.682 213.081 110.665 213.185C110.652 213.389 110.635 213.593 110.622 213.796C110.622 213.853 110.609 213.926 110.609 214C110.609 214.013 110.596 214.044 110.596 214.057V214.204C110.583 214.26 110.583 214.308 110.583 214.364C110.583 214.395 110.57 214.438 110.57 214.481V214.642C110.539 214.845 110.526 215.049 110.513 215.253C110.5 215.4 110.5 215.53 110.483 215.66C110.483 215.734 110.47 215.807 110.47 215.864C110.457 216.011 110.457 216.171 110.44 216.345C110.427 216.388 110.427 216.431 110.427 216.462V216.622C110.414 216.665 110.414 216.709 110.414 216.769C110.37 217.294 110.34 217.818 110.31 218.355C110.297 218.529 110.279 218.706 110.266 218.88V218.984C110.266 219.131 110.253 219.292 110.236 219.452C110.206 220.033 110.18 220.618 110.149 221.198C110.136 221.285 110.136 221.372 110.136 221.463C110.136 221.519 110.123 221.58 110.123 221.636C110.11 221.853 110.093 222.074 110.093 222.308V222.381C110.08 222.425 110.08 222.468 110.08 222.511V222.672C110.067 222.875 110.05 223.079 110.05 223.283C110.037 223.326 110.037 223.369 110.037 223.413C110.037 223.517 110.024 223.603 110.024 223.703V223.876C110.011 224.006 110.011 224.123 110.011 224.253C110.011 224.284 109.998 224.31 109.998 224.34V224.501C109.985 224.691 109.985 224.878 109.967 225.068C109.954 225.359 109.954 225.649 109.937 225.944C109.924 226.03 109.924 226.117 109.924 226.208C109.924 226.355 109.911 226.516 109.911 226.676C109.898 226.88 109.898 227.07 109.881 227.274V227.538C109.881 227.612 109.868 227.686 109.868 227.755V227.811C109.868 227.915 109.868 228.002 109.855 228.089C109.868 228.102 109.868 228.132 109.855 228.162C109.855 228.323 109.855 228.483 109.842 228.63C109.842 228.834 109.828 229.038 109.828 229.242C109.828 229.432 109.815 229.606 109.815 229.779V229.883C109.802 230.173 109.802 230.464 109.785 230.758V230.932C109.772 231.252 109.772 231.573 109.755 231.881V232.071C109.742 232.392 109.742 232.7 109.724 233.003V233.311C109.724 233.545 109.711 233.779 109.711 234.008V234.112C109.711 234.286 109.698 234.477 109.698 234.65V235.001C109.685 235.174 109.685 235.352 109.685 235.512C109.685 235.993 109.672 236.474 109.672 236.955C109.672 237.129 109.659 237.319 109.659 237.493V238.234C109.659 238.29 109.659 238.338 109.646 238.394V238.788C109.633 240.873 109.633 242.81 109.633 244.544C109.633 244.994 109.646 245.445 109.646 245.87V247.252C109.659 247.369 109.659 247.469 109.646 247.586C109.659 247.876 109.659 248.166 109.659 248.444C109.672 249.345 109.69 250.134 109.69 250.775C109.703 250.923 109.703 251.066 109.703 251.2V251.213C109.703 251.447 109.716 251.651 109.716 251.841C109.716 252.47 109.729 252.803 109.729 252.803L109.642 252.76C109.512 252.686 109.278 252.569 108.944 252.383C107.371 251.568 103.683 249.601 99.2545 247.252C97.3303 246.234 95.2762 245.137 93.2091 244.032C85.3696 239.894 77.2094 235.551 74.7782 234.238C74.4705 234.065 74.2538 233.948 74.1368 233.887C74.1065 233.874 74.0631 233.844 74.0328 233.783C73.9765 233.709 73.9158 233.579 73.8595 233.406C73.8291 233.302 73.8031 233.202 73.7728 233.085V233.055C73.6688 232.691 73.5691 232.21 73.4824 231.612C73.4391 231.322 73.3958 231.001 73.3524 230.65C73.3091 230.329 73.2658 229.978 73.2224 229.614C73.1921 229.367 73.1661 229.103 73.1357 228.825C73.0187 227.703 72.9017 226.438 72.7847 225.021C72.7414 224.423 72.6981 223.781 72.6547 223.14C72.4944 221.276 72.3644 219.222 72.217 217.064C72.217 217.008 72.217 216.947 72.204 216.904C72.1607 216.306 72.1303 215.695 72.087 215.066C72.0567 214.455 72.0133 213.844 71.97 213.216C71.853 211.439 71.736 209.602 71.619 207.751C71.5886 207.283 71.5626 206.819 71.5323 206.369C71.502 205.844 71.4586 205.333 71.4283 204.809C71.3416 203.495 71.255 202.169 71.164 200.843C71.151 200.523 71.1206 200.215 71.1076 199.894V199.881C71.0773 199.327 71.0339 198.772 70.9906 198.221C70.9473 197.623 70.9039 197.043 70.8736 196.445C70.7869 195.309 70.7003 194.17 70.6136 193.064C70.6006 192.874 70.5832 192.687 70.5702 192.484C70.5399 192.033 70.4966 191.595 70.4662 191.158C70.4359 190.72 70.3926 190.3 70.3622 189.862C70.3622 189.832 70.3492 189.806 70.3492 189.788C70.2626 188.753 70.1759 187.747 70.0892 186.772C70.0762 186.625 70.0589 186.482 70.0459 186.334C69.9895 185.706 69.9289 185.112 69.8725 184.514V184.441C69.8422 184.237 69.8292 184.033 69.7989 183.843V183.756C69.7122 182.924 69.6082 182.122 69.5215 181.368C69.4912 181.078 69.4478 180.8 69.4175 180.523C69.3742 180.172 69.3308 179.838 69.2875 179.518C69.2442 179.197 69.2008 178.876 69.1575 178.568C69.1142 178.261 69.0708 177.957 69.0275 177.68C68.8975 176.805 68.7501 176.003 68.5898 175.305C68.5898 175.219 68.5594 175.132 68.5464 175.058C68.5161 174.911 68.4901 174.768 68.4424 174.634C68.2951 173.992 68.1348 173.438 67.9744 173C67.9311 172.839 67.8704 172.709 67.8141 172.592C67.8011 172.549 67.7837 172.506 67.7577 172.462C67.7144 172.358 67.6711 172.289 67.6277 172.215C67.5237 172.042 67.424 171.895 67.307 171.808C65.9679 170.729 64.9322 171.999 64.1305 175.058C63.6928 176.675 63.3418 178.816 63.0514 181.368C62.9647 182.157 62.8781 182.984 62.7871 183.847C62.7741 184.064 62.7567 184.285 62.7437 184.519C62.4837 187.504 62.293 190.928 62.176 194.69C62.163 194.703 62.163 194.733 62.176 194.763C62.046 198.408 61.9723 202.356 61.9593 206.538L59.9355 209.177V208.184C59.9485 204.848 60.0092 193.819 60.4729 184.519C60.4729 184.285 60.4859 184.068 60.5032 183.847C60.5466 183.002 60.5899 182.17 60.6333 181.368C60.7806 178.993 60.9539 176.822 61.1706 175.058C61.2443 174.447 61.318 173.893 61.4046 173.381C61.5347 172.592 61.682 171.851 61.8423 171.167C63.5194 163.999 66.6657 162.235 66.6657 162.235C66.6657 162.235 70.6743 154.075 79.9092 146.5C81.686 145.026 83.6404 143.601 85.8116 142.244L85.8246 142.231C85.8246 142.231 85.8376 142.201 85.8376 142.188C85.8506 142.157 85.8679 142.101 85.9113 142.027C85.9546 141.923 86.0109 141.78 86.0846 141.59C86.1279 141.486 86.1886 141.356 86.2449 141.226C86.3013 141.109 86.362 140.961 86.4183 140.818C86.5223 140.584 86.6393 140.337 86.7693 140.06C86.8127 139.943 86.8733 139.826 86.9297 139.709C86.986 139.536 87.077 139.358 87.1637 139.172C87.1637 139.159 87.1767 139.159 87.1767 139.141V139.128C90.1192 132.645 97.625 117.17 108.277 102.934C109.43 101.404 110.609 99.8873 111.818 98.4009C114.253 95.415 116.832 92.5418 119.527 89.8897C125.092 84.3816 131.215 79.7923 137.728 76.9928C139.258 76.3211 140.831 75.7707 142.422 75.3157C159.483 70.5054 193.714 68.9929 227.387 69.0059C233.129 69.0059 238.853 69.0493 244.478 69.136C245.427 69.149 246.39 69.1663 247.334 69.1793C247.755 69.1793 248.192 69.1923 248.617 69.1923C250.701 69.2356 252.756 69.279 254.797 69.3223C275.533 69.7903 293.977 70.6787 305.301 71.5238C338.973 74.0589 339.398 84.1563 339.398 84.1563L367.172 121.196L380.606 132.181L381.057 132.558C381.057 132.558 384.043 133.052 385.065 138.374C385.663 141.434 385.62 146.066 384.017 153.091C383.943 153.399 383.869 153.702 383.8 154.023C383.8 154.023 388.229 171.492 390.955 194.417C392.367 206.265 392.324 217.874 391.96 226.342L391.93 226.355Z" fill="#1470EB"/>
<path d="M363.787 119.832C353.257 123.515 336.841 125.63 264.036 123.728C191.227 121.838 169.975 115.944 169.975 115.944C169.975 115.944 165.134 99.3207 165.134 91.5245C165.134 83.7283 167.236 81.4272 179.231 78.0643C191.227 74.6971 238.576 73.8477 238.576 73.8477C238.576 73.8477 240.465 76.1618 243.204 77.0112C245.93 77.8476 287.178 78.476 288.863 78.476C290.549 78.476 293.067 74.9094 293.067 74.9094C293.067 74.9094 322.739 76.5865 334.522 82.6926C337.461 84.2137 343.367 91.4205 349.092 99.0823C349.127 99.117 349.153 99.143 349.153 99.143C356.615 109.11 363.783 119.832 363.783 119.832H363.787Z" fill="#B5C5EA"/>
<path d="M363.787 119.832C353.257 123.515 336.841 125.63 264.036 123.728C191.227 121.838 169.975 115.944 169.975 115.944C169.975 115.944 165.134 99.3207 165.134 91.5245C165.134 83.7283 167.236 81.4272 179.231 78.0643C191.227 74.6971 238.576 73.8477 238.576 73.8477C238.576 73.8477 240.465 76.1618 243.204 77.0112C245.93 77.8476 287.178 78.476 288.863 78.476C290.549 78.476 293.067 74.9094 293.067 74.9094C293.067 74.9094 322.739 76.5865 334.522 82.6926C337.461 84.2137 343.367 91.4205 349.092 99.0823C348.477 98.48 343.424 93.5916 337.049 89.8474C337.049 89.8474 286.332 73.6483 178.802 88.1573C178.802 88.1573 173.117 89.3577 174.807 115.026C174.807 115.026 186.599 117.184 205.003 118.675C246.528 122.029 320.915 125.682 363.783 119.827L363.787 119.832Z" fill="#15244F"/>
<path d="M375.146 134.111L371.566 193.126C371.497 194.352 371.284 195.548 370.942 196.679C368.992 203.375 362.816 208.194 355.566 208.194H210.637C201.97 208.194 194.247 203.635 189.914 196.679C188.107 193.776 186.88 190.443 186.43 186.842L179.582 132.434L375.146 134.111Z" fill="#003A8C"/>
<path d="M370.942 196.68C368.992 203.375 362.817 208.194 355.566 208.194H210.637C201.97 208.194 194.247 203.635 189.914 196.68H370.938H370.942Z" fill="#003A8C"/>
<path d="M206.516 180.971H162.746C162.746 180.971 195.014 153.192 211.287 149.548C227.56 145.899 297.708 141.972 329.972 146.18C362.24 150.388 369.256 155.025 375.146 162.665C381.035 170.31 384.125 180.971 384.125 180.971H206.516Z" fill="#1470EB"/>
<path d="M206.516 180.97C206.516 180.97 228.682 157.122 240.184 156.559C251.69 156 320.429 156.841 332.213 158.522C343.996 160.203 355.783 180.97 355.783 180.97C355.783 180.97 350.734 187.705 345.4 188.264C340.065 188.823 252.526 190.508 234.572 189.668C216.613 188.827 206.512 180.97 206.512 180.97H206.516Z" fill="#0C3671"/>
<path d="M389.031 255.878C388.987 255.934 388.927 255.982 388.87 256.008C388.827 256.038 388.797 256.064 388.753 256.094C388.697 256.151 388.623 256.198 388.55 256.255C388.359 256.372 388.155 256.502 387.908 256.619C387.631 256.749 387.31 256.883 386.916 257.013C386.521 257.143 386.071 257.26 385.546 257.377C385.052 257.481 384.485 257.594 383.826 257.698C383.492 257.754 383.111 257.815 382.717 257.871C382.426 257.901 382.105 257.945 381.767 257.988C381.65 258.001 381.52 258.018 381.39 258.044C381.304 258.044 381.217 258.057 381.113 258.075C380.779 258.105 380.441 258.148 380.077 258.192C379.8 258.222 379.523 258.248 379.232 258.278C378.868 258.322 378.474 258.352 378.08 258.395C377.846 258.426 377.612 258.439 377.365 258.469C377.031 258.499 376.68 258.525 376.329 258.556C373.035 258.846 368.823 259.154 363.432 259.505C362.734 259.548 362.019 259.592 361.274 259.635C358.11 259.826 354.587 260.042 350.622 260.263C349.937 260.307 349.222 260.35 348.507 260.38C347.822 260.424 347.124 260.467 346.422 260.497C345.447 260.554 344.442 260.614 343.419 260.671C343.172 260.684 342.938 260.701 342.691 260.714C342.05 260.744 341.395 260.77 340.724 260.818C339.835 260.861 338.93 260.922 337.998 260.965C336.862 261.022 335.697 261.095 334.501 261.156C331.658 261.303 328.642 261.464 325.508 261.624C303.741 262.673 275.485 263.721 248.574 264.406C215.161 265.282 183.773 265.602 169.32 264.727C168.358 264.671 167.427 264.61 166.521 264.554C165.793 264.51 165.095 264.45 164.406 264.406C163.708 264.363 163.037 264.32 162.382 264.259C162.062 264.246 161.741 264.215 161.433 264.185C161.316 264.185 161.199 264.172 161.082 264.155C160.411 264.111 159.756 264.051 159.128 263.994C159.097 263.994 159.054 263.994 159.024 263.981C158.031 263.895 157.1 263.808 156.198 263.704C155.6 263.648 155.019 263.574 154.447 263.513C154.17 263.483 153.91 263.457 153.633 263.409C152.892 263.323 152.177 263.236 151.505 263.132H151.492C151.202 263.089 150.911 263.045 150.617 263.002C150.149 262.928 149.698 262.855 149.277 262.785C148.84 262.712 148.432 262.625 148.025 262.551C147.236 262.404 146.508 262.231 145.841 262.057C145.65 262.014 145.464 261.953 145.286 261.91C144.978 261.823 144.688 261.737 144.411 261.646C144.12 261.559 143.83 261.455 143.566 261.355C143.028 261.165 142.547 260.961 142.11 260.727C141.876 260.623 141.672 260.51 141.481 260.393C141.481 260.393 141.481 260.406 141.468 260.393C141.278 260.276 141.091 260.159 140.914 260.042C140.74 259.925 140.58 259.808 140.42 259.678C139.939 259.301 139.531 258.876 139.197 258.426C138.994 258.148 138.803 257.845 138.63 257.524C138.296 256.87 138.032 256.155 137.815 255.384C137.772 255.193 137.728 255.02 137.685 254.816C137.629 254.612 137.581 254.409 137.538 254.205C137.347 253.403 137.143 251.787 136.866 249.572C136.836 249.308 136.81 249.035 136.762 248.77L137.871 248.523L141.923 247.622C142.478 247.505 143.059 247.388 143.644 247.258C143.817 247.228 143.995 247.184 144.168 247.141C149.312 246.062 155.635 244.84 162.369 243.73C162.443 243.717 162.517 243.7 162.603 243.687C171.565 242.231 181.255 241.035 189.896 240.745C194.689 240.584 219.127 240.103 248.574 239.592C273.184 239.167 301.305 238.734 324.386 238.456C329.166 238.4 333.725 238.339 337.994 238.296C342.977 238.24 347.554 238.209 351.601 238.179C360.372 238.105 366.743 238.123 369.508 238.209C374.127 238.357 378.266 238.734 381.863 239.184C385.477 239.635 388.524 240.16 390.911 240.658C390.968 244.125 390.911 254.153 389.005 255.886L389.031 255.878Z" fill="#0C3671"/>
<path d="M309.01 162.666H260.942C258.003 162.666 255.62 165.049 255.62 167.988V176.911C255.62 179.85 258.003 182.232 260.942 182.232H309.01C311.949 182.232 314.332 179.85 314.332 176.911V167.988C314.332 165.049 311.949 162.666 309.01 162.666Z" fill="#0C193A"/>
<path d="M74.1195 233.896C72.0177 232.739 71.06 174.868 67.2811 171.813C63.4892 168.766 62.0374 184.54 61.9334 206.538L59.9139 209.173C59.9139 208.536 59.9139 182.439 61.3917 173.394C62.8565 164.35 66.6484 162.248 66.6484 162.248C66.6484 162.248 72.3991 161.893 72.9668 185.321C73.5215 208.748 72.7545 225.515 74.1239 233.896H74.1195Z" fill="#003A8C"/>
<path d="M121.655 302.815C128.696 302.815 134.405 278.554 134.405 248.627C134.405 218.7 128.696 194.439 121.655 194.439C114.614 194.439 108.906 218.7 108.906 248.627C108.906 278.554 114.614 302.815 121.655 302.815Z" fill="#15244F"/>
<path d="M128.727 246.803C128.727 251.752 128.537 256.475 128.186 260.817C127.05 275.079 124.208 285.19 120.888 285.19C116.567 285.19 113.048 267.998 113.048 246.803C113.048 225.607 116.567 208.402 120.888 208.402C124.16 208.402 126.955 218.192 128.138 232.112C128.515 236.636 128.727 241.594 128.727 246.803Z" fill="#263968"/>
<path d="M128.728 246.802C128.728 251.751 128.537 256.475 128.186 260.817C121.915 259.639 117.144 253.649 117.144 246.46C117.144 239.27 121.889 233.316 128.138 232.111C128.515 236.636 128.728 241.593 128.728 246.802Z" fill="#0C193A"/>
<path d="M67.0904 262.182C71.4775 262.182 75.0339 245.236 75.0339 224.332C75.0339 203.428 71.4775 186.482 67.0904 186.482C62.7033 186.482 59.1469 203.428 59.1469 224.332C59.1469 245.236 62.7033 262.182 67.0904 262.182Z" fill="#15244F"/>
<path d="M71.4933 223.058C71.4933 226.511 71.3763 229.814 71.1553 232.847C70.4489 242.81 68.6765 249.87 66.6093 249.87C63.9182 249.87 61.7253 237.861 61.7253 223.053C61.7253 208.245 63.9182 196.232 66.6093 196.232C68.6461 196.232 70.3882 203.071 71.125 212.796C71.359 215.955 71.4933 219.417 71.4933 223.058Z" fill="#263968"/>
<path d="M71.4933 223.058C71.4933 226.512 71.3763 229.815 71.1553 232.848C67.2507 232.025 64.2778 227.843 64.2778 222.82C64.2778 217.797 67.2334 213.642 71.125 212.801C71.359 215.96 71.4933 219.423 71.4933 223.063V223.058Z" fill="#0C193A"/>
<path d="M134.409 132.434L120.099 164.021L117.547 185.867C111.241 190.994 109.872 219.119 109.647 237.242C109.564 244.219 109.647 249.723 109.694 251.846C109.707 252.471 109.716 252.804 109.716 252.804L109.621 252.757C107.649 251.708 76.1433 235.023 74.1152 233.901C73.9852 233.832 73.8681 233.559 73.7511 233.099C73.6341 231.361 73.4911 229.251 73.3394 226.902C72.5941 214.634 71.7317 195.917 73.0578 189.91C75.0772 180.71 78.2538 147.9 86.4226 144.368C94.6045 140.836 134.409 132.442 134.409 132.442V132.434Z" fill="#003A8C"/>
<g style="mix-blend-mode:multiply" opacity="0.55">
<path d="M91.5276 233.536H91.5059C91.1809 233.523 90.9252 233.25 90.9382 232.925L92.4983 191.734C92.9707 179.305 95.8092 167.258 100.936 155.93L109.183 137.707C109.317 137.408 109.672 137.278 109.963 137.412C110.262 137.547 110.392 137.898 110.257 138.192L102.011 156.415C96.9489 167.605 94.1451 179.5 93.6814 191.778L92.1213 232.969C92.1083 233.285 91.8483 233.536 91.5319 233.536H91.5276Z" fill="#6A194C"/>
</g>
<path d="M94.6349 160.931L86.3707 161.417C85.2483 161.482 84.2863 160.628 84.2213 159.506C84.1562 158.383 85.01 157.421 86.1324 157.356L94.3966 156.871C95.519 156.806 96.4811 157.659 96.5461 158.782C96.6111 159.904 95.7573 160.866 94.6349 160.931Z" fill="#0C193A"/>
<path d="M117.3 155.896L109.036 156.381C107.913 156.446 106.951 155.593 106.886 154.47C106.821 153.348 107.675 152.386 108.797 152.321L117.061 151.836C118.184 151.771 119.146 152.624 119.211 153.747C119.276 154.869 118.422 155.831 117.3 155.896Z" fill="#0C193A"/>
<path d="M156.289 97.8464C156.289 97.8464 145.767 123.943 137.893 127.519C137.468 127.709 136.935 127.93 136.298 128.169C135.778 128.359 135.211 128.572 134.573 128.784C134.162 128.927 133.711 129.079 133.239 129.235C132.541 129.46 131.787 129.707 130.985 129.954C130.478 130.106 129.958 130.275 129.416 130.44C129.334 130.461 129.252 130.487 129.182 130.509C128.792 130.626 128.402 130.743 128.004 130.864C127.566 130.994 127.12 131.137 126.669 131.267C126.231 131.397 125.785 131.527 125.334 131.657C124.19 131.987 123.007 132.329 121.794 132.671C121.464 132.78 121.122 132.871 120.78 132.966C119.384 133.356 117.958 133.759 116.515 134.158C114.4 134.738 112.264 135.315 110.149 135.896C109.985 135.93 109.829 135.978 109.677 136.013V136.026C107.007 136.732 104.385 137.43 101.907 138.093C101.872 138.106 101.837 138.114 101.798 138.114C99.8135 138.634 97.9154 139.128 96.1646 139.592C95.5839 139.744 95.0205 139.887 94.4745 140.03C93.6598 140.242 92.8797 140.442 92.1473 140.632C90.6956 140.996 89.4432 141.317 88.4291 141.577C88.0997 141.659 87.792 141.742 87.519 141.815C86.9643 141.958 86.5396 142.062 86.2449 142.136C86.0673 142.184 85.9373 142.218 85.8679 142.231C85.8463 142.231 85.8203 142.244 85.8073 142.244C85.8073 142.231 85.8203 142.223 85.8203 142.197C85.8419 142.162 85.8549 142.114 85.8896 142.045C85.9373 141.937 85.9979 141.798 86.0673 141.607C86.1149 141.499 86.1756 141.369 86.2189 141.243C86.336 141.009 86.4573 140.71 86.609 140.394C86.6436 140.286 86.6913 140.181 86.752 140.073C86.7996 139.965 86.8473 139.848 86.9037 139.731C86.973 139.553 87.0683 139.367 87.1637 139.163C88.3901 136.494 90.4832 132.234 93.4908 126.916C93.7724 126.422 94.0585 125.911 94.3661 125.391C94.9079 124.446 95.4756 123.467 96.0909 122.461C96.4203 121.894 96.7626 121.326 97.118 120.763C100.637 115.012 105.018 108.481 110.305 101.647C115.003 95.5799 119.917 91.3503 124.662 88.4468C137.035 80.8759 148.268 82.2714 151.514 83.3331C155.999 84.8109 156.285 97.855 156.285 97.855L156.289 97.8464Z" fill="#15244F"/>
<path d="M152.71 99.8073C152.71 99.8073 147.054 113.848 140.914 122.736C140.038 124.024 139.141 125.194 138.257 126.208C137.594 126.962 136.948 127.625 136.298 128.166C135.778 128.357 135.211 128.569 134.573 128.782C134.149 128.925 133.711 129.064 133.239 129.233C132.541 129.458 131.787 129.705 130.985 129.952C130.478 130.104 129.958 130.273 129.416 130.437C129.334 130.459 129.252 130.485 129.182 130.507C128.792 130.624 128.402 130.741 128.004 130.862C127.566 130.992 127.12 131.135 126.669 131.265C126.231 131.395 125.785 131.525 125.334 131.655C124.19 131.984 123.007 132.327 121.794 132.669C121.464 132.777 121.122 132.868 120.78 132.964C119.384 133.354 117.958 133.757 116.515 134.156C114.4 134.736 112.264 135.313 110.149 135.893C109.985 135.941 109.829 135.976 109.677 136.023C107.02 136.743 104.385 137.44 101.907 138.09C101.872 138.103 101.837 138.112 101.798 138.112C99.8135 138.645 97.9154 139.139 96.1646 139.59C95.5839 139.742 95.0205 139.885 94.4745 140.028C93.6598 140.24 92.8797 140.439 92.1473 140.63C90.6956 140.994 89.4432 141.315 88.4291 141.575C88.0997 141.657 87.792 141.739 87.519 141.813C86.9643 141.956 86.5396 142.06 86.2449 142.134C86.0673 142.181 85.9373 142.203 85.8679 142.229C85.8463 142.229 85.8203 142.242 85.8073 142.242C85.8073 142.229 85.8203 142.22 85.8203 142.194C85.8419 142.16 85.8549 142.112 85.8896 142.043C85.9373 141.934 85.9979 141.796 86.0673 141.605C86.1149 141.497 86.1756 141.367 86.2189 141.241C86.336 141.007 86.4573 140.708 86.609 140.392C86.6436 140.283 86.6913 140.179 86.752 140.071C86.7996 139.963 86.8473 139.846 86.9037 139.729C86.973 139.551 87.0683 139.365 87.1637 139.161C88.3901 136.491 90.4832 132.231 93.4908 126.914C93.7724 126.42 94.0585 125.909 94.3661 125.389C94.9079 124.444 95.4756 123.464 96.0909 122.459C96.4203 121.891 96.7626 121.324 97.118 120.76C100.637 115.01 105.018 108.479 110.305 101.645C115.003 95.5776 119.917 91.348 124.662 88.4445C126.058 87.7598 127.427 87.1921 128.758 86.7197C129.984 86.269 131.18 85.905 132.337 85.6103C139.8 83.6992 145.728 84.5703 147.934 85.2896C148.359 85.4326 148.762 85.6797 149.104 86.009C149.884 86.7284 150.487 87.8378 150.959 89.1379C152.567 93.4845 152.705 99.8116 152.705 99.8116L152.71 99.8073Z" fill="#B5C5EA"/>
<path d="M132.342 85.5996C129.295 94.9169 120.273 122.604 116.507 134.153C114.392 134.734 112.255 135.311 110.141 135.891C109.976 135.939 109.82 135.974 109.668 136.021V136.008L128.762 86.709C129.989 86.2583 131.185 85.8943 132.342 85.5996Z" fill="#15244F"/>
<path d="M150.963 89.1308L140.914 122.738C140.038 124.025 139.141 125.195 138.257 126.209L149.108 86.002C149.889 86.7213 150.491 87.8307 150.963 89.1308Z" fill="#15244F"/>
<path d="M81.0965 148.984C83.298 150.492 86.4962 147.58 86.8472 146.739C87.1983 145.899 87.4799 128.291 86.1452 125.487C84.8104 122.683 70.5008 125.206 67.6276 126.471C64.7501 127.732 64.5421 129.067 64.7501 131.381C64.9625 133.695 66.1542 140.079 68.256 141.413C70.3621 142.748 78.9167 143.446 79.2677 144.36C79.6188 145.27 80.1345 148.334 81.0922 148.988L81.0965 148.984Z" fill="#003A8C"/>
<path d="M84.6719 140.638C85.2439 139.875 85.2309 126.259 84.6719 126.047C84.1129 125.835 71.6537 125.366 67.7491 128.781C65.8813 130.415 67.3461 139.165 69.9419 140.356C72.5378 141.548 83.6188 142.038 84.6719 140.638Z" fill="#B5C5EA"/>
<path d="M219.993 132.776C219.993 132.776 219.582 133.14 218.858 133.769C214.62 137.478 199.682 150.228 194.169 150.947C189.411 151.562 177.52 152.269 168.64 152.364C165.489 152.399 162.725 152.364 160.775 152.212C153.347 151.658 148.151 146.037 145.767 142.956C143.384 139.875 143.522 132.152 144.61 131.727C145.698 131.316 219.989 132.776 219.989 132.776H219.993Z" fill="#ED3232"/>
<path d="M168.64 152.363C165.489 152.398 162.725 152.363 160.775 152.212C153.347 151.657 148.151 146.036 145.767 142.955C143.384 139.874 143.522 132.151 144.61 131.727L162.746 140.285L168.64 152.363Z" fill="#F76161"/>
<path d="M219.993 132.776C219.993 132.776 219.582 133.14 218.858 133.769L162.746 140.286L144.61 131.727C145.698 131.316 219.989 132.776 219.989 132.776H219.993Z" fill="#F76161"/>
<path d="M175.093 149.972C177.575 149.972 179.587 147.96 179.587 145.478C179.587 142.996 177.575 140.984 175.093 140.984C172.611 140.984 170.599 142.996 170.599 145.478C170.599 147.96 172.611 149.972 175.093 149.972Z" fill="url(#paint0_radial_1822_33481)"/>
<path d="M385.044 138.394C385.633 141.454 385.598 146.082 383.995 153.107C379.722 152.834 375.943 152.505 373.733 152.197C368.35 151.43 353.209 138.875 349.079 134.932C348.381 134.26 347.969 133.87 347.969 133.87C347.969 133.87 363.9 132.518 380.584 132.197L381.044 132.574C381.044 132.574 384.021 133.068 385.048 138.394H385.044Z" fill="#ED3232"/>
<path d="M385.044 138.394L349.079 134.932C348.381 134.26 347.969 133.87 347.969 133.87C347.969 133.87 363.9 132.518 380.584 132.197L381.044 132.574C381.044 132.574 384.021 133.068 385.048 138.394H385.044Z" fill="#F76161"/>
<path d="M382.283 144.27C382.283 146.904 380.324 149.05 377.889 149.05C375.453 149.05 373.507 146.9 373.507 144.27C373.507 141.639 375.466 139.477 377.889 139.477C380.311 139.477 382.283 141.626 382.283 144.27Z" fill="url(#paint1_radial_1822_33481)"/>
<path d="M109.72 252.799L109.625 252.751C107.653 251.702 76.1477 235.018 74.1196 233.895C73.9896 233.826 73.8726 233.553 73.7556 233.094C73.6386 231.356 73.4955 229.245 73.3439 226.896C85.2917 230.285 100.654 234.641 109.651 237.241C109.569 244.218 109.651 249.722 109.699 251.845C109.712 252.469 109.72 252.803 109.72 252.803V252.799Z" fill="#1470EB"/>
<path d="M141.941 247.618L136.792 248.762C134.712 231.83 129.872 185.036 119.67 185.036C107.887 185.036 109.716 252.801 109.716 252.801C104.39 218.569 105.157 157.604 121.144 164.559C137.13 171.502 141.772 243.886 141.936 247.618H141.941Z" fill="#003A8C"/>
<path d="M137.893 248.514L136.888 249.563C136.866 249.303 136.827 249.03 136.792 248.761C134.712 231.829 129.871 185.035 119.67 185.035C108.71 185.035 109.529 243.613 109.694 251.842L109.551 251.69C109.551 251.69 105.157 170.028 119.258 175.081C133.356 180.121 137.984 248.314 137.893 248.514Z" fill="#1470EB"/>
<defs>
<radialGradient id="paint0_radial_1822_33481" cx="0" cy="0" r="1" gradientUnits="userSpaceOnUse" gradientTransform="translate(175.093 145.478) scale(4.49397 4.49396)">
<stop stop-color="#FF0050"/>
<stop offset="0.3" stop-color="#FA1248"/>
<stop offset="0.72" stop-color="#F4263F"/>
<stop offset="1" stop-color="#F32E3D"/>
</radialGradient>
<radialGradient id="paint1_radial_1822_33481" cx="0" cy="0" r="1" gradientUnits="userSpaceOnUse" gradientTransform="translate(377.893 144.265) scale(4.59364)">
<stop stop-color="#FF0050"/>
<stop offset="0.3" stop-color="#FA1248"/>
<stop offset="0.72" stop-color="#F4263F"/>
<stop offset="1" stop-color="#F32E3D"/>
</radialGradient>
</defs>
</svg>
