<svg width="421" height="274" viewBox="0 0 421 274" fill="none" xmlns="http://www.w3.org/2000/svg">
<path d="M165.386 17.3994H99.4727C98.9542 17.3994 98.5339 17.8197 98.5339 18.3382V67.1779C98.5339 67.6963 98.9542 68.1166 99.4727 68.1166H165.386C165.905 68.1166 166.325 67.6963 166.325 67.1779V18.3382C166.325 17.8197 165.905 17.3994 165.386 17.3994Z" fill="#ABC7EC"/>
<path d="M125.193 47.752H107.29V48.6907H125.193V47.752Z" fill="#ABC7EC"/>
<path d="M125.193 50.6758H102.127V51.6146H125.193V50.6758Z" fill="#ABC7EC"/>
<path d="M125.193 53.6006H102.127V54.5394H125.193V53.6006Z" fill="#ABC7EC"/>
<path d="M125.193 56.5234H102.127V57.4622H125.193V56.5234Z" fill="#ABC7EC"/>
<path d="M125.193 59.4492H102.127V60.388H125.193V59.4492Z" fill="#ABC7EC"/>
<path d="M115.857 62.374H102.127V63.3128H115.857V62.374Z" fill="#ABC7EC"/>
<path d="M124.254 21.4551H103.066C102.548 21.4551 102.127 21.8754 102.127 22.3939V42.2559C102.127 42.7744 102.548 43.1947 103.066 43.1947H124.254C124.773 43.1947 125.193 42.7744 125.193 42.2559V22.3939C125.193 21.8754 124.773 21.4551 124.254 21.4551Z" fill="#ABC7EC"/>
<path d="M113.66 34.5457C116.201 34.5457 118.26 32.4862 118.26 29.9457C118.26 27.4052 116.201 25.3457 113.66 25.3457C111.12 25.3457 109.06 27.4052 109.06 29.9457C109.06 32.4862 111.12 34.5457 113.66 34.5457Z" fill="#ABC7EC"/>
<path d="M117.995 33.6367C116.95 34.8618 115.397 35.641 113.66 35.641C111.923 35.641 110.37 34.8642 109.325 33.6367C105.807 35.0965 103.366 38.2766 103.366 41.966H123.954C123.954 38.2766 121.513 35.0965 117.995 33.6367Z" fill="#ABC7EC"/>
<path d="M152.3 47.752H134.398V48.6907H152.3V47.752Z" fill="#ABC7EC"/>
<path d="M152.3 50.6758H129.234V51.6146H152.3V50.6758Z" fill="#ABC7EC"/>
<path d="M145.367 53.6006H129.234V54.5394H145.367V53.6006Z" fill="#ABC7EC"/>
<path d="M152.3 56.5234H134.398V57.4622H152.3V56.5234Z" fill="#ABC7EC"/>
<path d="M152.3 59.4492H129.234V60.388H152.3V59.4492Z" fill="#ABC7EC"/>
<path d="M138.739 62.374H129.234V63.3128H138.739V62.374Z" fill="#ABC7EC"/>
<path d="M151.361 21.4551H130.173C129.654 21.4551 129.234 21.8754 129.234 22.3939V42.2559C129.234 42.7744 129.654 43.1947 130.173 43.1947H151.361C151.879 43.1947 152.3 42.7744 152.3 42.2559V22.3939C152.3 21.8754 151.879 21.4551 151.361 21.4551Z" fill="#ABC7EC"/>
<path d="M140.767 34.5457C143.308 34.5457 145.367 32.4862 145.367 29.9457C145.367 27.4052 143.308 25.3457 140.767 25.3457C138.227 25.3457 136.167 27.4052 136.167 29.9457C136.167 32.4862 138.227 34.5457 140.767 34.5457Z" fill="#ABC7EC"/>
<path d="M145.102 33.6367C144.058 34.8618 142.504 35.641 140.767 35.641C139.03 35.641 137.477 34.8642 136.432 33.6367C132.914 35.0965 130.474 38.2766 130.474 41.966H151.061C151.061 38.2766 148.62 35.0965 145.102 33.6367Z" fill="#ABC7EC"/>
<path d="M124.254 80.5078H100.238C99.7191 80.5078 99.2988 80.9281 99.2988 81.4466V92.686C99.2988 93.2045 99.7191 93.6248 100.238 93.6248H124.254C124.772 93.6248 125.193 93.2045 125.193 92.686V81.4466C125.193 80.9281 124.772 80.5078 124.254 80.5078Z" fill="#ABC7EC"/>
<path d="M106.232 89.2364C107.431 89.2364 108.402 88.2644 108.402 87.0654C108.402 85.8665 107.431 84.8945 106.232 84.8945C105.033 84.8945 104.061 85.8665 104.061 87.0654C104.061 88.2644 105.033 89.2364 106.232 89.2364Z" fill="#ABC7EC"/>
<path d="M118.26 89.2364C119.458 89.2364 120.43 88.2644 120.43 87.0654C120.43 85.8665 119.458 84.8945 118.26 84.8945C117.061 84.8945 116.089 85.8665 116.089 87.0654C116.089 88.2644 117.061 89.2364 118.26 89.2364Z" fill="#ABC7EC"/>
<path d="M124.254 97.8066H100.238C99.7193 97.8066 99.299 98.2269 99.299 98.7454V109.985C99.299 110.503 99.7193 110.924 100.238 110.924H124.254C124.772 110.924 125.193 110.503 125.193 109.985V98.7454C125.193 98.2269 124.772 97.8066 124.254 97.8066Z" fill="#ABC7EC"/>
<path d="M106.232 106.536C107.431 106.536 108.403 105.564 108.403 104.365C108.403 103.166 107.431 102.194 106.232 102.194C105.033 102.194 104.061 103.166 104.061 104.365C104.061 105.564 105.033 106.536 106.232 106.536Z" fill="#ABC7EC"/>
<path d="M118.26 106.536C119.459 106.536 120.431 105.564 120.431 104.365C120.431 103.166 119.459 102.194 118.26 102.194C117.061 102.194 116.089 103.166 116.089 104.365C116.089 105.564 117.061 106.536 118.26 106.536Z" fill="#ABC7EC"/>
<path d="M93.0233 0H77.6157V136.235H93.0233V0Z" fill="#ABC7EC"/>
<path d="M226.437 0H211.029V136.235H226.437V0Z" fill="#ABC7EC"/>
<path d="M259.862 39.7377C259.862 38.9398 260.388 38.2662 261.111 38.0385C260.982 37.196 260.761 36.384 260.458 35.6142C259.719 35.7831 258.926 35.464 258.524 34.774C258.123 34.0863 258.236 33.2391 258.747 32.6782C258.21 32.014 257.6 31.4132 256.929 30.8851C256.375 31.4038 255.532 31.5282 254.835 31.1386C254.14 30.7466 253.809 29.9581 253.967 29.2188C253.244 28.9465 252.483 28.7447 251.695 28.625C251.467 29.3479 250.794 29.8712 249.996 29.8712C249.198 29.8712 248.524 29.3479 248.296 28.625C247.456 28.7541 246.644 28.9723 245.872 29.2774C246.041 30.0167 245.722 30.81 245.032 31.2137C244.344 31.6126 243.497 31.5 242.936 30.9907C242.272 31.5282 241.671 32.136 241.143 32.8072C241.662 33.3588 241.788 34.2037 241.397 34.9007C241.005 35.5977 240.216 35.9263 239.474 35.7691C239.2 36.4943 239 37.2547 238.881 38.0409C239.603 38.2685 240.127 38.9421 240.127 39.7401C240.127 40.538 239.603 41.2116 238.881 41.4393C239.007 42.2818 239.228 43.0938 239.533 43.8636C240.272 43.6923 241.068 44.0138 241.469 44.7038C241.871 45.3915 241.758 46.2387 241.246 46.7973C241.781 47.4615 242.394 48.0623 243.065 48.5904C243.617 48.0717 244.462 47.9473 245.156 48.3369C245.851 48.7288 246.182 49.5174 246.025 50.259C246.75 50.5313 247.51 50.7331 248.296 50.8528C248.524 50.1299 249.2 49.6042 249.996 49.6042C250.791 49.6042 251.47 50.1299 251.695 50.8505C252.537 50.7237 253.349 50.5031 254.119 50.198C253.95 49.4587 254.269 48.6655 254.959 48.2641C255.647 47.8628 256.494 47.9778 257.053 48.4871C257.717 47.952 258.318 47.3394 258.848 46.6659C258.33 46.1143 258.203 45.2694 258.595 44.5748C258.987 43.8801 259.775 43.5491 260.517 43.7064C260.792 42.9812 260.993 42.2208 261.113 41.4346C260.39 41.2069 259.865 40.531 259.865 39.7354L259.862 39.7377ZM249.993 46.2739C246.384 46.2739 243.457 43.3497 243.457 39.7377C243.457 36.1258 246.384 33.2015 249.993 33.2015C253.603 33.2015 256.532 36.1281 256.532 39.7377C256.532 43.3473 253.605 46.2739 249.993 46.2739Z" fill="#ABC7EC"/>
<path d="M253.338 39.7375C253.338 41.5846 251.843 43.0796 249.996 43.0796C248.149 43.0796 246.654 41.5822 246.654 39.7375C246.654 37.8929 248.151 36.3955 249.996 36.3955C251.84 36.3955 253.338 37.8929 253.338 39.7375Z" fill="#ABC7EC"/>
<path d="M279.053 117.968C279.752 116.247 281.475 115.255 283.23 115.398C283.693 113.471 283.927 111.525 283.949 109.599C282.205 109.315 280.776 107.932 280.513 106.092C280.252 104.257 281.236 102.53 282.827 101.769C282.252 99.8682 281.461 98.0352 280.475 96.3079C278.828 96.9392 276.898 96.4722 275.741 95.0194C274.587 93.5667 274.563 91.5765 275.551 90.1167C274.23 88.8939 272.765 87.7932 271.174 86.8474C270.052 88.2086 268.137 88.7437 266.417 88.0467C264.699 87.3496 263.704 85.6293 263.845 83.8715C261.918 83.4115 259.975 83.1744 258.048 83.1533C257.764 84.8971 256.381 86.3264 254.539 86.5916C252.704 86.8497 250.976 85.864 250.214 84.2752C248.313 84.8525 246.482 85.6387 244.755 86.6244C245.388 88.2696 244.919 90.2012 243.469 91.3582C242.016 92.5152 240.026 92.5364 238.564 91.5483C237.338 92.8696 236.24 94.3365 235.292 95.9253C236.651 97.0472 237.191 98.9599 236.494 100.68C235.794 102.401 234.076 103.396 232.318 103.255C231.856 105.182 231.621 107.127 231.6 109.052C233.344 109.333 234.778 110.718 235.036 112.56C235.297 114.393 234.313 116.121 232.722 116.881C233.297 118.782 234.088 120.615 235.076 122.342C236.719 121.709 238.65 122.178 239.807 123.629C240.964 125.081 240.986 127.074 239.998 128.531C241.319 129.754 242.781 130.857 244.375 131.801C245.499 130.442 247.414 129.902 249.132 130.599C250.852 131.298 251.85 133.021 251.706 134.776C253.636 135.241 255.579 135.476 257.503 135.495C257.787 133.753 259.17 132.324 261.012 132.059C262.847 131.798 264.575 132.784 265.333 134.373C267.234 133.8 269.067 133.009 270.796 132.019C270.16 130.378 270.63 128.444 272.08 127.287C273.535 126.133 275.525 126.109 276.983 127.1C278.21 125.778 279.311 124.314 280.254 122.723C278.896 121.598 278.356 119.683 279.053 117.965V117.968ZM252.051 123.42C244.267 120.258 240.519 111.387 243.682 103.6C246.844 95.815 255.72 92.0693 263.502 95.2306C271.289 98.3943 275.035 107.268 271.874 115.05C268.71 122.838 259.839 126.581 252.051 123.417V123.42Z" fill="#ABC7EC"/>
<path d="M264.983 112.255C263.366 116.236 258.832 118.153 254.849 116.534C250.871 114.917 248.953 110.38 250.57 106.4C252.188 102.419 256.726 100.502 260.705 102.119C264.687 103.736 266.6 108.275 264.983 112.255Z" fill="#ABC7EC"/>
<path d="M324.294 66.328C324.873 64.9034 326.3 64.0814 327.754 64.1999C328.137 62.6043 328.331 60.9932 328.348 59.3977C326.904 59.1625 325.721 58.0178 325.503 56.4942C325.287 54.9744 326.102 53.544 327.419 52.9144C326.943 51.3402 326.288 49.8224 325.472 48.392C324.108 48.9148 322.51 48.528 321.552 47.325C320.596 46.1221 320.577 44.474 321.395 43.2652C320.301 42.2527 319.088 41.3412 317.77 40.558C316.841 41.6852 315.255 42.1283 313.831 41.5511C312.408 40.9739 311.584 39.5493 311.701 38.0937C310.105 37.7128 308.496 37.5165 306.901 37.499C306.665 38.943 305.521 40.1266 303.995 40.3462C302.475 40.5599 301.045 39.7437 300.413 38.428C298.839 38.9061 297.323 39.5571 295.893 40.3734C296.418 41.7357 296.029 43.3352 294.828 44.2933C293.625 45.2514 291.977 45.2689 290.766 44.4507C289.752 45.5449 288.842 46.7595 288.057 48.0752C289.182 49.0042 289.629 50.5881 289.052 52.0126C288.473 53.4372 287.05 54.2612 285.595 54.1446C285.212 55.7401 285.017 57.3512 285 58.9448C286.444 59.1781 287.631 60.3247 287.845 61.8503C288.061 63.3681 287.247 64.7985 285.929 65.4282C286.405 67.0023 287.06 68.5202 287.878 69.9505C289.239 69.4258 290.838 69.8145 291.796 71.0155C292.754 72.2185 292.772 73.8685 291.954 75.0754C293.048 76.0879 294.259 77.0013 295.578 77.7826C296.509 76.6573 298.095 76.2103 299.517 76.7875C300.942 77.3667 301.768 78.7932 301.649 80.2469C303.247 80.6317 304.856 80.826 306.45 80.8415C306.685 79.3995 307.83 78.216 309.355 77.9964C310.875 77.7806 312.305 78.5969 312.933 79.9126C314.507 79.4384 316.025 78.7835 317.457 77.9633C316.931 76.6049 317.319 75.0035 318.52 74.0453C319.725 73.0892 321.373 73.0697 322.58 73.8899C323.597 72.7957 324.508 71.583 325.289 70.2654C324.164 69.3345 323.717 67.7486 324.294 66.326V66.328ZM301.935 70.8426C295.489 68.2248 292.385 60.8786 295.005 54.4302C297.623 47.9839 304.973 44.8821 311.417 47.5C317.865 50.1197 320.967 57.4678 318.349 63.9123C315.73 70.3606 308.383 73.4604 301.935 70.8406V70.8426Z" fill="#ABC7EC"/>
<path d="M312.643 61.5974C311.304 64.8935 307.55 66.4813 304.252 65.1403C300.958 63.8013 299.37 60.0446 300.709 56.7485C302.048 53.4525 305.806 51.8647 309.1 53.2037C312.399 54.5427 313.982 58.3013 312.643 61.5974Z" fill="#ABC7EC"/>
<path d="M257.015 73.3746L259.386 72.2645L262.561 73.9895C262.594 72.3302 261.723 70.7108 260.165 69.8659C258.747 69.0961 257.102 69.1524 255.781 69.8706L236.609 60.1308C236.442 59.3 235.921 58.5466 235.118 58.1101C233.68 57.3286 231.882 57.8613 231.1 59.3C230.319 60.7387 230.852 62.5364 232.29 63.3179C233.093 63.7545 234.008 63.7803 234.797 63.4681L253.403 74.2476C253.521 75.745 254.368 77.1578 255.785 77.9276C257.344 78.7749 259.177 78.6223 260.55 77.6929L257.374 75.9679L257.015 73.3769V73.3746ZM233.126 61.776C232.539 61.4568 232.321 60.7222 232.64 60.1355C232.959 59.5488 233.694 59.3305 234.28 59.6497C234.867 59.9689 235.085 60.7035 234.766 61.2902C234.447 61.8769 233.712 62.0952 233.126 61.776ZM253.511 72.072L236.376 62.7664C236.12 62.6279 236.024 62.3064 236.165 62.0506C236.303 61.7948 236.625 61.6986 236.881 61.8394L254.016 71.145C254.272 71.2834 254.368 71.605 254.227 71.8608C254.089 72.1166 253.767 72.2128 253.511 72.072Z" fill="#ABC7EC"/>
<path d="M264.056 9.56036L264.014 7.78139L265.955 6.277C264.932 5.80292 263.685 5.9015 262.732 6.64078C261.864 7.312 261.451 8.35169 261.538 9.37026L250.237 18.6406C249.674 18.5186 249.064 18.636 248.571 19.0162C247.691 19.6968 247.531 20.9641 248.214 21.8419C248.895 22.722 250.16 22.8816 251.04 22.1986C251.531 21.8184 251.798 21.2551 251.819 20.6801L263.613 12.0458C264.577 12.3837 265.687 12.2406 266.553 11.5693C267.506 10.8301 267.912 9.64955 267.708 8.53945L265.767 10.0438L264.056 9.56036ZM250.31 21.2575C249.951 21.5368 249.435 21.4711 249.155 21.112C248.876 20.7529 248.942 20.2366 249.301 19.9573C249.66 19.678 250.176 19.7437 250.456 20.1028C250.735 20.4619 250.669 20.9782 250.31 21.2575ZM262.289 11.3839L251.815 19.5043C251.657 19.6264 251.432 19.5982 251.31 19.441C251.188 19.2837 251.216 19.0584 251.373 18.9364L261.848 10.816C262.005 10.6939 262.23 10.7221 262.352 10.8793C262.474 11.0366 262.446 11.2619 262.289 11.3839Z" fill="#ABC7EC"/>
<path d="M418.055 190.728C412.218 184.892 337.773 168.231 322.124 162.328C291.595 150.812 259.726 123.003 210.414 114.993C154.086 105.845 4.54133 143.677 2.5746 145.646C0.607868 147.613 9.51683 161.425 9.51683 161.425C9.51683 161.425 -2.63325 217.08 0.523379 224.97C2.16154 229.068 18.9351 233.804 39.8134 237.411C40.1631 218.112 55.904 202.576 75.2873 202.576C94.6706 202.576 110.775 218.464 110.775 238.066C110.775 239.998 110.616 241.889 110.32 243.736C150.633 244.459 221.278 245.597 283.944 245.949C283.369 243.412 283.054 240.777 283.054 238.064C283.054 218.462 298.943 202.573 318.545 202.573C338.146 202.573 354.035 218.462 354.035 238.064C354.035 240.763 353.723 243.389 353.152 245.914C385.341 245.611 407.855 244.783 410.483 243.112C420.899 236.487 423.894 196.565 418.057 190.728H418.055Z" fill="#1470EB"/>
<path d="M45.6901 175.093C45.6901 177.708 43.5709 179.827 40.9564 179.827H27.7032C25.0888 179.827 22.9695 177.708 22.9695 175.093V167.696C22.9695 165.081 25.0888 162.962 27.7032 162.962H40.9564C43.5709 162.962 45.6901 165.081 45.6901 167.696V175.093Z" fill="#0B499C"/>
<path d="M416.693 191.489C414.276 189.072 390.401 182.831 384.869 181.066C393.477 193.04 397.202 199.105 419.589 209.201C419.948 199.035 419.017 193.813 416.693 191.487V191.489Z" fill="#FFFBEB"/>
<path d="M195.225 234.595C194.725 234.595 194.307 234.205 194.281 233.701L190.536 165.431C190.507 164.91 190.906 164.461 191.427 164.433C191.963 164.414 192.397 164.804 192.425 165.327L196.171 233.597C196.199 234.118 195.8 234.564 195.276 234.595C195.258 234.595 195.241 234.595 195.225 234.595Z" fill="#114489"/>
<path d="M265.323 234.596H132.785C132.482 234.596 132.198 234.453 132.019 234.207C100.303 190.638 85.5783 163.695 85.4328 163.428C85.184 162.968 85.353 162.393 85.813 162.144C86.273 161.895 86.848 162.064 87.0968 162.524C87.2423 162.789 101.829 189.476 133.268 232.702H264.696C268.761 223.089 272.523 213.34 276.163 203.903C280.341 193.081 284.657 181.891 289.461 170.818C289.67 170.339 290.226 170.119 290.707 170.328C291.186 170.537 291.407 171.093 291.198 171.574C286.41 182.609 282.099 193.781 277.931 204.586C274.211 214.222 270.366 224.19 266.196 234.019C266.048 234.369 265.705 234.596 265.325 234.596H265.323Z" fill="#114489"/>
<path d="M137.479 224.524H187.09C187.614 224.524 188.036 224.949 188.036 225.47V226.416C188.036 226.939 187.611 227.362 187.09 227.362H137.479C136.955 227.362 136.533 226.937 136.533 226.416V225.47C136.533 224.947 136.958 224.524 137.479 224.524Z" fill="#114489"/>
<path d="M207.218 224.524H256.829C257.353 224.524 257.775 224.949 257.775 225.47V226.418C257.775 226.942 257.35 227.364 256.829 227.364H207.218C206.694 227.364 206.272 226.939 206.272 226.418V225.47C206.272 224.947 206.697 224.524 207.218 224.524Z" fill="#114489"/>
<path d="M14.7246 160.782C14.3538 160.782 13.9994 160.561 13.8492 160.195C13.6497 159.712 13.8797 159.158 14.3632 158.958L93.084 126.514C93.5675 126.317 94.1214 126.545 94.3209 127.028C94.5204 127.512 94.2904 128.066 93.8069 128.265L15.0861 160.709C14.9687 160.758 14.8467 160.779 14.727 160.779L14.7246 160.782Z" fill="#114489"/>
<path d="M84.4801 159.805C112.88 163.119 216.331 168.089 291.592 168.089C268.398 155.308 237.869 128.091 207.574 125.725C154.677 121.592 140.337 129.511 84.4801 159.805Z" fill="#0B499C"/>
<path d="M281.787 165.376C214.315 165.012 128.379 161.06 93.443 157.997C134.451 135.802 151.68 127.389 184.762 127.389C191.294 127.389 198.687 127.72 207.365 128.396C228.514 130.048 250.103 144.423 269.151 157.108C273.509 160.011 277.729 162.82 281.789 165.374L281.787 165.376Z" fill="#283233"/>
<path d="M192.412 125.656L188.668 165.123L194.322 165.66L198.066 126.192L192.412 125.656Z" fill="#0B499C"/>
<path d="M75.2874 202.276C55.5239 202.276 39.5013 218.299 39.5013 238.062C39.5013 257.826 55.5215 273.846 75.2874 273.846C95.0533 273.846 111.073 257.826 111.073 238.062C111.073 218.299 95.0509 202.276 75.2874 202.276ZM75.2874 259.187C63.8015 259.187 54.1626 249.548 54.1626 238.062C54.1626 226.577 63.8015 216.938 75.2874 216.938C86.7733 216.938 96.4121 226.577 96.4121 238.062C96.4121 249.548 86.7733 259.187 75.2874 259.187Z" fill="#283233"/>
<path d="M75.2874 214.817C62.4473 214.817 52.0387 225.226 52.0387 238.066C52.0387 250.906 62.4473 261.312 75.2874 261.312C88.1275 261.312 98.5338 250.904 98.5338 238.066C98.5338 225.228 88.1251 214.817 75.2874 214.817ZM92.406 226.259C94.1098 228.725 95.2927 231.574 95.802 234.654L82.2742 235.513C82.2437 235.43 82.2109 235.348 82.178 235.266L92.406 226.259ZM87.3248 221.11L78.3572 231.291C78.2539 231.244 78.1507 231.199 78.0474 231.157L78.9087 217.584C82.0043 218.129 84.8629 219.356 87.3248 221.107V221.11ZM71.6684 217.587L72.5298 231.159C72.4265 231.199 72.3209 231.246 72.22 231.293L63.2547 221.112C65.7166 219.361 68.5752 218.134 71.6708 217.589L71.6684 217.587ZM58.1712 226.259L68.4015 235.266C68.3687 235.348 68.3358 235.428 68.3053 235.513L54.7776 234.654C55.2869 231.574 56.4697 228.725 58.1712 226.259ZM58.3473 250.115C56.6246 247.7 55.4089 244.9 54.848 241.87L68.4602 241.007C68.4813 241.056 68.5024 241.103 68.5259 241.152L58.3473 250.115ZM63.473 255.173L72.4781 244.947C72.504 244.957 72.5298 244.968 72.5579 244.978L71.6966 258.543C68.6831 258.017 65.8926 256.844 63.473 255.171V255.173ZM78.8876 258.545L78.0263 244.98C78.0521 244.971 78.0803 244.959 78.1061 244.95L87.1113 255.175C84.6916 256.849 81.9034 258.022 78.8876 258.548V258.545ZM92.2346 250.115L82.056 241.152C82.0794 241.103 82.1006 241.056 82.1217 241.007L95.7339 241.87C95.173 244.9 93.9573 247.7 92.2346 250.115Z" fill="#E3E2DC"/>
<path d="M78.9744 238.063C78.9744 240.1 77.3245 241.75 75.2874 241.75C73.2502 241.75 71.6003 240.1 71.6003 238.063C71.6003 236.026 73.2502 234.376 75.2874 234.376C77.3245 234.376 78.9744 236.026 78.9744 238.063Z" fill="#B3B2AD"/>
<path d="M75.2875 245.904C70.9645 245.904 67.4464 242.389 67.4464 238.066C67.4464 233.743 70.9645 230.225 75.2875 230.225C79.6106 230.225 83.1286 233.743 83.1286 238.066C83.1286 242.389 79.6106 245.904 75.2875 245.904ZM75.2875 230.879C71.3259 230.879 68.1035 234.104 68.1035 238.063C68.1035 242.023 71.3259 245.247 75.2875 245.247C79.2491 245.247 82.4715 242.025 82.4715 238.063C82.4715 234.102 79.2491 230.879 75.2875 230.879Z" fill="#B3B2AD"/>
<path d="M318.545 202.276C298.781 202.276 282.759 218.299 282.759 238.062C282.759 257.826 298.779 273.846 318.545 273.846C338.31 273.846 354.331 257.826 354.331 238.062C354.331 218.299 338.308 202.276 318.545 202.276ZM318.545 259.187C307.059 259.187 297.42 249.548 297.42 238.062C297.42 226.577 307.059 216.938 318.545 216.938C330.03 216.938 339.669 226.577 339.669 238.062C339.669 249.548 330.03 259.187 318.545 259.187Z" fill="#283233"/>
<path d="M318.545 214.817C305.705 214.817 295.298 225.226 295.298 238.066C295.298 250.906 305.707 261.312 318.545 261.312C331.382 261.312 341.791 250.904 341.791 238.066C341.791 225.228 331.382 214.817 318.545 214.817ZM335.663 226.259C337.367 228.725 338.55 231.574 339.059 234.654L325.531 235.513C325.501 235.43 325.468 235.348 325.435 235.266L335.663 226.259ZM330.582 221.11L321.614 231.291C321.511 231.244 321.41 231.199 321.305 231.157L322.166 217.584C325.262 218.129 328.12 219.356 330.582 221.107V221.11ZM314.926 217.587L315.787 231.159C315.681 231.199 315.578 231.246 315.477 231.293L306.512 221.112C308.974 219.361 311.832 218.134 314.928 217.589L314.926 217.587ZM301.428 226.259L311.656 235.266C311.624 235.348 311.588 235.428 311.56 235.513L298.032 234.654C298.542 231.574 299.725 228.725 301.428 226.259ZM301.604 250.115C299.882 247.7 298.666 244.9 298.105 241.87L311.717 241.007C311.738 241.056 311.76 241.103 311.783 241.152L301.604 250.115ZM306.728 255.173L315.733 244.947C315.759 244.957 315.785 244.968 315.813 244.978L314.951 258.543C311.938 258.017 309.147 256.844 306.728 255.171V255.173ZM322.145 258.545L321.283 244.98C321.309 244.971 321.337 244.959 321.363 244.95L330.368 255.175C327.949 256.849 325.158 258.022 322.145 258.548V258.545ZM335.492 250.115L325.313 241.152C325.334 241.103 325.358 241.056 325.379 241.007L338.991 241.87C338.433 244.9 337.214 247.7 335.492 250.115Z" fill="#E3E2DC"/>
<path d="M322.231 238.063C322.231 240.1 320.579 241.75 318.544 241.75C316.51 241.75 314.857 240.1 314.857 238.063C314.857 236.026 316.51 234.376 318.544 234.376C320.579 234.376 322.231 236.026 322.231 238.063Z" fill="#B3B2AD"/>
<path d="M318.544 245.904C314.221 245.904 310.703 242.389 310.703 238.066C310.703 233.743 314.221 230.225 318.544 230.225C322.868 230.225 326.386 233.743 326.386 238.066C326.386 242.389 322.868 245.904 318.544 245.904ZM318.544 230.879C314.583 230.879 311.361 234.104 311.361 238.063C311.361 242.023 314.583 245.247 318.544 245.247C322.506 245.247 325.726 242.025 325.726 238.063C325.726 234.102 322.504 230.879 318.544 230.879Z" fill="#B3B2AD"/>
<path d="M160.641 86.3478C155.252 87.2678 151.896 90.746 149.887 91.8021C139.635 95.4821 122.003 100.674 118.06 106.982C114.117 113.291 101.599 172.607 99.6226 181.37C97.6465 190.132 104.654 196.989 122.529 201.622C122.529 217.119 120.189 237.664 116.464 260.227C137.598 270.742 201.733 268.289 223.111 260.227C220.309 249.361 218.206 217.821 218.206 209.06C228.019 211.512 243.79 214.317 243.79 194.34C243.79 174.363 243.79 110.226 235.379 106.372C226.967 102.516 209.013 94.1044 202.395 92.5273C199.172 89.305 196.126 86.2188 192.446 86.2188C185.612 86.2188 175.274 86.3502 160.641 86.3502V86.3478Z" fill="#296D87"/>
<path d="M215.176 152.566C215.153 152.566 215.129 152.566 215.106 152.562C214.817 152.522 214.615 152.259 214.655 151.97C216.326 139.677 214.085 123.779 214.061 123.619C214.019 123.331 214.219 123.065 214.507 123.023C214.796 122.986 215.061 123.183 215.103 123.469C215.127 123.629 217.389 139.675 215.7 152.111C215.664 152.374 215.439 152.566 215.181 152.566H215.176Z" fill="#1D4E61"/>
<path d="M164.248 209.539L163.825 209.492C149.856 207.931 122.693 202.193 122.421 202.137C122.137 202.076 121.954 201.797 122.015 201.513C122.076 201.229 122.355 201.046 122.639 201.107C122.909 201.165 149.486 206.777 163.523 208.398L164.344 205.941C166.606 199.18 167.972 195.096 168.803 190.989C168.862 190.705 169.136 190.52 169.423 190.578C169.707 190.635 169.89 190.914 169.833 191.198C168.991 195.368 167.616 199.473 165.341 206.275L164.25 209.537L164.248 209.539Z" fill="#1D4E61"/>
<path d="M218.206 209.583C218.178 209.583 218.15 209.583 218.122 209.576C198.109 206.283 167.069 200.606 166.757 200.55C166.47 200.498 166.282 200.223 166.334 199.937C166.386 199.653 166.658 199.465 166.947 199.515C167.259 199.571 198.288 205.246 218.293 208.539C218.579 208.586 218.772 208.855 218.727 209.142C218.685 209.4 218.462 209.583 218.208 209.583H218.206Z" fill="#1D4E61"/>
<path d="M227.669 177.244C227.535 177.244 227.401 177.192 227.298 177.089C224.763 174.554 219.915 173.548 219.865 173.538C219.581 173.482 219.396 173.203 219.455 172.919C219.513 172.635 219.79 172.449 220.074 172.508C220.286 172.55 225.287 173.59 228.042 176.348C228.246 176.554 228.246 176.885 228.042 177.091C227.939 177.195 227.805 177.246 227.671 177.246L227.669 177.244Z" fill="#1D4E61"/>
<path d="M117.797 170.154C117.605 170.154 117.419 170.049 117.326 169.863C117.196 169.603 117.3 169.288 117.56 169.157C122.86 166.507 130.846 166.221 131.184 166.211C131.471 166.2 131.717 166.43 131.726 166.721C131.736 167.012 131.508 167.253 131.217 167.263C131.137 167.265 123.12 167.554 118.03 170.1C117.955 170.138 117.875 170.157 117.795 170.157L117.797 170.154Z" fill="#1D4E61"/>
<path d="M173.26 171.12C173.234 171.12 173.208 171.12 173.182 171.115C168.925 170.493 162.748 169.81 162.687 169.803C162.398 169.77 162.189 169.51 162.222 169.224C162.255 168.935 162.511 168.728 162.804 168.759C162.865 168.766 169.059 169.451 173.337 170.075C173.624 170.118 173.823 170.383 173.781 170.672C173.743 170.934 173.518 171.122 173.262 171.122L173.26 171.12Z" fill="#1D4E61"/>
<path d="M194.765 167.937C194.732 167.937 194.697 167.934 194.664 167.927C187.215 166.472 164.025 162.302 163.793 162.259C163.506 162.208 163.316 161.935 163.368 161.649C163.419 161.363 163.692 161.173 163.978 161.224C164.21 161.267 187.41 165.437 194.866 166.894C195.15 166.951 195.335 167.225 195.281 167.512C195.232 167.763 195.014 167.937 194.765 167.937Z" fill="#1D4E61"/>
<path d="M132.543 151.027C132.254 151.027 132.017 150.792 132.017 150.501C132.017 139.156 135.69 122.026 135.728 121.854C135.789 121.57 136.068 121.392 136.352 121.451C136.636 121.512 136.817 121.793 136.756 122.077C136.718 122.249 133.071 139.269 133.071 150.501C133.071 150.792 132.834 151.027 132.545 151.027H132.543Z" fill="#1D4E61"/>
<path d="M176.543 117.452L176.173 117.081C172.434 113.342 167.67 109.019 163.065 104.839C158.341 100.551 153.454 96.1155 149.516 92.1774C149.312 91.9732 149.312 91.6399 149.516 91.4334C149.723 91.2292 150.054 91.2292 150.26 91.4334C154.182 95.3551 159.056 99.7791 163.774 104.062C168.238 108.113 172.849 112.3 176.546 115.968C185.661 106.895 201.881 92.2853 202.045 92.1375C202.261 91.9427 202.594 91.9615 202.787 92.1774C202.982 92.3933 202.963 92.7242 202.747 92.919C202.58 93.0692 185.936 108.064 176.917 117.083L176.546 117.454L176.543 117.452Z" fill="#1D4E61"/>
<path d="M176.543 164.559C176.252 164.559 176.018 164.324 176.018 164.033C176.018 150.01 176.407 112.089 176.412 111.709C176.417 111.417 176.647 111.188 176.942 111.188C177.233 111.192 177.466 111.429 177.461 111.718C177.459 112.1 177.067 150.015 177.067 164.033C177.067 164.324 176.832 164.559 176.541 164.559H176.543Z" fill="#1D4E61"/>
<path d="M175.492 267.574C175.203 267.574 174.966 267.337 174.966 267.048C174.966 221.475 175.081 201.811 175.081 201.618C175.081 201.329 175.318 201.095 175.607 201.095H175.609C175.898 201.097 176.133 201.334 176.13 201.623C176.13 201.815 176.018 221.478 176.018 267.046C176.018 267.335 175.781 267.572 175.492 267.572V267.574Z" fill="#1D4E61"/>
<path d="M163.884 161.743C160.204 159.64 145.484 150.353 142.856 149.478C140.227 148.6 119.9 152.587 117.797 154.69C115.23 154.69 114.117 157.45 117.797 158.37C117.009 159.861 119.156 161.963 122.397 161.743C121.125 163.013 122.397 165.512 131.203 166.737C140.534 166.737 156.832 169.279 162.746 169.279C162.746 166.519 163.884 163.146 163.884 161.743Z" fill="#6D584C"/>
<path d="M117.797 154.689C117.797 154.689 131.63 153.966 137.775 153.243" stroke="#382419" stroke-width="0.560917" stroke-miterlimit="10" stroke-linecap="round"/>
<path d="M117.797 158.369C117.797 158.369 122.397 158.193 136.986 157.58" stroke="#382419" stroke-width="0.560917" stroke-miterlimit="10" stroke-linecap="round"/>
<path d="M122.397 161.741C122.397 161.741 133.437 161.959 136.242 161.959" stroke="#382419" stroke-width="0.560917" stroke-miterlimit="10" stroke-linecap="round"/>
<path d="M223.585 128.604L226.028 129.535C226.028 129.535 218.673 137.524 224.688 140.017C230.077 142.251 231.548 131.507 231.548 131.507L233.905 132.41C233.905 132.41 232.14 147.475 225.214 145.976C222.761 152.458 200.681 203.804 200.681 203.804C200.681 203.804 200.013 206.005 196.229 204.269C192.446 202.534 193.673 200.474 193.673 200.474L218.929 143.589C218.929 143.589 213.172 139.019 223.588 128.604H223.585Z" fill="#CAD0D4"/>
<path d="M173.258 170.594C183.772 172.171 187.189 172.434 189.292 172.434C194.549 167.177 198.229 164.285 201.383 164.285C204.538 164.285 223.463 166.388 222.149 170.594C220.835 174.799 217.68 172.434 214.263 172.434C214.263 178.217 212.686 187.942 207.955 189.519C203.223 191.097 200.332 193.725 193.76 191.359C187.189 188.994 175.886 191.097 169.315 191.097C170.892 183.737 171.943 176.639 173.258 170.594Z" fill="#6D584C"/>
<path d="M153.351 50.095C151.314 40.6885 149.77 29.787 157.425 23.8657C165.081 17.9444 182.441 12.9572 189.085 17.7238C195.73 22.4904 198.314 21.4883 201.059 27.1514C206.206 37.7666 203.557 41.8714 200.466 53.6882C191.078 58.0206 165.196 57.8939 153.353 50.095H153.351Z" fill="#283233"/>
<path d="M198.253 48.3895C197.818 42.9 195.399 34.9204 193.087 32.6087C190.775 30.2969 176.457 29.5741 164.156 32.6087C161.007 33.3855 157.89 37.3143 155.867 48.7251C153.027 45.0193 150.061 46.127 149.195 49.8821C148.329 53.6372 149.326 61.5863 155.724 59.9434C156.766 64.6302 158.554 72.307 163.29 77.6886C162.805 81.1925 161.87 83.9784 160.643 86.3488C164.323 92.7887 172.997 104.561 176.94 110.87C184.037 100.618 189.163 91.4745 192.449 86.2173C191.252 85.0204 190.224 82.1454 189.649 78.4372C195.364 73.0722 197.297 64.9236 198.687 59.8472C202.442 61.2905 205.345 58.8849 205.345 51.3748C205.345 46.0003 201.721 44.923 198.255 48.3895H198.253Z" fill="#6D584C"/>
<path d="M182.096 47.5882C181.662 46.7198 182.906 44.502 186.577 44.502C190.247 44.502 192.857 46.4734 191.853 47.4732C190.848 48.4753 188.813 47.3605 186.577 47.7595C184.34 48.1585 182.62 48.6349 182.096 47.5882Z" fill="#283233"/>
<path d="M172.324 47.5882C172.758 46.7198 171.514 44.502 167.843 44.502C164.173 44.502 161.563 46.4734 162.567 47.4732C163.572 48.4753 165.607 47.3605 167.843 47.7595C170.08 48.1585 171.8 48.6349 172.324 47.5882Z" fill="#283233"/>
<path d="M185.441 53.7363C185.441 54.6868 186.196 55.4566 187.128 55.4566C188.06 55.4566 188.818 54.6868 188.818 53.7363C188.818 52.7858 188.062 52.0137 187.128 52.0137C186.194 52.0137 185.441 52.7835 185.441 53.7363Z" fill="#283233"/>
<path d="M166.039 53.7363C166.039 54.6868 166.794 55.4566 167.728 55.4566C168.663 55.4566 169.418 54.6868 169.418 53.7363C169.418 52.7858 168.663 52.0137 167.728 52.0137C166.794 52.0137 166.039 52.7835 166.039 53.7363Z" fill="#283233"/>
<path d="M170.681 68.7881C172.021 72.0034 178.616 75.6388 183.246 68.7881H170.681Z" fill="white"/>
<path d="M177.046 62.648C176.36 62.648 175.71 62.4908 175.147 62.1786C174.431 61.782 173.941 61.1741 173.802 60.5076C173.394 58.555 175.121 57.3627 176.454 56.6352C178.01 55.7856 177.644 53.4081 177.642 53.3847C177.618 53.2321 177.722 53.089 177.874 53.0631C178.024 53.035 178.17 53.1406 178.196 53.2931C178.215 53.4058 178.63 56.0883 176.724 57.128C174.854 58.149 174.1 59.1863 174.352 60.395C174.457 60.9019 174.847 61.3736 175.419 61.6905C176.299 62.1763 177.442 62.2209 178.557 61.8102C178.705 61.7562 178.862 61.8313 178.916 61.9768C178.97 62.1223 178.898 62.2842 178.75 62.3359C178.182 62.5471 177.602 62.6504 177.046 62.6504V62.648Z" fill="#2A2421"/>
<path d="M155.482 52.638C153.842 50.9974 151.821 48.6294 151.821 52.8351C151.821 57.0408 153.954 58.0594 155.482 55.5458C154.365 54.4287 154.975 53.1449 155.482 52.638Z" fill="#2A2421"/>
<path d="M198.668 52.638C200.309 50.9974 202.538 48.6294 202.538 52.8351C202.538 57.0408 200.196 58.0594 198.668 55.5458C199.785 54.4287 199.175 53.1449 198.668 52.638Z" fill="#2A2421"/>
<path d="M163.291 77.6875C171.798 86.1951 180.36 86.2163 189.649 78.4385C185.185 82.9047 175.204 93.7922 163.291 77.6875Z" fill="#2A2421"/>
</svg>
